<svg width="1000" height="100" viewBox="0 0 1000 100" fill="none" xmlns="http://www.w3.org/2000/svg">
    <g clip-path="url(#clip0_3_3)">
        <rect width="1000" height="100" fill="white"/>
        <path d="M181.5 80.3V77.94L183.66 79.1L181.5 80.3ZM165.76 93.36L170.72 78.74L174.32 79.98L165.96 93.48L165.76 93.36ZM179.08 81.66V79.06L181.46 80.34L179.08 81.66ZM180.74 92.94L176.9 79.78L177.18 79.62L184.42 91.62L180.74 92.94ZM189.72 77.9L189.76 77.62L201.54 78.86L201.02 82.06L189.72 77.9ZM189.78 83.34L189.84 83.06L200.26 84.68L199.64 87.84L189.78 83.34ZM187.88 88.8L187.92 88.56L202.22 90.68L201.7 93.98L187.88 88.8ZM208.58 92.46L208.44 89.96L216.12 90.56L216.82 83.88L210.52 85.04V82.52L216.86 83.52L216.96 82.64L219.54 82.88L217.94 90.72L221.82 91.04V91.26L208.58 92.46ZM227.68 87.36L226.56 83.5L243.5 85.32V85.54L227.68 87.36ZM261.96 78.36V76L264.12 77.16L261.96 78.36ZM255.88 89.88L251.12 94.8L250.92 94.68L254.64 88.7L250.62 84.88L250.76 84.66L255.86 86.76L258.36 82.74L251.9 81.74L247.04 86.36L246.8 86.2L252.26 76.78L255.58 78.24L252.58 81.08L260.9 79.74L263.22 82.26L258.02 87.66L259.68 88.34L257.44 91.34L255.88 89.88ZM259.54 79.72V77.12L261.92 78.4L259.54 79.72ZM268.06 94.04L267.9 93.84L275.64 86.84L278.8 80.3L267.68 81.64V78.2L279 79.88L279.68 78.46L283.04 80.02L277.48 88.56L268.06 94.04ZM293.48 92.34V92.12L296.54 91.64L296.42 85.04L289.76 85.88V83.36L296.4 83.9L296.36 80.78H298.94L298.8 84.08L301 84.26V84.5L298.76 84.76L298.4 94.12L293.48 92.34ZM289.6 92.28L289.46 92.1L293.9 85.96L295.64 87.68L289.6 92.28ZM312.94 84.76L309.18 78.6L309.28 78.38L315.96 82.08L312.94 84.76ZM308.7 93.9L306.94 90.56L323.42 85.4L323.52 85.66L308.7 93.9Z"
              fill="black"/>
        <path d="M540 0H1000V100H540V0Z" fill="#FF1313"/>
        <path d="M540 0L490 0L540 50V0Z" fill="#FF1313"/>
        <path d="M540 100V50L490 100H540Z" fill="#FF1313"/>
        <g filter="url(#filter0_d_3_3)">
            <path d="M550.088 19.63H553.47L553.938 15.9175H550.555L550.088 19.63ZM547.448 27L548.108 21.555H545.963V19.63H548.328L548.795 15.9175H546.513V13.9925H549.015L549.648 9.125H551.38L550.775 13.9925H554.158L554.79 9.125H556.523L555.918 13.9925H558.118V15.9175H555.698L555.23 19.63H557.568V21.555H555.01L554.35 27H552.59L553.25 21.555H549.868L549.208 27H547.448ZM579.975 5.5775L578.518 6.21C579.26 7.255 580.195 8.905 580.718 10.005L582.23 9.345C581.653 8.245 580.663 6.5675 579.975 5.5775ZM583 4.4775L581.543 5.11C582.313 6.1275 583.22 7.695 583.825 8.8775L585.283 8.2175C584.788 7.2 583.715 5.495 583 4.4775ZM564.905 18.75C563.97 21.0325 562.403 23.92 560.67 26.23L563.008 27.22C564.548 24.9925 566.06 22.16 567.078 19.6575C568.233 16.825 569.195 12.755 569.553 11.05C569.69 10.4725 569.883 9.6475 570.075 9.0425L567.628 8.5475C567.243 11.71 566.115 15.89 564.905 18.75ZM578.463 17.705C579.59 20.62 580.883 24.36 581.57 27.1375L584.018 26.3675C583.275 23.865 581.818 19.6575 580.718 16.935C579.535 14.0475 577.775 10.2525 576.703 8.245L574.475 8.9875C575.658 11.05 577.363 14.8725 578.463 17.705ZM594.33 6.1825L593.533 8.2175C597.328 8.7125 604.533 10.28 607.86 11.5175L608.74 9.4C605.275 8.19 597.905 6.65 594.33 6.1825ZM593.065 13.4425L592.24 15.505C596.145 16.11 602.883 17.6225 606.073 18.86L606.925 16.7425C603.515 15.505 596.833 14.1025 593.065 13.4425ZM591.58 21.445L590.728 23.5625C595.155 24.25 603.35 26.0925 606.98 27.6875L607.943 25.57C604.175 24.0575 596.173 22.1875 591.58 21.445ZM634.178 13.9375L632.5 13.1125C632.28 13.25 631.593 13.305 631.153 13.305C629.613 13.305 623.838 13.305 622.793 13.305C622.105 13.305 621.253 13.25 620.593 13.1675V15.4775C621.28 15.4225 622.023 15.395 622.82 15.395C623.563 15.395 629.833 15.395 631.538 15.395C631.455 17.155 630.438 23.8925 630.135 25.3775H632.445C632.775 23.4525 633.765 16.8525 634.013 14.79C634.013 14.5425 634.095 14.185 634.178 13.9375ZM618.008 24.4975V26.78C618.833 26.7525 619.465 26.725 620.29 26.725C621.665 26.725 633.82 26.725 635.36 26.725C635.965 26.725 636.955 26.725 637.478 26.7525V24.525C636.9 24.58 635.91 24.635 635.305 24.635C633.848 24.635 621.775 24.635 620.29 24.635C619.465 24.635 618.668 24.58 618.008 24.4975ZM644.215 15.0925V17.7875C645.095 17.7325 646.553 17.6775 648.065 17.6775C650.1 17.6775 661.073 17.6775 663.163 17.6775C664.373 17.6775 665.528 17.76 666.105 17.7875V15.0925C665.473 15.1475 664.51 15.2575 663.135 15.2575C661.1 15.2575 650.073 15.2575 648.065 15.2575C646.498 15.2575 645.068 15.175 644.215 15.0925ZM689.975 4.835L688.49 5.4675C689.233 6.5125 690.168 8.1625 690.718 9.2625L692.203 8.6025C691.653 7.5025 690.663 5.825 689.975 4.835ZM692.973 3.735L691.543 4.3675C692.313 5.385 693.193 6.9525 693.798 8.135L695.283 7.475C694.76 6.4575 693.715 4.7525 692.973 3.735ZM679.47 15.065L677.985 16.5775C681.395 18.695 686.07 22.0775 688.628 24.3875L690.223 22.49C687.528 20.2625 682.99 17.1 679.47 15.065ZM692.038 10.0325L690.223 8.9325C689.783 9.0975 689.178 9.2075 688.435 9.2075H679.69L678.81 11.16H689.013C688.38 13.7175 686.648 17.21 684.503 19.74C682.028 22.6825 678.288 25.5975 673.173 27.165L675.125 28.87C680.35 26.945 683.953 24.0025 686.428 20.95C688.848 17.9525 690.58 14.3225 691.405 11.5175C691.57 11.0775 691.818 10.4175 692.038 10.0325ZM682.77 6.0725L680.295 5.275C680.13 5.9625 679.663 6.9525 679.388 7.4475C678.123 9.95 675.29 14.075 670.588 17.0175L672.43 18.4475C676.803 15.4225 679.91 11.2425 681.56 8.2175C681.835 7.7225 682.303 6.7875 682.77 6.0725ZM720.115 8.74L718.438 7.6675C717.915 7.7775 717.365 7.805 716.953 7.805C715.715 7.805 704.743 7.805 703.175 7.805C702.268 7.805 701.168 7.7225 700.425 7.6125V10.06C701.113 10.0325 702.048 9.9775 703.148 9.9775C704.743 9.9775 715.633 9.9775 717.228 9.9775C716.843 12.6175 715.578 16.44 713.625 18.9425C711.315 21.885 708.235 24.2225 702.9 25.5425L704.77 27.605C709.803 26.0375 713.075 23.48 715.578 20.2625C717.778 17.43 719.098 13.0025 719.703 10.115C719.813 9.565 719.923 9.125 720.115 8.74ZM741.84 10.1975H739.503C739.613 10.8025 739.668 11.5175 739.668 12.0675C739.778 14.4875 739.915 22.7375 739.915 25.9825C739.915 26.505 739.668 26.8075 739.145 26.8075C738.348 26.8075 736.918 26.6975 735.79 26.5325L735.928 28.5675C737 28.6225 738.815 28.705 739.888 28.705C741.098 28.705 741.978 28.0175 741.978 26.835C741.923 22.8475 741.785 14.4875 741.73 12.0675C741.73 11.435 741.73 10.775 741.84 10.1975ZM729.438 14.1575V16.3575C730.098 16.3025 730.813 16.275 731.528 16.275C732.518 16.275 744.81 16.275 745.8 16.275C746.323 16.275 747.093 16.3025 747.56 16.33V14.1575C747.175 14.24 746.295 14.295 745.718 14.295C744.59 14.295 732.655 14.295 731.5 14.295C730.84 14.295 730.098 14.2675 729.438 14.1575ZM728.723 24.69L730.235 26.3675C734.443 24.1675 738.953 20.015 740.41 17.32L740.383 15.67L739.255 15.6425C737.66 18.53 733.15 22.5725 728.723 24.69ZM757.68 6.87L756.085 8.5475C758.148 9.895 761.558 12.865 762.96 14.295L764.665 12.535C763.153 11.0225 759.605 8.1625 757.68 6.87ZM755.315 25.295L756.745 27.55C761.338 26.6975 764.803 24.9925 767.58 23.26C771.733 20.6475 774.923 16.9075 776.793 13.4975L775.473 11.1325C773.878 14.5425 770.55 18.6125 766.288 21.28C763.675 22.9025 760.1 24.58 755.315 25.295ZM791.588 3.9275V7.9425H793.705V3.9275H791.588ZM781.055 6.6225V11.9575H783.09V8.465H802.175V11.9575H804.293V6.6225H781.055ZM783.365 11.655V13.3875H802.175V11.655H783.365ZM780.643 20.2075V22.0225H804.87V20.2075H780.643ZM783.805 15.8625V17.595H801.79V15.8625H783.805ZM794.09 20.6475L792.22 21.0875C794.2 25.6525 798.105 28.2375 803.908 29.2825C804.183 28.7325 804.733 27.9075 805.173 27.4675C799.645 26.6975 795.795 24.4425 794.09 20.6475ZM791.56 9.3725V16.22C791.56 20.18 790.735 24.6625 780.368 27.55C780.808 27.99 781.413 28.76 781.633 29.2C792.303 26.01 793.623 20.9225 793.623 16.22V9.3725H791.56ZM807.785 5.33V7.255H817.245V5.33H807.785ZM808.115 13.1125V15.0375H816.97V13.1125H808.115ZM807.263 22.9025L807.813 24.91C810.508 24.085 814.193 23.0125 817.658 21.9675L817.383 20.125C813.67 21.1975 809.82 22.27 807.263 22.9025ZM820.435 11.27H829.455V14.0475H820.435V11.27ZM820.435 15.725H829.455V18.5025H820.435V15.725ZM820.435 6.87H829.455V9.62H820.435V6.87ZM818.51 5.11V20.29H831.463V5.11H818.51ZM825.715 19.4375V26.45C825.715 28.43 826.183 29.035 828.19 29.035C828.575 29.035 830.445 29.035 830.858 29.035C832.535 29.035 833.058 28.155 833.223 24.745C832.7 24.635 831.875 24.305 831.463 23.975C831.38 26.8075 831.27 27.22 830.638 27.22C830.225 27.22 828.795 27.22 828.493 27.22C827.833 27.22 827.695 27.11 827.695 26.4225V19.4375H825.715ZM821.04 19.85C820.6 23.6725 819.473 26.3125 814.413 27.6875C814.825 28.0725 815.375 28.87 815.595 29.3925C821.15 27.66 822.553 24.4975 823.048 19.85H821.04ZM811.608 6.1V22.6275L813.588 22.2975V6.1H811.608ZM856.075 7.255C856.075 6.265 856.873 5.44 857.89 5.44C858.88 5.44 859.705 6.265 859.705 7.255C859.705 8.2725 858.88 9.07 857.89 9.07C856.873 9.07 856.075 8.2725 856.075 7.255ZM854.81 7.255C854.81 8.96 856.185 10.335 857.89 10.335C859.595 10.335 860.97 8.96 860.97 7.255C860.97 5.55 859.595 4.175 857.89 4.175C856.185 4.175 854.81 5.55 854.81 7.255ZM857.203 9.0975L855.525 8.025C855.003 8.1625 854.48 8.19 854.04 8.19C852.803 8.19 841.83 8.19 840.263 8.19C839.355 8.19 838.255 8.08 837.513 7.9975V10.445C838.2 10.39 839.135 10.335 840.235 10.335C841.83 10.335 852.72 10.335 854.315 10.335C853.93 12.975 852.665 16.825 850.713 19.3C848.403 22.2425 845.323 24.58 839.988 25.9275L841.858 27.99C846.89 26.395 850.163 23.865 852.665 20.62C854.865 17.815 856.185 13.36 856.79 10.4725C856.9 9.95 857.01 9.4825 857.203 9.0975ZM865.453 8.1625C865.48 8.85 865.48 9.675 865.48 10.3075C865.48 11.38 865.48 22.7375 865.48 23.865C865.48 24.8275 865.425 26.835 865.425 27.1925H867.763C867.763 26.835 867.735 25.075 867.735 24.1675C867.735 23.04 867.735 10.39 867.735 10.39H882.75C882.75 10.39 882.75 23.15 882.75 24.1675C882.75 25.3225 882.723 26.89 882.695 27.1925H885.088C885.06 26.89 885.033 24.745 885.033 23.865C885.033 22.82 885.033 11.6 885.033 10.3075C885.033 9.62 885.033 8.85 885.088 8.19C884.235 8.2175 883.245 8.2175 882.668 8.2175C881.32 8.2175 869.358 8.2175 867.9 8.2175C867.24 8.2175 866.525 8.2175 865.453 8.1625ZM883.658 23.48H866.635V25.625H883.658V23.48ZM908.628 6.485L907.088 7.145C907.995 8.3825 908.93 10.0325 909.618 11.49L911.185 10.775C910.553 9.455 909.315 7.5025 908.628 6.485ZM912.203 5.165L910.69 5.8525C911.598 7.0625 912.56 8.6575 913.275 10.0875L914.843 9.3725C914.183 8.1075 912.945 6.1275 912.203 5.165ZM896.858 6.0725L895.62 7.9425C897.243 8.85 900.24 10.8575 901.533 11.8475L902.853 9.9775C901.643 9.0975 898.48 6.98 896.858 6.0725ZM892.733 25.735L894.025 27.99C896.555 27.4675 900.35 26.175 903.128 24.5525C907.528 21.995 911.323 18.42 913.715 14.735L912.368 12.48C910.14 16.3575 906.538 19.9325 901.973 22.545C899.168 24.14 895.758 25.2125 892.733 25.735ZM892.733 12.26L891.495 14.1575C893.173 15.01 896.143 16.935 897.49 17.8975L898.755 15.9725C897.573 15.12 894.355 13.14 892.733 12.26ZM922.02 12.81V15.01C922.598 14.955 923.505 14.9275 923.945 14.9275H936.595C937.2 14.9275 937.943 14.955 938.52 15.01V12.81C937.97 12.865 937.283 12.92 936.595 12.92H923.918C923.478 12.92 922.625 12.865 922.02 12.81ZM929.005 26.175H931.205V14.0475H929.005V26.175ZM920.7 24.91V27.1925C921.36 27.1375 922.048 27.11 922.653 27.11H937.86C938.3 27.11 939.153 27.1375 939.703 27.1925V24.91C939.153 24.965 938.52 25.02 937.86 25.02H922.653C922.048 25.02 921.333 24.9925 920.7 24.91ZM967.89 9.8125L966.075 8.7125C965.635 8.8775 965.003 8.96 964.26 8.96C963.408 8.96 956.615 8.96 955.515 8.96L954.635 10.94H964.81C964.26 13.4425 962.555 17.0175 960.438 19.52C957.908 22.4625 954.498 24.9375 949.438 26.4225L951.445 28.2375C956.588 26.3125 959.888 23.81 962.39 20.7575C964.838 17.76 966.515 14.0475 967.258 11.27C967.395 10.83 967.67 10.1975 967.89 9.8125ZM958.678 5.66L956.148 4.8075C955.983 5.5225 955.57 6.5125 955.295 7.0075C954.085 9.455 951.39 13.47 946.633 16.3025L948.558 17.705C952.985 14.79 955.845 10.8575 957.468 7.805C957.743 7.31 958.238 6.375 958.678 5.66ZM980.678 24.58C980.678 25.5975 980.65 26.9725 980.513 27.8525H983.18C983.07 26.945 983.015 25.46 983.015 24.58C983.015 23.2875 982.988 12.865 982.988 8.6025C982.988 7.75 983.07 6.5675 983.18 5.715H980.485C980.623 6.595 980.678 7.805 980.678 8.6025C980.678 10.885 980.678 23.04 980.678 24.58ZM982.493 12.9475V15.3675C985.49 16.3025 990.633 18.255 993.768 19.9325L994.73 17.595C991.678 16.11 986.123 13.9925 982.493 12.9475Z"
                  fill="white"/>
        </g>
        <g filter="url(#filter1_d_3_3)">
            <path d="M26.86 36.524C29.408 40.08 34.336 44.448 38.676 47.052C39.068 46.436 39.572 45.736 40.104 45.26C35.708 42.908 30.724 38.596 27.784 34.424H25.684C23.528 38.12 18.796 42.74 13.952 45.568C14.428 45.988 15.016 46.716 15.296 47.22C20.028 44.308 24.592 39.968 26.86 36.524ZM20.84 43.328V45.316H33.104V43.328H20.84ZM17.228 48.844V50.832H34.252V48.844H17.228ZM33.832 48.844V49.096C32.768 51.56 30.528 56.32 28.708 59.764L30.92 60.352C32.656 56.88 34.84 52.344 36.156 49.236L34.504 48.704L34.14 48.844H33.832ZM54.188 35.852L51.864 35.768C51.864 36.132 51.836 36.636 51.78 37.14C51.528 39.548 50.968 44.084 50.968 47.92C50.968 51.476 51.724 55.452 52.536 57.944L54.58 57.328C53.712 54.696 52.928 51.336 52.928 47.696C52.928 43.86 53.404 39.436 53.88 37.084C53.964 36.692 54.076 36.188 54.188 35.852ZM49.68 39.296C48.476 39.296 46.04 39.128 45.06 38.96L45.116 41.06C46.264 41.116 48.448 41.228 49.652 41.228C53.824 41.228 59.34 40.808 63.372 40.108L63.344 38.036C59.48 38.904 54.608 39.296 49.68 39.296ZM61.356 42.6L59.116 42.04C59.088 42.488 58.948 43.244 58.836 43.664C57.548 48.2 55.252 51.224 52.76 53.408C50.968 54.976 49.148 55.76 47.748 55.76C46.712 55.76 46.152 55.2 46.152 54.052C46.152 51.476 48.672 48.396 51.836 46.996C53.264 46.352 55.336 45.68 57.688 45.68C61.86 45.68 64.156 48.06 64.156 50.776C64.156 54.388 61.02 56.992 55.98 57.552L57.184 59.428C63.68 58.392 66.34 54.892 66.34 50.888C66.34 46.968 63.008 43.888 57.716 43.888C55.896 43.888 53.628 44.308 51.752 45.036C47.608 46.632 44.052 50.58 44.052 54.416C44.052 56.796 45.508 57.916 47.356 57.916C49.344 57.916 51.584 56.88 53.376 55.508C56.316 53.24 59.116 49.348 60.768 44.168C60.936 43.72 61.188 42.964 61.356 42.6ZM75.664 37.392L75.72 39.688C76.336 39.604 76.952 39.576 77.596 39.52C79.052 39.436 84.652 39.212 86.136 39.128C84.736 40.388 81.208 43.328 79.64 44.616C78.044 45.988 74.432 49.012 72.108 50.916L73.732 52.54C77.26 48.928 79.78 46.968 84.428 46.968C88.096 46.968 90.728 49.012 90.728 51.784C90.728 55.284 87.732 57.244 82.972 57.244C80.76 57.244 79.22 56.432 79.22 55.06C79.22 54.08 80.2 53.296 81.488 53.296C83.728 53.296 85.1 55.004 85.268 57.384L87.284 57.048C87.088 54.22 85.212 51.588 81.488 51.588C78.912 51.588 77.176 53.324 77.176 55.228C77.176 57.58 79.5 59.232 83.308 59.232C89.244 59.232 92.968 56.292 92.968 51.784C92.968 48.004 89.636 45.232 84.988 45.232C83.728 45.232 82.384 45.372 81.096 45.792C83.28 44 87.088 40.724 88.46 39.66C88.992 39.24 89.552 38.876 90.056 38.54L88.768 36.888C88.46 37 88.068 37.056 87.228 37.14C85.744 37.28 79.108 37.476 77.624 37.476C77.064 37.476 76.28 37.448 75.664 37.392ZM119.372 39.296L117.972 38.204C117.524 38.344 116.768 38.428 115.872 38.428C114.808 38.428 106.156 38.428 105.064 38.428C104.196 38.428 102.6 38.316 102.236 38.26V40.78C102.544 40.752 104.056 40.64 105.064 40.64C106.016 40.64 114.976 40.64 115.984 40.64C115.256 42.964 113.212 46.296 111.308 48.452C108.424 51.644 104.308 55.004 99.772 56.74L101.564 58.616C105.988 56.6 109.992 53.268 113.128 49.768C115.452 47.192 117.58 43.272 118.7 40.5C118.84 40.136 119.204 39.52 119.372 39.296ZM113.492 48.312L111.896 49.88C114.92 52.54 118.196 56.124 120.212 58.784L122.144 57.076C120.24 54.752 116.516 50.832 113.492 48.312ZM150.136 40.248L148.372 38.848C147.98 38.988 147.336 39.044 146.58 39.044C143.78 39.044 131.32 39.044 129.892 39.044C128.912 39.044 127.792 38.96 127.036 38.848V41.34C127.568 41.284 128.772 41.2 129.892 41.2C131.488 41.2 143.836 41.2 146.356 41.2C144.872 43.86 141.26 48.396 136.78 51.504L138.516 53.072C143.472 49.488 147.336 44.56 149.436 41.116C149.604 40.864 149.856 40.556 150.136 40.248ZM136.948 53.548C138.74 55.368 140.98 57.832 142.016 59.26L144.06 57.636C142.856 56.18 140.672 53.884 138.908 52.12C136.892 50.16 133.644 47.5 132.356 46.576L130.564 48.032C132.048 49.096 135.268 51.868 136.948 53.548ZM167.86 36.048H165.256C165.34 36.468 165.452 37.448 165.452 38.036C165.452 39.52 165.452 42.292 165.452 43.244C165.452 44.588 165.452 54.136 165.452 55.676C165.424 56.404 165.116 56.74 164.36 56.74C163.604 56.74 162.344 56.628 161.112 56.404L161.308 58.644C162.456 58.756 164.108 58.84 165.312 58.84C166.992 58.84 167.692 58.084 167.692 56.6C167.692 54.612 167.692 45.54 167.692 43.244C167.692 41.9 167.692 39.548 167.692 38.064C167.692 37.448 167.804 36.44 167.86 36.048ZM155.288 40.78V43.132C156.016 43.076 156.828 43.048 157.668 43.048C159.376 43.048 173.46 43.048 175.14 43.048C175.812 43.048 176.652 43.048 177.38 43.104V40.78C176.708 40.892 175.756 40.92 175.112 40.92C173.46 40.92 159.32 40.92 157.668 40.92C156.772 40.92 156.072 40.864 155.288 40.78ZM161.728 47.36L159.768 46.408C158.676 48.676 156.268 52.008 154.42 53.744L156.324 55.06C157.92 53.324 160.524 49.768 161.728 47.36ZM173.432 46.436L171.528 47.444C172.984 49.208 175.084 52.708 176.204 54.892L178.276 53.744C177.156 51.728 174.916 48.228 173.432 46.436ZM193.032 35.88L190.736 35.684C190.652 37 190.26 38.68 189.644 40.22C188.692 42.6 186.816 45.848 182.784 49.712L184.716 51.14C185.64 49.992 186.424 48.984 187.236 48.2C188.524 47.052 190.288 46.156 192.08 46.156C193.536 46.156 194.656 46.912 194.684 48.536C194.712 49.992 194.684 52.876 194.572 54.36H196.728C196.7 52.624 196.644 49.404 196.644 47.948C196.644 45.68 194.964 44.392 192.808 44.392C191.576 44.392 189.98 44.784 188.888 45.428C190.008 43.972 191.044 42.096 191.744 40.388C192.472 38.512 192.78 36.972 193.032 35.88ZM183.428 38.904V41.004C184.996 41.116 186.844 41.172 188.048 41.172C191.604 41.172 196.812 40.92 200.732 40.332V38.26C196.784 38.96 191.94 39.184 188.16 39.184C186.872 39.184 184.94 39.1 183.428 38.904ZM204.82 45.652L203.924 43.58C203.14 43.972 202.44 44.28 201.6 44.672C199.752 45.54 197.484 46.408 194.824 47.78C191.492 49.488 188.02 51.588 188.02 55.004C188.02 58.392 191.24 59.26 195.216 59.26C197.652 59.26 200.76 59.036 202.888 58.784L202.972 56.516C200.508 56.964 197.484 57.216 195.3 57.216C192.416 57.216 190.26 56.88 190.26 54.696C190.26 52.764 192.22 51.252 194.992 49.796C197.708 48.396 200.368 47.332 202.356 46.548C203.112 46.268 204.12 45.876 204.82 45.652Z"
                  fill="black"/>
        </g>
        <path d="M45.5273 81.1055L45.0195 80.3828C45.1888 80.2786 45.3711 80.1484 45.5664 79.9922C45.7747 79.8229 45.9505 79.6406 46.0938 79.4453C46.25 79.25 46.3281 79.0417 46.3281 78.8203C46.3281 78.7292 46.2826 78.6836 46.1914 78.6836L46.0742 78.7227H46.0352C45.6315 78.7487 45.319 78.6445 45.0977 78.4102C44.8763 78.1758 44.7656 77.8633 44.7656 77.4727C44.7656 76.6263 45.2018 76.2031 46.0742 76.2031C46.6211 76.2031 46.9922 76.3659 47.1875 76.6914C47.3958 77.0169 47.5 77.4271 47.5 77.9219C47.5 78.625 47.3112 79.237 46.9336 79.7578C46.556 80.2786 46.0872 80.7279 45.5273 81.1055ZM41.8164 81.1055L41.3086 80.3828C41.4779 80.2786 41.6602 80.1484 41.8555 79.9922C42.0638 79.8229 42.2396 79.6406 42.3828 79.4453C42.5391 79.25 42.6172 79.0417 42.6172 78.8203C42.6172 78.7292 42.5651 78.6836 42.4609 78.6836L42.3438 78.7227H42.2852C41.9336 78.7357 41.6406 78.612 41.4062 78.3516C41.1719 78.0781 41.0547 77.7786 41.0547 77.4531C41.0547 76.6198 41.4909 76.2031 42.3633 76.2031C42.9102 76.2031 43.2812 76.3659 43.4766 76.6914C43.6849 77.0169 43.7891 77.4271 43.7891 77.9219C43.7891 78.625 43.6003 79.237 43.2227 79.7578C42.8451 80.2786 42.3763 80.7279 41.8164 81.1055ZM62.3438 79.2305V77.3945H77.5781V79.2305H62.3438ZM63.7891 85.9688V84.1328H75.9766V85.9688H63.7891ZM60.957 93.3711V91.5352H79.043V93.3711H60.957ZM81.8945 94.4062C81.7253 94.1328 81.543 93.8594 81.3477 93.5859C81.1654 93.3255 80.9831 93.0651 80.8008 92.8047C81.4128 92.401 81.9206 91.9193 82.3242 91.3594C82.7409 90.7995 83.0404 90.1615 83.2227 89.4453C83.3659 88.9245 83.457 88.332 83.4961 87.668C83.5352 86.9909 83.5547 86.3138 83.5547 85.6367C83.5547 84.9596 83.5547 84.3542 83.5547 83.8203C83.5547 83.4036 83.5482 82.9935 83.5352 82.5898C83.5352 82.1862 83.5352 81.7826 83.5352 81.3789C83.2487 81.6133 82.9492 81.8411 82.6367 82.0625C82.3242 82.2708 82.0052 82.4727 81.6797 82.668C81.5495 82.4076 81.4128 82.1602 81.2695 81.9258C81.1263 81.6784 80.9766 81.4375 80.8203 81.2031C81.9271 80.6042 82.9232 79.888 83.8086 79.0547C84.694 78.2083 85.4753 77.2578 86.1523 76.2031L88.1055 76.3789C87.9883 76.5482 87.8711 76.724 87.7539 76.9062C87.6367 77.0755 87.513 77.2448 87.3828 77.4141H93.8477L94.8047 78.1758C94.362 78.6315 93.9193 79.0872 93.4766 79.543C93.0339 79.9857 92.5651 80.4089 92.0703 80.8125H97.5586V92.5703C97.5586 93.0391 97.4089 93.3971 97.1094 93.6445C96.8099 93.9049 96.4388 94.0807 95.9961 94.1719C95.5534 94.276 95.1042 94.3346 94.6484 94.3477C94.1927 94.3737 93.8086 94.3932 93.4961 94.4062C93.3789 94.1068 93.2617 93.8008 93.1445 93.4883C93.0404 93.1758 92.9167 92.8763 92.7734 92.5898C92.8646 92.6029 93.0404 92.6094 93.3008 92.6094C93.5742 92.6094 93.8737 92.6029 94.1992 92.5898C94.5247 92.5768 94.8177 92.5573 95.0781 92.5312C95.3385 92.5052 95.5013 92.4727 95.5664 92.4336C95.7487 92.3034 95.8398 92.1211 95.8398 91.8867V89.6602H84.9609C84.7786 90.6497 84.4336 91.5482 83.9258 92.3555C83.418 93.1497 82.7409 93.8333 81.8945 94.4062ZM84.2188 80.8125H90.1758C90.5013 80.487 90.8203 80.168 91.1328 79.8555C91.4453 79.5299 91.7643 79.2044 92.0898 78.8789H86.1719C85.8724 79.2174 85.5534 79.5495 85.2148 79.875C84.8893 80.2005 84.5573 80.513 84.2188 80.8125ZM85.2148 84.4258H89.5117V82.2969H85.2148V84.4258ZM91.1523 84.4258H95.8398V82.2969H91.1523V84.4258ZM85.1172 88.1758H89.5117V85.8711H85.1953C85.1823 86.2487 85.1693 86.6328 85.1562 87.0234C85.1562 87.4141 85.1432 87.7982 85.1172 88.1758ZM91.1523 88.1758H95.8398V85.8711H91.1523V88.1758ZM111.289 81.6719C111.146 81.4115 110.996 81.1641 110.84 80.9297C110.697 80.6823 110.54 80.4349 110.371 80.1875C111.53 79.7969 112.637 79.263 113.691 78.5859C114.746 77.8958 115.736 77.1536 116.66 76.3594L117.969 77.5508C116.992 78.3581 115.931 79.1393 114.785 79.8945C113.652 80.6367 112.487 81.2292 111.289 81.6719ZM107.676 94.3477V85.168H104.883C104.87 85.9883 104.831 86.8216 104.766 87.668C104.714 88.5143 104.59 89.3477 104.395 90.168C104.199 90.9753 103.893 91.737 103.477 92.4531C103.073 93.1562 102.52 93.7812 101.816 94.3281C101.647 94.0677 101.478 93.8008 101.309 93.5273C101.139 93.2669 100.97 93.0065 100.801 92.7461C101.569 92.1081 102.122 91.3789 102.461 90.5586C102.799 89.7253 103.014 88.8464 103.105 87.9219C103.21 86.9974 103.268 86.0794 103.281 85.168H100.957V83.5273H103.301C103.288 82.8503 103.288 82.1797 103.301 81.5156C103.314 80.8385 103.327 80.1615 103.34 79.4844V78.7422H101.367V77.1016H111.094V78.7422H109.316V83.5273H111.465V85.168H109.316V94.3477H107.676ZM104.902 83.5273H107.676V78.7422H104.941C104.954 79.5365 104.954 80.3372 104.941 81.1445C104.941 81.9388 104.928 82.7331 104.902 83.5273ZM111.621 87.5703C111.465 87.3229 111.309 87.0755 111.152 86.8281C110.996 86.5807 110.827 86.3464 110.645 86.125C111.803 85.6562 112.917 85.0833 113.984 84.4062C115.052 83.7292 116.022 82.9349 116.895 82.0234L118.145 83.2148C117.22 84.1523 116.204 84.9857 115.098 85.7148C114.004 86.444 112.845 87.0625 111.621 87.5703ZM110.801 94.3867C110.658 94.1263 110.508 93.8659 110.352 93.6055C110.195 93.3451 110.039 93.0911 109.883 92.8438C111.393 92.3099 112.839 91.6328 114.219 90.8125C115.599 89.9792 116.829 88.9701 117.91 87.7852L119.199 89.0156C118.014 90.2005 116.719 91.2617 115.312 92.1992C113.906 93.1237 112.402 93.8529 110.801 94.3867ZM127.32 90.9C127.2 91.3667 127.047 91.8733 126.86 92.42C126.673 92.9667 126.467 93.5067 126.24 94.04C126.027 94.5867 125.813 95.1 125.6 95.58H124.28C124.413 95.0733 124.54 94.5267 124.66 93.94C124.793 93.3667 124.913 92.8 125.02 92.24C125.14 91.6667 125.233 91.1467 125.3 90.68H127.18L127.32 90.9ZM123.62 90.9C123.5 91.3667 123.347 91.8733 123.16 92.42C122.973 92.9667 122.767 93.5067 122.54 94.04C122.327 94.5867 122.113 95.1 121.9 95.58H120.62C120.713 95.2067 120.807 94.8067 120.9 94.38C120.993 93.9533 121.08 93.52 121.16 93.08C121.253 92.6533 121.333 92.2333 121.4 91.82C121.48 91.4067 121.547 91.0267 121.6 90.68H123.48L123.62 90.9ZM148.77 93.2734C148.652 92.974 148.522 92.6875 148.379 92.4141C148.236 92.1276 148.092 91.8477 147.949 91.5742C148.809 91.4049 149.648 91.1771 150.469 90.8906C151.302 90.5911 152.051 90.2005 152.715 89.7188C153.379 89.224 153.906 88.6185 154.297 87.9023C154.701 87.1862 154.902 86.3203 154.902 85.3047C154.902 84.263 154.668 83.3516 154.199 82.5703C153.73 81.776 153.092 81.1445 152.285 80.6758C151.478 80.207 150.566 79.9466 149.551 79.8945C149.473 80.3893 149.349 81.0208 149.18 81.7891C149.023 82.5443 148.815 83.3646 148.555 84.25C148.307 85.1224 148.008 85.9948 147.656 86.8672C147.318 87.7266 146.927 88.5143 146.484 89.2305C146.055 89.9336 145.566 90.5 145.02 90.9297C144.486 91.3594 143.9 91.5742 143.262 91.5742C142.637 91.5742 142.109 91.4115 141.68 91.0859C141.25 90.7604 140.905 90.3438 140.645 89.8359C140.384 89.3151 140.189 88.7682 140.059 88.1953C139.941 87.6224 139.883 87.082 139.883 86.5742C139.883 85.3112 140.117 84.1654 140.586 83.1367C141.055 82.1081 141.699 81.2227 142.52 80.4805C143.353 79.7253 144.303 79.1458 145.371 78.7422C146.452 78.3385 147.604 78.1367 148.828 78.1367C149.922 78.1367 150.944 78.2995 151.895 78.625C152.858 78.9505 153.698 79.4258 154.414 80.0508C155.143 80.6758 155.71 81.4375 156.113 82.3359C156.53 83.2344 156.738 84.263 156.738 85.4219C156.738 86.6328 156.523 87.6875 156.094 88.5859C155.677 89.4714 155.098 90.2266 154.355 90.8516C153.626 91.4635 152.78 91.9648 151.816 92.3555C150.866 92.7461 149.85 93.0521 148.77 93.2734ZM143.32 89.6211C143.672 89.6211 144.004 89.4648 144.316 89.1523C144.629 88.8398 144.915 88.4557 145.176 88C145.449 87.5312 145.684 87.0755 145.879 86.6328C146.074 86.1901 146.224 85.8451 146.328 85.5977C146.667 84.7513 146.953 83.8854 147.188 83C147.435 82.1146 147.624 81.2161 147.754 80.3047L147.812 79.9141C146.628 80.0443 145.566 80.4089 144.629 81.0078C143.704 81.6068 142.975 82.3815 142.441 83.332C141.921 84.2826 141.66 85.3698 141.66 86.5938C141.66 86.8281 141.686 87.1211 141.738 87.4727C141.79 87.8112 141.875 88.1432 141.992 88.4688C142.122 88.7943 142.292 89.0677 142.5 89.2891C142.721 89.5104 142.995 89.6211 143.32 89.6211ZM329.746 82.3164V77.9609H337.305V76.2031H339.16V77.9609H346.914V82.3164H345.195V79.4453H331.465V82.3164H329.746ZM330.098 94.4258C329.98 94.1654 329.857 93.8984 329.727 93.625C329.596 93.3646 329.46 93.1042 329.316 92.8438C329.954 92.7656 330.651 92.6549 331.406 92.5117C332.174 92.3685 332.93 92.1602 333.672 91.8867C334.414 91.6133 335.072 91.2487 335.645 90.793C336.23 90.3372 336.647 89.7578 336.895 89.0547H329.746V87.5898H337.246C337.272 87.3034 337.298 87.0234 337.324 86.75C337.35 86.4766 337.37 86.1966 337.383 85.9102H332.188V84.5234H337.422C337.448 84.3411 337.454 84.1589 337.441 83.9766C337.441 83.7943 337.441 83.6185 337.441 83.4492V82.9023H332.031V81.5156H337.441V80.0703H339.023V81.5156H344.609V82.9023H339.004C338.991 83.1758 338.984 83.4492 338.984 83.7227C338.997 83.9831 338.991 84.25 338.965 84.5234H344.453V85.9102H338.926C338.913 86.1966 338.893 86.4766 338.867 86.75C338.841 87.0234 338.815 87.3034 338.789 87.5898H346.914V89.0547H339.316C339.707 89.6406 340.215 90.1549 340.84 90.5977C341.478 91.0273 342.168 91.3919 342.91 91.6914C343.652 91.9779 344.408 92.1992 345.176 92.3555C345.944 92.5117 346.66 92.6029 347.324 92.6289C347.194 92.9023 347.064 93.1758 346.934 93.4492C346.803 93.7227 346.673 93.9961 346.543 94.2695C345.827 94.1914 345.059 94.0352 344.238 93.8008C343.418 93.5794 342.617 93.2799 341.836 92.9023C341.055 92.5247 340.345 92.0755 339.707 91.5547C339.082 91.0208 338.587 90.4154 338.223 89.7383C337.897 90.5456 337.441 91.2292 336.855 91.7891C336.27 92.349 335.599 92.8047 334.844 93.1562C334.102 93.5078 333.32 93.7812 332.5 93.9766C331.68 94.1849 330.879 94.3346 330.098 94.4258ZM354.16 94.5039C354.069 94.2435 353.971 93.9831 353.867 93.7227C353.763 93.4622 353.659 93.2083 353.555 92.9609C354.583 92.8047 355.482 92.5638 356.25 92.2383C357.018 91.9128 357.624 91.418 358.066 90.7539C358.509 90.0898 358.737 89.1849 358.75 88.0391H356.836V77.0039H366.113V88.0391H363.496V91.8867C363.496 92.0951 363.568 92.2513 363.711 92.3555C363.854 92.4466 364.017 92.5117 364.199 92.5508C364.395 92.5768 364.57 92.5898 364.727 92.5898C365.208 92.5898 365.527 92.4922 365.684 92.2969C365.84 92.1016 365.918 91.8477 365.918 91.5352C365.931 91.2096 365.951 90.8646 365.977 90.5C366.224 90.6302 366.471 90.7669 366.719 90.9102C366.979 91.0404 367.24 91.1576 367.5 91.2617C367.461 92.043 367.357 92.6419 367.188 93.0586C367.018 93.4753 366.725 93.7552 366.309 93.8984C365.905 94.0547 365.306 94.1328 364.512 94.1328C364.342 94.1328 364.102 94.1263 363.789 94.1133C363.477 94.1003 363.171 94.0612 362.871 93.9961C362.572 93.944 362.357 93.8529 362.227 93.7227C362.096 93.5794 362.012 93.3971 361.973 93.1758C361.934 92.9674 361.914 92.7656 361.914 92.5703V88.0391H360.293C360.202 89.4453 359.935 90.5781 359.492 91.4375C359.049 92.2839 358.392 92.9414 357.52 93.4102C356.66 93.8789 355.54 94.2435 354.16 94.5039ZM349.492 92.2578L349.121 90.5C349.616 90.3828 350.111 90.2721 350.605 90.168C351.113 90.0508 351.608 89.9271 352.09 89.7969V84.6211H349.688V83.0781H352.09V78.8789H349.375V77.3359H356.113V78.8789H353.672V83.0781H355.82V84.6211H353.672V89.3477C354.089 89.2305 354.499 89.1068 354.902 88.9766C355.306 88.8464 355.71 88.7161 356.113 88.5859V90.1289C355.02 90.5195 353.919 90.8971 352.812 91.2617C351.719 91.6263 350.612 91.9583 349.492 92.2578ZM358.379 80.2461H364.531V78.4102H358.379V80.2461ZM358.379 83.3906H364.531V81.5547H358.379V83.3906ZM358.379 86.6719H364.531V84.6992H358.379V86.6719ZM385.469 80.2852C384.896 80.2852 384.414 80.0898 384.023 79.6992C383.646 79.2956 383.457 78.8138 383.457 78.2539C383.457 77.681 383.659 77.2057 384.062 76.8281C384.466 76.4375 384.948 76.2422 385.508 76.2422C386.068 76.2422 386.536 76.444 386.914 76.8477C387.292 77.2383 387.48 77.707 387.48 78.2539C387.48 78.8138 387.285 79.2956 386.895 79.6992C386.517 80.0898 386.042 80.2852 385.469 80.2852ZM385.469 79.3086C386.159 79.3086 386.504 78.957 386.504 78.2539C386.504 77.5638 386.152 77.2188 385.449 77.2188C384.772 77.2188 384.434 77.5638 384.434 78.2539C384.434 78.957 384.779 79.3086 385.469 79.3086ZM373.047 94.1719L372.031 92.5117C374.036 92.056 375.827 91.3073 377.402 90.2656C378.991 89.224 380.293 87.9154 381.309 86.3398C382.324 84.7643 382.982 82.9414 383.281 80.8711H370.469V79.0352H383.145C383.314 79.5169 383.581 79.9076 383.945 80.207C384.31 80.4935 384.746 80.6562 385.254 80.6953C384.928 83.0391 384.245 85.1289 383.203 86.9648C382.161 88.8008 380.788 90.3307 379.082 91.5547C377.389 92.7786 375.378 93.651 373.047 94.1719ZM391.25 92.4922V78.625H405.41V92.4922H391.25ZM393.086 90.7148H403.574V80.4023H393.086V90.7148ZM423.516 79.3477V76.6328H424.824V79.3477H423.516ZM425.645 79.3477V76.6328H426.953V79.3477H425.645ZM416.523 80.5977C415.781 80.181 415.007 79.8164 414.199 79.5039C413.392 79.1914 412.578 78.9115 411.758 78.6641L412.676 77.1406C413.496 77.388 414.31 77.6615 415.117 77.9609C415.924 78.2474 416.706 78.599 417.461 79.0156L416.523 80.5977ZM412.207 93.2734L411.465 91.457C413.574 91.1706 415.508 90.6302 417.266 89.8359C419.036 89.0417 420.573 87.9544 421.875 86.5742C423.177 85.181 424.199 83.4557 424.941 81.3984L426.484 82.3945C425.742 84.5299 424.661 86.3464 423.242 87.8438C421.836 89.3411 420.189 90.5391 418.301 91.4375C416.413 92.3229 414.382 92.9349 412.207 93.2734ZM415.566 85.8711C414.772 85.5065 413.958 85.1875 413.125 84.9141C412.292 84.6406 411.452 84.3997 410.605 84.1914L411.348 82.5703C412.233 82.7396 413.105 82.9609 413.965 83.2344C414.837 83.5078 415.69 83.8138 416.523 84.1523L415.566 85.8711ZM431.875 92.7461V91.0273H437.344V84.2891H433.164V82.5703H443.457V84.2891H439.102V91.0273H444.727V92.7461H431.875ZM452.051 93.9961C451.921 93.6966 451.777 93.4102 451.621 93.1367C451.465 92.8633 451.302 92.5964 451.133 92.3359C454.414 91.8021 457.077 90.5846 459.121 88.6836C461.178 86.7695 462.624 84.2109 463.457 81.0078H457.422C456.758 82.1016 456.003 83.1432 455.156 84.1328C454.31 85.1094 453.34 85.9427 452.246 86.6328L451.074 85.2656C452.65 84.263 453.945 83.0521 454.961 81.6328C455.977 80.2005 456.732 78.5924 457.227 76.8086L459.023 77.2969C458.919 77.6224 458.809 77.9544 458.691 78.293C458.574 78.6315 458.444 78.9635 458.301 79.2891H465.684C465.397 81.8932 464.661 84.2109 463.477 86.2422C462.305 88.2734 460.749 89.9466 458.809 91.2617C456.868 92.5768 454.616 93.4883 452.051 93.9961ZM475.254 93.7617V77.082H477.09V82.1406C478.574 82.7266 480.013 83.4102 481.406 84.1914C482.812 84.9596 484.147 85.8255 485.41 86.7891L484.004 88.293C482.962 87.4206 481.862 86.6133 480.703 85.8711C479.557 85.1159 478.353 84.4844 477.09 83.9766V93.7617H475.254Z"
              fill="black"/>
        <path d="M247 3L288.569 69.75H205.431L247 3Z" fill="black"/>
        <path d="M247.5 13L277.378 64.75H217.622L247.5 13Z" fill="#BFFFA0"/>
        <g filter="url(#filter2_d_3_3)">
            <path d="M301.436 43.944V45.904H311.852V43.944H301.436ZM286.708 37.42V39.212H299.056V37.42H286.708ZM286.4 48.536V50.356H299.196V48.536H286.4ZM286.316 43.832V45.624H299.392V43.832H286.316ZM306.644 44.728V60.1H308.688V44.728H306.644ZM291.888 34.592V38.344H293.932V34.592H291.888ZM291.888 45.288V60.212H293.932V45.288H291.888ZM300.428 36.776V46.576C300.428 50.552 300.036 55.396 296.452 58.924C296.956 59.204 297.712 59.904 297.964 60.38C301.912 56.488 302.416 50.804 302.416 46.604V37.952C302.808 37.896 302.976 37.784 303.004 37.56L300.428 36.776ZM309.808 34.816C307.764 35.824 304.068 36.804 300.932 37.476C301.184 37.896 301.464 38.624 301.576 39.072C304.936 38.484 308.856 37.532 311.488 36.356L309.808 34.816ZM293.736 50.888L292.588 51.84C293.624 52.708 296.256 55.172 297.152 56.208L298.384 54.64C297.684 53.996 294.632 51.504 293.736 50.888ZM288.388 39.716C288.948 41.004 289.396 42.684 289.48 43.776L291.244 43.3C291.104 42.236 290.628 40.584 290.04 39.352L288.388 39.716ZM295.556 39.296C295.248 40.472 294.66 42.208 294.156 43.328L295.836 43.72C296.34 42.684 296.928 41.116 297.46 39.716L295.556 39.296ZM291.916 49.46C290.572 52.204 288.024 55.228 285.756 56.712C286.232 57.048 286.848 57.72 287.184 58.196C289.424 56.46 292 53.156 293.428 50.048L291.916 49.46ZM322.52 36.188H319.664C319.832 37 319.916 37.98 319.916 39.016C319.916 41.956 319.636 49.04 319.636 53.184C319.636 57.776 322.408 59.428 326.44 59.428C332.572 59.428 336.212 55.928 338.116 53.268L336.548 51.364C334.532 54.276 331.62 57.132 326.496 57.132C323.836 57.132 321.904 56.068 321.904 52.988C321.904 48.816 322.128 42.18 322.24 39.016C322.296 38.092 322.38 37.112 322.52 36.188ZM347.244 38.484L344.528 38.428C344.696 39.072 344.696 40.276 344.696 40.92C344.696 42.544 344.752 45.96 345.004 48.368C345.788 55.62 348.308 58.252 350.968 58.252C352.872 58.252 354.552 56.628 356.26 51.896L354.496 49.908C353.768 52.708 352.452 55.592 351.024 55.592C349.008 55.592 347.664 52.484 347.188 47.808C346.992 45.512 346.964 42.936 346.992 41.2C347.02 40.472 347.104 39.128 347.244 38.484ZM361.804 39.24L359.648 39.996C362.308 43.272 364.016 49.04 364.492 54.08L366.76 53.184C366.34 48.452 364.324 42.488 361.804 39.24ZM370.596 36.216V38.204H385.016V36.216H370.596ZM370.148 45.456V47.416H385.408V45.456H370.148ZM380.312 36.748V60.24H382.384V36.748H380.312ZM373.816 36.72V45.736C373.816 50.44 373.424 55.256 370.008 59.008C370.512 59.316 371.268 59.988 371.604 60.408C375.356 56.292 375.804 51 375.804 45.736V36.72H373.816ZM392.66 34.956C390.952 37.224 387.732 39.576 385.044 40.92C385.604 41.312 386.22 41.956 386.584 42.404C389.412 40.836 392.576 38.344 394.648 35.768L392.66 34.956ZM393.5 42.656C391.624 45.092 388.208 47.64 385.352 49.096C385.884 49.488 386.5 50.132 386.836 50.58C389.832 48.9 393.248 46.212 395.404 43.468L393.5 42.656ZM394.116 50.244C392.016 53.744 388.04 56.824 383.896 58.56C384.428 58.98 385.044 59.736 385.38 60.24C389.72 58.224 393.724 54.892 396.104 51.028L394.116 50.244ZM409.74 39.1L409.768 41.368C412.82 41.704 418.252 41.704 421.248 41.368V39.1C418.476 39.52 412.792 39.632 409.74 39.1ZM410.832 50.524L408.816 50.328C408.508 51.672 408.368 52.68 408.368 53.604C408.368 56.236 410.468 57.804 415.144 57.804C418.056 57.804 420.408 57.58 422.144 57.216L422.088 54.864C419.848 55.396 417.664 55.62 415.172 55.62C411.336 55.62 410.44 54.36 410.44 53.072C410.44 52.316 410.58 51.532 410.832 50.524ZM404.42 36.944L401.928 36.748C401.9 37.364 401.816 38.064 401.732 38.708C401.396 41.032 400.472 45.82 400.472 49.936C400.472 53.744 400.948 56.964 401.508 58.952L403.496 58.812C403.468 58.504 403.44 58.112 403.412 57.832C403.412 57.496 403.468 56.964 403.552 56.572C403.804 55.228 404.84 52.288 405.54 50.3L404.364 49.376C403.888 50.524 403.244 52.204 402.768 53.464C402.6 52.092 402.516 50.916 402.516 49.572C402.516 46.408 403.384 41.424 403.916 38.82C404.028 38.316 404.252 37.42 404.42 36.944ZM434.52 36.188H431.664C431.832 37 431.916 37.98 431.916 39.016C431.916 41.956 431.636 49.04 431.636 53.184C431.636 57.776 434.408 59.428 438.44 59.428C444.572 59.428 448.212 55.928 450.116 53.268L448.548 51.364C446.532 54.276 443.62 57.132 438.496 57.132C435.836 57.132 433.904 56.068 433.904 52.988C433.904 48.816 434.128 42.18 434.24 39.016C434.296 38.092 434.38 37.112 434.52 36.188ZM468.148 36.02H465.488C465.6 36.552 465.684 37.784 465.712 38.82C465.712 40.024 465.74 42.32 465.74 43.944C465.74 46.8 466.076 52.232 466.076 54.304C466.076 56.236 465.068 57.216 463.024 57.216C460.308 57.216 458.74 56.348 458.74 54.808C458.74 53.24 460.392 52.26 463.304 52.26C468.204 52.26 472.796 55.004 475.596 57.804L476.94 55.704C474.084 53.1 469.1 50.3 463.556 50.3C458.712 50.3 456.528 52.344 456.528 54.892C456.528 58.084 459.356 59.288 463.248 59.288C466.972 59.288 468.372 57.328 468.372 55.06C468.372 52.596 467.924 46.996 467.924 43.944C467.924 42.012 467.924 40.08 467.924 38.82C467.952 37.98 468.036 36.636 468.148 36.02ZM466.692 41.676V43.748C468.708 43.748 473.272 43.552 476.296 43.272L476.212 41.172C473.188 41.536 468.624 41.676 466.692 41.676ZM501.132 48.704C501.132 53.716 496.344 56.376 489.54 57.244L490.828 59.372C498.08 58.252 503.512 54.864 503.512 48.788C503.512 44.784 500.572 42.572 496.596 42.572C493.348 42.572 490.184 43.468 488.224 43.916C487.356 44.084 486.432 44.28 485.648 44.336L486.348 46.912C487.02 46.632 487.86 46.324 488.728 46.072C490.352 45.596 493.124 44.672 496.344 44.672C499.228 44.672 501.132 46.324 501.132 48.704ZM489.372 36.076L489.036 38.204C492.2 38.764 497.828 39.324 500.936 39.548L501.272 37.392C498.556 37.364 492.48 36.776 489.372 36.076ZM522.076 51.252H523.896L524.456 40.388L524.54 37.056H521.432L521.516 40.388L522.076 51.252ZM523 58.14C523.98 58.14 524.792 57.44 524.792 56.32C524.792 55.2 523.98 54.444 523 54.444C521.992 54.444 521.18 55.2 521.18 56.32C521.18 57.44 521.992 58.14 523 58.14Z"
                  fill="black"/>
        </g>
        <g filter="url(#filter3_d_3_3)">
            <line x1="805" y1="74" x2="975.019" y2="74" stroke="white" stroke-width="30" stroke-linecap="round"/>
        </g>
        <path d="M814.234 81.0469C813.589 81.0469 813.042 80.9219 812.594 80.6719C812.156 80.4115 811.797 80.0677 811.516 79.6406C811.245 79.2135 811.036 78.7344 810.891 78.2031C810.755 77.6719 810.661 77.1302 810.609 76.5781C810.557 76.0156 810.531 75.4844 810.531 74.9844C810.531 74.474 810.557 73.9375 810.609 73.375C810.661 72.8021 810.76 72.2448 810.906 71.7031C811.052 71.1615 811.26 70.6719 811.531 70.2344C811.812 69.7969 812.177 69.4479 812.625 69.1875C813.073 68.9271 813.63 68.7969 814.297 68.7969C814.849 68.7969 815.349 68.9427 815.797 69.2344C816.255 69.5156 816.615 69.8906 816.875 70.3594C817.146 70.8177 817.281 71.3229 817.281 71.875C817.281 72.3333 817.047 72.5625 816.578 72.5625C816.328 72.5625 816.146 72.4844 816.031 72.3281C815.917 72.1615 815.823 71.9635 815.75 71.7344C815.688 71.4948 815.609 71.2604 815.516 71.0312C815.422 70.8021 815.276 70.6094 815.078 70.4531C814.891 70.2865 814.604 70.2031 814.219 70.2031C813.802 70.2031 813.458 70.3229 813.188 70.5625C812.927 70.8021 812.719 71.1146 812.562 71.5C812.406 71.8854 812.292 72.3021 812.219 72.75C812.156 73.1875 812.115 73.6146 812.094 74.0312C812.073 74.4375 812.062 74.7812 812.062 75.0625C812.062 75.3438 812.073 75.6823 812.094 76.0781C812.115 76.4635 812.156 76.8646 812.219 77.2812C812.292 77.6875 812.406 78.0729 812.562 78.4375C812.719 78.7917 812.927 79.0833 813.188 79.3125C813.448 79.5312 813.781 79.6406 814.188 79.6406C814.552 79.6406 814.833 79.5521 815.031 79.375C815.24 79.1979 815.401 78.9792 815.516 78.7188C815.641 78.4479 815.75 78.1823 815.844 77.9219C815.938 77.6615 816.047 77.4427 816.172 77.2656C816.307 77.0885 816.5 77 816.75 77C817.229 77 817.469 77.2344 817.469 77.7031C817.469 77.9948 817.401 78.3125 817.266 78.6562C817.141 78.9896 817.005 79.2812 816.859 79.5312C816.578 80.0417 816.214 80.4219 815.766 80.6719C815.328 80.9219 814.818 81.0469 814.234 81.0469ZM821.188 81.0469C820.458 81.0469 819.839 80.849 819.328 80.4531C818.828 80.0573 818.578 79.474 818.578 78.7031C818.578 78.1302 818.693 77.6615 818.922 77.2969C819.151 76.9219 819.458 76.6302 819.844 76.4219C820.229 76.2135 820.651 76.0625 821.109 75.9688C821.578 75.8646 822.052 75.8021 822.531 75.7812C823.021 75.75 823.474 75.7292 823.891 75.7188C823.891 75.2812 823.854 74.9167 823.781 74.625C823.708 74.3333 823.552 74.1146 823.312 73.9688C823.073 73.8125 822.703 73.7344 822.203 73.7344C821.786 73.7344 821.469 73.8073 821.25 73.9531C821.031 74.099 820.854 74.2708 820.719 74.4688C820.594 74.6562 820.458 74.8229 820.312 74.9688C820.177 75.1146 819.979 75.1875 819.719 75.1875C819.51 75.1875 819.333 75.1406 819.188 75.0469C819.052 74.9427 818.984 74.776 818.984 74.5469C818.984 74.3698 819.026 74.2031 819.109 74.0469C819.193 73.8802 819.286 73.7292 819.391 73.5938C819.724 73.1667 820.13 72.875 820.609 72.7188C821.089 72.5521 821.589 72.4688 822.109 72.4688C822.724 72.4688 823.266 72.5625 823.734 72.75C824.214 72.9271 824.589 73.2188 824.859 73.625C825.141 74.0208 825.281 74.5521 825.281 75.2188V80.3438C825.281 80.8125 825.047 81.0469 824.578 81.0469C824.307 81.0469 824.125 80.9792 824.031 80.8438C823.938 80.7083 823.891 80.5417 823.891 80.3438C823.891 80.1458 823.891 79.9479 823.891 79.75C823.536 80.1354 823.13 80.4479 822.672 80.6875C822.224 80.9271 821.729 81.0469 821.188 81.0469ZM821.281 79.8438C821.615 79.8438 821.932 79.7865 822.234 79.6719C822.547 79.5469 822.828 79.3802 823.078 79.1719C823.224 79.0469 823.396 78.875 823.594 78.6562C823.792 78.4271 823.891 78.2031 823.891 77.9844V76.7812C823.63 76.7917 823.333 76.8073 823 76.8281C822.667 76.8385 822.323 76.875 821.969 76.9375C821.625 76.9896 821.302 77.0833 821 77.2188C820.698 77.3438 820.453 77.526 820.266 77.7656C820.089 77.9948 820 78.2917 820 78.6562C820 79.0729 820.109 79.375 820.328 79.5625C820.557 79.75 820.875 79.8438 821.281 79.8438ZM827.219 81.0469C826.979 81.0469 826.807 80.974 826.703 80.8281C826.609 80.6719 826.562 80.4844 826.562 80.2656V73.1094C826.562 72.6823 826.786 72.4688 827.234 72.4688C827.474 72.4688 827.635 72.5156 827.719 72.6094C827.812 72.6927 827.865 72.8125 827.875 72.9688C827.885 73.1146 827.891 73.2812 827.891 73.4688C828.057 73.2188 828.255 72.9896 828.484 72.7812C828.724 72.5729 829.005 72.4688 829.328 72.4688C829.661 72.4688 829.922 72.5677 830.109 72.7656C830.297 72.9531 830.432 73.1979 830.516 73.5C830.682 73.2292 830.885 72.9896 831.125 72.7812C831.365 72.5729 831.651 72.4688 831.984 72.4688C832.391 72.4688 832.698 72.5833 832.906 72.8125C833.115 73.0312 833.255 73.3073 833.328 73.6406C833.401 73.9635 833.438 74.2917 833.438 74.625V80.2656C833.438 80.4948 833.385 80.6823 833.281 80.8281C833.188 80.974 833.016 81.0469 832.766 81.0469C832.526 81.0469 832.354 80.974 832.25 80.8281C832.156 80.6719 832.109 80.4844 832.109 80.2656V74.7188C832.109 74.6146 832.099 74.474 832.078 74.2969C832.068 74.1198 832.031 73.9583 831.969 73.8125C831.906 73.6667 831.797 73.5938 831.641 73.5938C831.464 73.5938 831.302 73.6771 831.156 73.8438C831.01 74 830.891 74.1875 830.797 74.4062C830.714 74.625 830.672 74.8125 830.672 74.9688V80.2656C830.672 80.4948 830.62 80.6823 830.516 80.8281C830.422 80.974 830.25 81.0469 830 81.0469C829.76 81.0469 829.589 80.974 829.484 80.8281C829.391 80.6719 829.344 80.4844 829.344 80.2656V74.8281C829.344 74.7344 829.339 74.5885 829.328 74.3906C829.318 74.1927 829.281 74.0104 829.219 73.8438C829.156 73.6771 829.052 73.5938 828.906 73.5938C828.75 73.5938 828.594 73.6823 828.438 73.8594C828.281 74.0365 828.151 74.2396 828.047 74.4688C827.943 74.6875 827.891 74.8698 827.891 75.0156V80.2656C827.891 80.4948 827.839 80.6823 827.734 80.8281C827.641 80.974 827.469 81.0469 827.219 81.0469ZM835.438 82.9219C835.177 82.9219 834.995 82.8333 834.891 82.6562C834.786 82.4896 834.734 82.2865 834.734 82.0469V73.1875C834.734 72.7083 834.974 72.4688 835.453 72.4688C835.734 72.4688 835.922 72.5312 836.016 72.6562C836.109 72.7812 836.156 72.9427 836.156 73.1406C836.156 73.3281 836.156 73.526 836.156 73.7344C836.427 73.3385 836.745 73.0312 837.109 72.8125C837.484 72.5833 837.911 72.4688 838.391 72.4688C838.943 72.4688 839.411 72.5885 839.797 72.8281C840.182 73.0573 840.495 73.3698 840.734 73.7656C840.984 74.1615 841.161 74.599 841.266 75.0781C841.38 75.5469 841.438 76.0156 841.438 76.4844C841.438 76.974 841.385 77.4635 841.281 77.9531C841.188 78.4427 841.026 78.8958 840.797 79.3125C840.568 79.7188 840.255 80.0469 839.859 80.2969C839.474 80.5365 838.99 80.6562 838.406 80.6562C837.927 80.6562 837.5 80.5521 837.125 80.3438C836.75 80.125 836.427 79.8229 836.156 79.4375V82.0469C836.156 82.2865 836.104 82.4896 836 82.6562C835.896 82.8333 835.708 82.9219 835.438 82.9219ZM838.203 79.3906C838.589 79.3906 838.896 79.3021 839.125 79.125C839.365 78.9375 839.542 78.6979 839.656 78.4062C839.781 78.1146 839.865 77.8021 839.906 77.4688C839.948 77.1354 839.969 76.8177 839.969 76.5156C839.969 76.2031 839.948 75.8854 839.906 75.5625C839.865 75.2396 839.781 74.9427 839.656 74.6719C839.531 74.3906 839.349 74.1667 839.109 74C838.87 73.8229 838.557 73.7344 838.172 73.7344C837.828 73.7344 837.5 73.8385 837.188 74.0469C836.885 74.2448 836.635 74.5052 836.438 74.8281C836.25 75.151 836.156 75.4844 836.156 75.8281V77.3906C836.156 77.7448 836.255 78.0729 836.453 78.375C836.651 78.6771 836.906 78.9219 837.219 79.1094C837.531 79.2969 837.859 79.3906 838.203 79.3906ZM845.922 81.0469C845.661 81.0469 845.479 80.9635 845.375 80.7969C845.271 80.6302 845.219 80.4271 845.219 80.1875V73.9688H843.953C843.734 73.9688 843.547 73.9219 843.391 73.8281C843.245 73.7344 843.172 73.5677 843.172 73.3281C843.172 73.0885 843.25 72.9271 843.406 72.8438C843.562 72.75 843.745 72.7031 843.953 72.7031H845.219V70.7344C845.219 70.151 845.385 69.7188 845.719 69.4375C846.052 69.1562 846.5 69.0156 847.062 69.0156H848.062C848.281 69.0156 848.453 69.0677 848.578 69.1719C848.714 69.2656 848.781 69.4271 848.781 69.6562C848.781 69.9167 848.708 70.0885 848.562 70.1719C848.417 70.2448 848.24 70.2812 848.031 70.2812C847.823 70.2812 847.609 70.2865 847.391 70.2969C847.182 70.3073 847.005 70.3698 846.859 70.4844C846.714 70.5885 846.641 70.7969 846.641 71.1094V72.7031H848.078C848.286 72.7031 848.469 72.75 848.625 72.8438C848.781 72.9271 848.859 73.0885 848.859 73.3281C848.859 73.5677 848.781 73.7344 848.625 73.8281C848.479 73.9219 848.297 73.9688 848.078 73.9688H846.641V80.1875C846.641 80.4375 846.589 80.6458 846.484 80.8125C846.38 80.9688 846.193 81.0469 845.922 81.0469ZM854 70.8125C853.323 70.8125 852.984 70.474 852.984 69.7969C852.984 69.1198 853.328 68.7812 854.016 68.7812C854.286 68.7812 854.521 68.8854 854.719 69.0938C854.917 69.2917 855.016 69.526 855.016 69.7969C855.016 70.474 854.677 70.8125 854 70.8125ZM853.984 81.0469C853.714 81.0469 853.521 80.9635 853.406 80.7969C853.302 80.6302 853.25 80.4219 853.25 80.1719V73.4375C853.25 73.1875 853.302 72.9792 853.406 72.8125C853.521 72.6354 853.714 72.5469 853.984 72.5469C854.255 72.5469 854.443 72.6354 854.547 72.8125C854.661 72.9792 854.719 73.1875 854.719 73.4375V80.1719C854.719 80.4219 854.661 80.6302 854.547 80.7969C854.443 80.9635 854.255 81.0469 853.984 81.0469ZM862 81.0469C861.729 81.0469 861.536 80.9635 861.422 80.7969C861.318 80.6198 861.266 80.4062 861.266 80.1562V69.6875C861.266 69.4375 861.318 69.2292 861.422 69.0625C861.536 68.8854 861.729 68.7969 862 68.7969C862.271 68.7969 862.458 68.8854 862.562 69.0625C862.677 69.2292 862.734 69.4375 862.734 69.6875V80.1562C862.734 80.4062 862.677 80.6198 862.562 80.7969C862.458 80.9635 862.271 81.0469 862 81.0469ZM870 81.0469C869.729 81.0469 869.536 80.9635 869.422 80.7969C869.318 80.6198 869.266 80.4062 869.266 80.1562V69.6875C869.266 69.4375 869.318 69.2292 869.422 69.0625C869.536 68.8854 869.729 68.7969 870 68.7969C870.271 68.7969 870.458 68.8854 870.562 69.0625C870.677 69.2292 870.734 69.4375 870.734 69.6875V80.1562C870.734 80.4062 870.677 80.6198 870.562 80.7969C870.458 80.9635 870.271 81.0469 870 81.0469ZM885.344 81.7031C885.115 81.7031 884.849 81.6562 884.547 81.5625C884.255 81.4688 884 81.3854 883.781 81.3125C883.021 81.0312 882.339 80.6771 881.734 80.25C881.13 79.8229 880.651 79.2969 880.297 78.6719C879.953 78.0469 879.781 77.3021 879.781 76.4375C879.781 75.6354 879.964 74.8698 880.328 74.1406C880.703 73.4115 881.193 72.7604 881.797 72.1875C882.401 71.6146 883.052 71.1719 883.75 70.8594L876.047 71.1562C875.786 71.1667 875.568 71.125 875.391 71.0312C875.224 70.9271 875.141 70.7292 875.141 70.4375C875.141 70.1771 875.219 70 875.375 69.9062C875.531 69.8021 875.724 69.7448 875.953 69.7344L888.031 69.3281C888.448 69.3177 888.656 69.5312 888.656 69.9688C888.656 70.1667 888.594 70.3177 888.469 70.4219C888.344 70.526 888.182 70.6042 887.984 70.6562C887.797 70.6979 887.604 70.724 887.406 70.7344C887.219 70.7448 887.057 70.7604 886.922 70.7812C886.266 70.8542 885.604 71.0469 884.938 71.3594C884.281 71.6719 883.677 72.0729 883.125 72.5625C882.583 73.0521 882.146 73.6094 881.812 74.2344C881.479 74.8594 881.312 75.526 881.312 76.2344C881.312 76.8073 881.427 77.3073 881.656 77.7344C881.896 78.1615 882.208 78.5312 882.594 78.8438C882.99 79.1458 883.422 79.401 883.891 79.6094C884.37 79.8177 884.849 79.9844 885.328 80.1094C885.536 80.1615 885.729 80.2448 885.906 80.3594C886.083 80.4635 886.172 80.6406 886.172 80.8906C886.172 81.4323 885.896 81.7031 885.344 81.7031ZM886.359 75.2188C885.995 75.2188 885.812 75.0312 885.812 74.6562V73.1406C885.812 72.7552 885.995 72.5625 886.359 72.5625C886.724 72.5625 886.906 72.7552 886.906 73.1406V74.6562C886.906 75.0312 886.724 75.2188 886.359 75.2188ZM888.125 75.2188C887.76 75.2188 887.578 75.0312 887.578 74.6562V73.1406C887.578 72.7552 887.76 72.5625 888.125 72.5625C888.49 72.5625 888.672 72.7552 888.672 73.1406V74.6562C888.672 75.0312 888.49 75.2188 888.125 75.2188ZM891.281 74.3438C891.052 74.3438 890.885 74.2812 890.781 74.1562C890.688 74.0208 890.641 73.8438 890.641 73.625C890.641 73.3854 890.734 73.1979 890.922 73.0625C891.12 72.9167 891.307 72.7969 891.484 72.7031C892.255 72.3073 892.948 71.901 893.562 71.4844C894.188 71.0573 894.776 70.5885 895.328 70.0781C895.88 69.5573 896.427 68.9635 896.969 68.2969C897.094 68.151 897.245 67.9948 897.422 67.8281C897.609 67.651 897.807 67.5625 898.016 67.5625C898.193 67.5625 898.365 67.5938 898.531 67.6562C898.698 67.7188 898.781 67.8542 898.781 68.0625C898.781 68.1146 898.766 68.1719 898.734 68.2344C898.714 68.2865 898.693 68.3385 898.672 68.3906L898.719 68.4375C899.354 69.0938 899.964 69.6615 900.547 70.1406C901.13 70.6198 901.75 71.0469 902.406 71.4219C903.062 71.7865 903.812 72.1406 904.656 72.4844C904.854 72.5573 905.021 72.6562 905.156 72.7812C905.292 72.9062 905.359 73.0885 905.359 73.3281C905.359 73.5573 905.302 73.7448 905.188 73.8906C905.083 74.026 904.906 74.0938 904.656 74.0938C904.375 74.0938 904.042 74.0104 903.656 73.8438C903.281 73.6667 902.911 73.4635 902.547 73.2344C902.182 73.0052 901.885 72.8177 901.656 72.6719C900.969 72.2135 900.307 71.7188 899.672 71.1875C899.047 70.6458 898.458 70.0677 897.906 69.4531C897.208 70.276 896.443 71.0417 895.609 71.75C894.776 72.4479 893.891 73.0625 892.953 73.5938C892.839 73.6562 892.672 73.75 892.453 73.875C892.245 73.9896 892.031 74.099 891.812 74.2031C891.594 74.2969 891.417 74.3438 891.281 74.3438ZM894.75 74.0156C894.531 74.0156 894.344 73.9688 894.188 73.875C894.031 73.7812 893.953 73.6146 893.953 73.375C893.953 73.1354 894.031 72.974 894.188 72.8906C894.344 72.7969 894.531 72.75 894.75 72.75H901.141C901.359 72.75 901.542 72.7969 901.688 72.8906C901.844 72.9844 901.922 73.151 901.922 73.3906C901.922 73.6302 901.844 73.7969 901.688 73.8906C901.531 73.974 901.349 74.0156 901.141 74.0156H894.75ZM900 82.2812C899.771 82.2812 899.583 82.2292 899.438 82.125C899.302 82.0312 899.234 81.8646 899.234 81.625C899.234 81.5312 899.297 81.3385 899.422 81.0469C899.557 80.7656 899.719 80.4375 899.906 80.0625C900.094 79.6875 900.281 79.3125 900.469 78.9375C900.656 78.5625 900.812 78.2344 900.938 77.9531C901.073 77.6615 901.141 77.4635 901.141 77.3594C901.141 77.276 901.109 77.224 901.047 77.2031C900.995 77.1719 900.932 77.1562 900.859 77.1562H892.969C892.74 77.1562 892.552 77.1042 892.406 77C892.271 76.8854 892.203 76.7083 892.203 76.4688C892.203 76.2292 892.271 76.0573 892.406 75.9531C892.552 75.8385 892.74 75.7812 892.969 75.7812H901.516C901.724 75.7812 901.938 75.8021 902.156 75.8438C902.385 75.8854 902.578 75.9688 902.734 76.0938C902.891 76.2188 902.969 76.4115 902.969 76.6719C902.969 76.8073 902.911 77.0417 902.797 77.375C902.682 77.7083 902.531 78.0938 902.344 78.5312C902.167 78.9583 901.979 79.3906 901.781 79.8281C901.583 80.2552 901.396 80.6406 901.219 80.9844C901.052 81.3177 900.927 81.5573 900.844 81.7031C900.75 81.8594 900.635 81.9948 900.5 82.1094C900.365 82.224 900.198 82.2812 900 82.2812ZM911.078 82.0469C910.849 82.0469 910.656 81.9948 910.5 81.8906C910.344 81.7969 910.266 81.6198 910.266 81.3594C910.266 81.1094 910.365 80.9427 910.562 80.8594C910.76 80.776 910.958 80.724 911.156 80.7031C911.812 80.6302 912.417 80.5 912.969 80.3125C913.531 80.125 913.99 79.8229 914.344 79.4062C914.698 78.9792 914.891 78.3854 914.922 77.625C914.651 77.9792 914.339 78.2604 913.984 78.4688C913.63 78.6667 913.224 78.7656 912.766 78.7656C912.161 78.7656 911.641 78.6146 911.203 78.3125C910.776 78.0104 910.448 77.6146 910.219 77.125C909.99 76.625 909.875 76.0938 909.875 75.5312C909.875 74.9167 910 74.3542 910.25 73.8438C910.51 73.3333 910.875 72.9271 911.344 72.625C911.823 72.3125 912.38 72.1562 913.016 72.1562C913.422 72.1562 913.786 72.2552 914.109 72.4531C914.443 72.6406 914.74 72.8854 915 73.1875V71.0156H907.766C907.536 71.0156 907.339 70.9688 907.172 70.875C907.016 70.7812 906.938 70.6042 906.938 70.3438C906.938 70.0833 907.016 69.9062 907.172 69.8125C907.339 69.7188 907.536 69.6719 907.766 69.6719H915C915 69.5156 914.99 69.3281 914.969 69.1094C914.958 68.8906 914.964 68.6823 914.984 68.4844C915.005 68.276 915.068 68.1042 915.172 67.9688C915.276 67.8229 915.443 67.75 915.672 67.75C915.901 67.75 916.068 67.8229 916.172 67.9688C916.276 68.1042 916.339 68.276 916.359 68.4844C916.38 68.6823 916.38 68.8906 916.359 69.1094C916.349 69.3281 916.344 69.5156 916.344 69.6719H920.234C920.474 69.6719 920.667 69.7188 920.812 69.8125C920.969 69.9062 921.047 70.0833 921.047 70.3438C921.047 70.6042 920.969 70.7812 920.812 70.875C920.667 70.9688 920.474 71.0156 920.234 71.0156H916.344V76.5469C916.344 77.026 916.307 77.5625 916.234 78.1562C916.161 78.7396 916.016 79.2448 915.797 79.6719C915.599 80.0573 915.323 80.401 914.969 80.7031C914.615 80.9948 914.214 81.2396 913.766 81.4375C913.318 81.6458 912.859 81.7969 912.391 81.8906C911.932 81.9948 911.495 82.0469 911.078 82.0469ZM913.062 77.5156C913.74 77.5156 914.219 77.3229 914.5 76.9375C914.792 76.5521 914.938 76.0417 914.938 75.4062C914.938 74.7917 914.802 74.2917 914.531 73.9062C914.271 73.5104 913.807 73.3125 913.141 73.3125C912.516 73.3125 912.026 73.526 911.672 73.9531C911.328 74.3802 911.156 74.8906 911.156 75.4844C911.156 76.1198 911.307 76.6198 911.609 76.9844C911.911 77.3385 912.396 77.5156 913.062 77.5156ZM934.734 70.2969C934.37 70.2969 934.188 70.1042 934.188 69.7188V68.3438C934.188 67.9583 934.37 67.7656 934.734 67.7656C935.099 67.7656 935.281 67.9583 935.281 68.3438V69.7188C935.281 70.1042 935.099 70.2969 934.734 70.2969ZM936.516 70.2969C936.151 70.2969 935.969 70.1042 935.969 69.7188V68.3438C935.969 67.9583 936.151 67.7656 936.516 67.7656C936.88 67.7656 937.062 67.9583 937.062 68.3438V69.7188C937.062 70.1042 936.88 70.2969 936.516 70.2969ZM932.922 81.8125C932.755 81.8125 932.599 81.75 932.453 81.625C932.307 81.5104 932.177 81.3958 932.062 81.2812C931.26 80.4271 930.453 79.6615 929.641 78.9844C928.828 78.3073 927.927 77.6458 926.938 77C926.781 76.8958 926.568 76.7552 926.297 76.5781C926.036 76.3906 925.781 76.2031 925.531 76.0156C925.281 75.8177 925.099 75.6458 924.984 75.5C924.88 75.3542 924.797 75.2083 924.734 75.0625C924.672 74.9167 924.641 74.75 924.641 74.5625C924.641 74.2188 924.75 73.9115 924.969 73.6406C925.198 73.3594 925.443 73.1354 925.703 72.9688C926.068 72.7292 926.438 72.4896 926.812 72.25C927.188 72.0104 927.557 71.7708 927.922 71.5312C928.599 71.0833 929.255 70.625 929.891 70.1562C930.536 69.6875 931.177 69.1979 931.812 68.6875C931.938 68.5833 932.078 68.4844 932.234 68.3906C932.401 68.2865 932.568 68.2344 932.734 68.2344C932.974 68.2344 933.161 68.2917 933.297 68.4062C933.443 68.5104 933.516 68.6875 933.516 68.9375C933.516 69.1042 933.38 69.3229 933.109 69.5938C932.849 69.8542 932.505 70.1458 932.078 70.4688C931.651 70.7812 931.188 71.1042 930.688 71.4375C930.198 71.7604 929.714 72.0677 929.234 72.3594C928.766 72.6406 928.354 72.8854 928 73.0938C927.656 73.3021 927.417 73.4479 927.281 73.5312C927.115 73.6354 926.927 73.776 926.719 73.9531C926.51 74.1198 926.406 74.3229 926.406 74.5625C926.406 74.7812 926.516 74.9792 926.734 75.1562C926.953 75.3229 927.146 75.4583 927.312 75.5625C928.062 76.0208 928.792 76.5052 929.5 77.0156C930.219 77.5156 930.911 78.0521 931.578 78.625C931.682 78.7188 931.849 78.8646 932.078 79.0625C932.307 79.2604 932.547 79.4844 932.797 79.7344C933.057 79.974 933.276 80.2135 933.453 80.4531C933.63 80.6823 933.719 80.8698 933.719 81.0156C933.719 81.5469 933.453 81.8125 932.922 81.8125ZM939.5 82.1875C939 82.1875 938.75 81.9219 938.75 81.3906C938.75 81.1615 938.844 80.974 939.031 80.8281C939.094 80.7865 939.208 80.75 939.375 80.7188C939.542 80.6771 939.708 80.6458 939.875 80.625C940.052 80.5938 940.177 80.5729 940.25 80.5625C941.052 80.4375 941.839 80.25 942.609 80C943.391 79.75 944.13 79.4271 944.828 79.0312C944.661 78.8854 944.432 78.6719 944.141 78.3906C943.859 78.1094 943.578 77.8021 943.297 77.4688C943.016 77.125 942.776 76.7917 942.578 76.4688C942.38 76.1458 942.281 75.875 942.281 75.6562C942.281 75.4271 942.349 75.2708 942.484 75.1875C942.63 75.1042 942.802 75.0625 943 75.0625C943.177 75.0625 943.318 75.1094 943.422 75.2031C943.536 75.2969 943.63 75.4167 943.703 75.5625C943.87 75.8542 944.078 76.1771 944.328 76.5312C944.589 76.8854 944.865 77.2188 945.156 77.5312C945.458 77.8438 945.755 78.0885 946.047 78.2656C946.193 78.1615 946.391 78 946.641 77.7812C946.891 77.5521 947.156 77.3021 947.438 77.0312C947.729 76.75 948.005 76.4635 948.266 76.1719C948.526 75.8802 948.74 75.6094 948.906 75.3594C949.073 75.099 949.156 74.8906 949.156 74.7344C949.156 74.6302 949.12 74.5625 949.047 74.5312C948.974 74.5 948.896 74.4844 948.812 74.4844H941.25C941.021 74.4844 940.823 74.4375 940.656 74.3438C940.5 74.2396 940.422 74.0573 940.422 73.7969C940.422 73.5365 940.5 73.3594 940.656 73.2656C940.823 73.1615 941.021 73.1094 941.25 73.1094H945.188V70.9844H939.797C939.557 70.9844 939.354 70.9323 939.188 70.8281C939.031 70.724 938.953 70.5417 938.953 70.2812C938.953 70.0208 939.036 69.8438 939.203 69.75C939.37 69.6458 939.568 69.5938 939.797 69.5938H945.188V68.25C945.188 68.0104 945.25 67.8385 945.375 67.7344C945.51 67.6198 945.693 67.5625 945.922 67.5625C946.151 67.5625 946.328 67.6198 946.453 67.7344C946.589 67.8385 946.656 68.0104 946.656 68.25V69.5938H952.219C952.458 69.5938 952.661 69.6458 952.828 69.75C953.005 69.8438 953.094 70.026 953.094 70.2969C953.094 70.5573 953.005 70.7396 952.828 70.8438C952.661 70.9375 952.458 70.9844 952.219 70.9844H946.656V73.1094H949.719C949.927 73.1094 950.135 73.1354 950.344 73.1875C950.562 73.2292 950.74 73.3177 950.875 73.4531C951.021 73.5781 951.094 73.7708 951.094 74.0312C951.094 74.3333 951 74.6719 950.812 75.0469C950.625 75.4115 950.38 75.7917 950.078 76.1875C949.786 76.5729 949.464 76.9479 949.109 77.3125C948.766 77.6771 948.432 78.0104 948.109 78.3125C947.797 78.6146 947.526 78.8594 947.297 79.0469C947.901 79.3385 948.474 79.5781 949.016 79.7656C949.557 79.9531 950.109 80.1094 950.672 80.2344C951.245 80.349 951.854 80.4583 952.5 80.5625C952.729 80.5938 952.911 80.6667 953.047 80.7812C953.193 80.8854 953.266 81.0625 953.266 81.3125C953.266 81.8542 952.99 82.125 952.438 82.125C951.99 82.125 951.479 82.0573 950.906 81.9219C950.333 81.7865 949.745 81.6042 949.141 81.375C948.536 81.1562 947.964 80.9219 947.422 80.6719C946.88 80.4115 946.422 80.1667 946.047 79.9375C945.661 80.1771 945.188 80.4271 944.625 80.6875C944.073 80.9479 943.484 81.1927 942.859 81.4219C942.245 81.651 941.641 81.8333 941.047 81.9688C940.464 82.1146 939.948 82.1875 939.5 82.1875ZM955.719 82.1562C955.281 82.1562 955.062 81.9323 955.062 81.4844C955.062 81.2448 955.109 81.0781 955.203 80.9844C955.307 80.8906 955.438 80.8385 955.594 80.8281C955.75 80.8177 955.906 80.8125 956.062 80.8125C956.271 80.8125 956.453 80.7865 956.609 80.7344C956.776 80.6719 956.859 80.4948 956.859 80.2031V76.8281C956.828 76.8385 956.734 76.8646 956.578 76.9062C956.422 76.9479 956.245 76.9948 956.047 77.0469C955.849 77.0885 955.672 77.1302 955.516 77.1719C955.37 77.2031 955.297 77.2188 955.297 77.2188C954.859 77.2188 954.641 76.9948 954.641 76.5469C954.641 76.3073 954.729 76.1406 954.906 76.0469C955.094 75.9531 955.281 75.8854 955.469 75.8438C955.708 75.7917 955.943 75.7396 956.172 75.6875C956.401 75.6354 956.63 75.5729 956.859 75.5V71.9062H955.422C955.214 71.9062 955.042 71.8594 954.906 71.7656C954.771 71.6719 954.703 71.5104 954.703 71.2812C954.703 71.0417 954.771 70.8802 954.906 70.7969C955.042 70.7031 955.214 70.6562 955.422 70.6562H956.859V68.2188C956.859 67.7812 957.068 67.5625 957.484 67.5625C957.911 67.5625 958.125 67.7812 958.125 68.2188V70.6562C958.312 70.6562 958.526 70.651 958.766 70.6406C959.005 70.6302 959.214 70.6667 959.391 70.75C959.568 70.8333 959.656 71.0156 959.656 71.2969C959.656 71.5677 959.562 71.7448 959.375 71.8281C959.198 71.901 958.99 71.9323 958.75 71.9219C958.51 71.9115 958.302 71.9062 958.125 71.9062V75.1562C958.188 75.1354 958.307 75.099 958.484 75.0469C958.672 74.9844 958.802 74.9531 958.875 74.9531C959.292 74.9531 959.5 75.1562 959.5 75.5625C959.5 75.7292 959.411 75.875 959.234 76C959.057 76.1146 958.859 76.2083 958.641 76.2812C958.422 76.3542 958.25 76.4115 958.125 76.4531V80.5625C958.125 81.0312 958.01 81.4115 957.781 81.7031C957.552 82.0052 957.182 82.1562 956.672 82.1562H955.719ZM960.203 69.5625C960.005 69.5625 959.833 69.526 959.688 69.4531C959.542 69.3698 959.469 69.2135 959.469 68.9844C959.469 68.8073 959.526 68.6823 959.641 68.6094C959.766 68.526 959.906 68.474 960.062 68.4531C960.229 68.4219 960.375 68.4062 960.5 68.4062C961.583 68.3542 962.682 68.3125 963.797 68.2812C964.922 68.2396 966.021 68.1042 967.094 67.875C967.229 67.8438 967.37 67.8073 967.516 67.7656C967.661 67.724 967.802 67.7031 967.938 67.7031C968.156 67.7031 968.339 67.7552 968.484 67.8594C968.63 67.9531 968.703 68.1198 968.703 68.3594C968.703 68.5365 968.609 68.6771 968.422 68.7812C968.234 68.8854 968.005 68.9635 967.734 69.0156C967.474 69.0573 967.219 69.0885 966.969 69.1094C966.729 69.1302 966.552 69.1458 966.438 69.1562C965.438 69.2604 964.396 69.3542 963.312 69.4375C962.24 69.5208 961.203 69.5625 960.203 69.5625ZM959.891 82.1875C959.484 82.1875 959.281 81.9844 959.281 81.5781C959.281 81.349 959.365 81.1927 959.531 81.1094C959.708 81.026 959.891 80.974 960.078 80.9531C960.672 80.8698 961.245 80.7396 961.797 80.5625C962.359 80.3854 962.911 80.1771 963.453 79.9375C963.141 79.6146 962.849 79.2812 962.578 78.9375C962.307 78.5938 962.099 78.2083 961.953 77.7812C961.849 77.9167 961.688 78.1042 961.469 78.3438C961.25 78.5729 961.005 78.8073 960.734 79.0469C960.474 79.2865 960.214 79.4896 959.953 79.6562C959.703 79.8125 959.49 79.8906 959.312 79.8906C959.115 79.8906 958.969 79.8333 958.875 79.7188C958.781 79.6042 958.734 79.4479 958.734 79.25C958.734 79.0938 958.797 78.9583 958.922 78.8438C959.047 78.7292 959.167 78.6354 959.281 78.5625C959.896 78.1562 960.427 77.7135 960.875 77.2344C961.323 76.7448 961.708 76.1667 962.031 75.5H960.344C960.146 75.5 959.979 75.4635 959.844 75.3906C959.708 75.3073 959.641 75.1562 959.641 74.9375C959.641 74.7188 959.708 74.5729 959.844 74.5C959.979 74.4167 960.146 74.375 960.344 74.375H962.469L962.766 73.2969H960.703C960.505 73.2969 960.344 73.2552 960.219 73.1719C960.094 73.0885 960.031 72.9427 960.031 72.7344C960.031 72.526 960.094 72.3854 960.219 72.3125C960.354 72.2292 960.516 72.1875 960.703 72.1875H965.688C966 71.6146 966.271 71.026 966.5 70.4219C966.542 70.3177 966.594 70.1979 966.656 70.0625C966.729 69.9167 966.812 69.7917 966.906 69.6875C967.01 69.5729 967.13 69.5156 967.266 69.5156C967.443 69.5156 967.594 69.5521 967.719 69.625C967.854 69.6979 967.922 69.8385 967.922 70.0469C967.922 70.2135 967.849 70.4427 967.703 70.7344C967.557 71.0156 967.396 71.2917 967.219 71.5625C967.042 71.8333 966.906 72.0417 966.812 72.1875H968.062C968.25 72.1875 968.406 72.2292 968.531 72.3125C968.656 72.3958 968.719 72.5417 968.719 72.75C968.719 72.9479 968.656 73.0885 968.531 73.1719C968.406 73.2552 968.25 73.2969 968.062 73.2969H963.969L963.672 74.375H968.5C968.698 74.375 968.865 74.4167 969 74.5C969.135 74.5729 969.203 74.7188 969.203 74.9375C969.203 75.1562 969.135 75.3073 969 75.3906C968.865 75.4635 968.698 75.5 968.5 75.5H963.266L962.781 76.5H967.047C967.286 76.5 967.505 76.5469 967.703 76.6406C967.911 76.7344 968.016 76.9219 968.016 77.2031C968.016 77.4219 967.922 77.6667 967.734 77.9375C967.547 78.2083 967.312 78.4792 967.031 78.75C966.76 79.0104 966.49 79.25 966.219 79.4688C965.948 79.6875 965.734 79.8594 965.578 79.9844C966.026 80.1823 966.484 80.3385 966.953 80.4531C967.432 80.5573 967.911 80.6458 968.391 80.7188C968.599 80.75 968.812 80.8073 969.031 80.8906C969.25 80.974 969.359 81.1458 969.359 81.4062C969.359 81.8646 969.135 82.0938 968.688 82.0938C968.396 82.0938 968.057 82.0521 967.672 81.9688C967.297 81.8854 966.906 81.776 966.5 81.6406C966.094 81.5052 965.714 81.3542 965.359 81.1875C965.005 81.0312 964.703 80.875 964.453 80.7188C964.172 80.875 963.839 81.0365 963.453 81.2031C963.068 81.3698 962.656 81.526 962.219 81.6719C961.792 81.8281 961.375 81.9531 960.969 82.0469C960.562 82.1406 960.203 82.1875 959.891 82.1875ZM964.297 71.875C964.172 71.875 964.047 71.8073 963.922 71.6719C963.807 71.526 963.698 71.3594 963.594 71.1719C963.5 70.974 963.422 70.7865 963.359 70.6094C963.307 70.4323 963.281 70.3125 963.281 70.25C963.281 70.0625 963.339 69.9375 963.453 69.875C963.578 69.8125 963.724 69.7812 963.891 69.7812C964.026 69.7812 964.135 69.8281 964.219 69.9219C964.312 70.0156 964.38 70.1198 964.422 70.2344C964.443 70.276 964.49 70.3802 964.562 70.5469C964.635 70.7135 964.703 70.8802 964.766 71.0469C964.839 71.2031 964.875 71.3021 964.875 71.3438C964.875 71.6979 964.682 71.875 964.297 71.875ZM961.578 71.9688C961.474 71.9688 961.365 71.901 961.25 71.7656C961.135 71.6198 961.026 71.4479 960.922 71.25C960.818 71.0521 960.734 70.8646 960.672 70.6875C960.609 70.5104 960.578 70.3802 960.578 70.2969C960.578 70.1198 960.635 70 960.75 69.9375C960.865 69.875 961 69.8438 961.156 69.8438C961.271 69.8438 961.385 69.9062 961.5 70.0312C961.615 70.1562 961.724 70.3125 961.828 70.5C961.932 70.6771 962.016 70.8542 962.078 71.0312C962.141 71.1979 962.172 71.3281 962.172 71.4219C962.172 71.6094 962.115 71.75 962 71.8438C961.896 71.9271 961.755 71.9688 961.578 71.9688ZM964.516 79.3594C964.599 79.3073 964.734 79.2083 964.922 79.0625C965.109 78.9167 965.307 78.7552 965.516 78.5781C965.724 78.401 965.901 78.2292 966.047 78.0625C966.203 77.8958 966.281 77.7708 966.281 77.6875C966.281 77.5938 966.219 77.5469 966.094 77.5469H963.016C963.193 77.9323 963.401 78.2604 963.641 78.5312C963.88 78.7917 964.161 79.0573 964.484 79.3281L964.516 79.3594ZM978 78.25C977.562 78.25 977.333 78.0104 977.312 77.5312L976.969 69.2812C976.958 68.9479 977.047 68.6979 977.234 68.5312C977.422 68.3646 977.677 68.2812 978 68.2812C978.677 68.2812 979.016 68.6198 979.016 69.2969V69.5938L978.672 77.5312C978.661 77.75 978.604 77.9271 978.5 78.0625C978.406 78.1875 978.24 78.25 978 78.25ZM978 81.5625C977.688 81.5625 977.422 81.4479 977.203 81.2188C976.984 80.9896 976.875 80.724 976.875 80.4219C976.875 80.1094 976.99 79.8438 977.219 79.625C977.448 79.4062 977.719 79.2969 978.031 79.2969C978.333 79.2969 978.594 79.4115 978.812 79.6406C979.031 79.8594 979.141 80.1198 979.141 80.4219C979.141 80.7344 979.026 81 978.797 81.2188C978.578 81.4479 978.312 81.5625 978 81.5625Z"
              fill="#D12222"/>
        <path d="M801.734 80.3594V78.9062L806.688 74.9219L801.734 70.9219V69.4844L808.484 74.9219L801.734 80.3594Z"
              fill="#D80000"/>
    </g>
    <defs>
        <filter id="filter0_d_3_3" x="541.963" y="3.735" width="456.768" height="33.6575" filterUnits="userSpaceOnUse"
                color-interpolation-filters="sRGB">
            <feFlood flood-opacity="0" result="BackgroundImageFix"/>
            <feColorMatrix in="SourceAlpha" type="matrix" values="0 0 0 0 0 0 0 0 0 0 0 0 0 0 0 0 0 0 127 0"
                           result="hardAlpha"/>
            <feOffset dy="4"/>
            <feGaussianBlur stdDeviation="2"/>
            <feComposite in2="hardAlpha" operator="out"/>
            <feColorMatrix type="matrix" values="0 0 0 0 0 0 0 0 0 0 0 0 0 0 0 0 0 0 0.25 0"/>
            <feBlend mode="normal" in2="BackgroundImageFix" result="effect1_dropShadow_3_3"/>
            <feBlend mode="normal" in="SourceGraphic" in2="effect1_dropShadow_3_3" result="shape"/>
        </filter>
        <filter id="filter1_d_3_3" x="9.952" y="34.424" width="198.868" height="33.928" filterUnits="userSpaceOnUse"
                color-interpolation-filters="sRGB">
            <feFlood flood-opacity="0" result="BackgroundImageFix"/>
            <feColorMatrix in="SourceAlpha" type="matrix" values="0 0 0 0 0 0 0 0 0 0 0 0 0 0 0 0 0 0 127 0"
                           result="hardAlpha"/>
            <feOffset dy="4"/>
            <feGaussianBlur stdDeviation="2"/>
            <feComposite in2="hardAlpha" operator="out"/>
            <feColorMatrix type="matrix" values="0 0 0 0 0 0 0 0 0 0 0 0 0 0 0 0 0 0 0.25 0"/>
            <feBlend mode="normal" in2="BackgroundImageFix" result="effect1_dropShadow_3_3"/>
            <feBlend mode="normal" in="SourceGraphic" in2="effect1_dropShadow_3_3" result="shape"/>
        </filter>
        <filter id="filter2_d_3_3" x="281.756" y="34.592" width="247.036" height="33.816" filterUnits="userSpaceOnUse"
                color-interpolation-filters="sRGB">
            <feFlood flood-opacity="0" result="BackgroundImageFix"/>
            <feColorMatrix in="SourceAlpha" type="matrix" values="0 0 0 0 0 0 0 0 0 0 0 0 0 0 0 0 0 0 127 0"
                           result="hardAlpha"/>
            <feOffset dy="4"/>
            <feGaussianBlur stdDeviation="2"/>
            <feComposite in2="hardAlpha" operator="out"/>
            <feColorMatrix type="matrix" values="0 0 0 0 0 0 0 0 0 0 0 0 0 0 0 0 0 0 0.25 0"/>
            <feBlend mode="normal" in2="BackgroundImageFix" result="effect1_dropShadow_3_3"/>
            <feBlend mode="normal" in="SourceGraphic" in2="effect1_dropShadow_3_3" result="shape"/>
        </filter>
        <filter id="filter3_d_3_3" x="786" y="59" width="208.019" height="38" filterUnits="userSpaceOnUse"
                color-interpolation-filters="sRGB">
            <feFlood flood-opacity="0" result="BackgroundImageFix"/>
            <feColorMatrix in="SourceAlpha" type="matrix" values="0 0 0 0 0 0 0 0 0 0 0 0 0 0 0 0 0 0 127 0"
                           result="hardAlpha"/>
            <feOffset dy="4"/>
            <feGaussianBlur stdDeviation="2"/>
            <feComposite in2="hardAlpha" operator="out"/>
            <feColorMatrix type="matrix" values="0 0 0 0 0 0 0 0 0 0 0 0 0 0 0 0 0 0 0.25 0"/>
            <feBlend mode="normal" in2="BackgroundImageFix" result="effect1_dropShadow_3_3"/>
            <feBlend mode="normal" in="SourceGraphic" in2="effect1_dropShadow_3_3" result="shape"/>
        </filter>
        <clipPath id="clip0_3_3">
            <rect width="1000" height="100" fill="white"/>
        </clipPath>
    </defs>
</svg>
