<svg width="1000" height="100" viewBox="0 0 1000 100" fill="none" xmlns="http://www.w3.org/2000/svg">
    <g clip-path="url(#clip0_1_2)">
        <rect width="1000" height="100" fill="#212121"/>
        <path d="M60.4429 37L112.964 58.4769L48.9882 93.5223L46.6772 70.6636L60.4429 37Z"
              fill="url(#paint0_linear_1_2)"/>
        <path d="M128 44.5L82.4102 91.4911L81.2054 20.4816L100.719 6.00002L128 44.5Z" fill="url(#paint1_linear_1_2)"/>
        <path d="M66.8807 6L98.3727 61.5833L75.0797 71.9604L38 43.0797L66.8807 6Z" fill="url(#paint2_linear_1_2)"/>
        <path d="M98.2124 55.5091L31.5981 59.8392L64.655 44.3328L78.1631 13L98.2124 55.5091Z"
              fill="url(#paint3_linear_1_2)"/>
        <path d="M74.6025 42L129.65 79.7621L86 72.5L76.0953 91L74.6025 42Z" fill="url(#paint4_linear_1_2)"/>
        <rect x="55" y="21" width="52" height="52" fill="#232323"/>
        <circle cx="70.0001" cy="48" r="4" fill="#55ABC6"/>
        <circle cx="77.0001" cy="48" r="4" fill="#55ABC6"/>
        <circle cx="84.0001" cy="48" r="4" fill="#55ABC6"/>
        <circle cx="91.0001" cy="48" r="4" fill="#55ABC6"/>
        <circle cx="70.0001" cy="48" r="4" fill="#55ABC6"/>
        <path d="M80.0026 62.1948L66.8291 48.0965L92.8055 47.759L80.0026 62.1948Z" fill="#55ABC6"/>
        <rect x="92.0374" y="47.6603" width="4.82278" height="21.2659" transform="rotate(45 92.0374 47.6603)"
              fill="#D9D9D9"/>
        <rect x="60.6976" y="46.4102" width="4.82278" height="27.6934" transform="rotate(-45 60.6976 46.4102)"
              fill="#D9D9D9"/>
        <rect x="74.3387" y="26.3589" width="4.82278" height="23.8229" transform="rotate(45 74.3387 26.3589)"
              fill="#D9D9D9"/>
        <line x1="96.5001" y1="48.5" x2="96.5001" y2="62.5" stroke="#55ABC6" stroke-width="5" stroke-linecap="round"/>
        <line x1="99.5001" y1="50.5" x2="99.5" y2="65.5" stroke="#55ABC6" stroke-width="5" stroke-linecap="round"/>
        <line x1="102.5" y1="52.5" x2="102.5" y2="68.5" stroke="#55ABC6" stroke-width="5" stroke-linecap="round"/>
        <g filter="url(#filter0_d_1_2)">
            <path d="M154.752 5.584C154.584 8.776 154.584 20.32 144.792 25.312C145.344 25.72 145.944 26.272 146.256 26.728C156.192 21.328 156.552 9.352 156.744 5.584H154.752ZM156.672 6.064L154.944 6.232C155.112 8.44 155.784 21.856 165.96 26.728C166.248 26.224 166.8 25.624 167.328 25.216C157.44 20.68 156.744 7.936 156.672 6.064ZM176.328 19.552V20.944H183.6V19.552H176.328ZM176.256 15.928V17.344H182.736V23.296H176.256V24.688H184.44V15.928H176.256ZM175.464 15.928V25.912H177.12V15.928H175.464ZM171.048 9.28V10.6H177.72V9.28H171.048ZM182.112 9.28V10.6H188.904V9.28H182.112ZM188.16 5.872V24.544C188.16 24.952 188.016 25.096 187.584 25.096C187.152 25.12 185.688 25.144 184.224 25.072C184.488 25.576 184.776 26.416 184.848 26.92C186.864 26.92 188.16 26.896 188.928 26.608C189.696 26.296 189.96 25.696 189.96 24.544V5.872H188.16ZM171.192 5.872V7.264H177.168V12.736H171.192V14.128H178.872V5.872H171.192ZM189.048 5.872H181.032V14.152H189.048V12.784H182.76V7.264H189.048V5.872ZM170.16 5.872V26.944H171.936V5.872H170.16ZM194.496 7.552V9.424H213.6V7.552H194.496ZM193.224 23.296V25.096H214.8V23.296H193.224ZM202.92 8.488V24.04H204.936V8.488H202.92ZM221.472 12.952V14.536H233.352V12.952H221.472ZM217.44 18.424V20.104H238.656V18.424H217.44ZM227.088 16.672V24.736C227.088 25.096 226.968 25.216 226.488 25.24C226.008 25.264 224.376 25.264 222.528 25.216C222.816 25.696 223.176 26.44 223.296 26.944C225.48 26.944 226.872 26.92 227.736 26.656C228.648 26.392 228.936 25.864 228.936 24.784V16.672H227.088ZM232.8 12.952V13.312C231.672 14.536 229.368 16.12 227.352 16.984C227.664 17.248 228.144 17.728 228.36 18.04C230.64 17.056 233.16 15.4 234.792 13.744L233.64 12.856L233.256 12.952H232.8ZM217.92 8.848V14.2H219.624V10.48H236.472V14.2H238.248V8.848H217.92ZM235.08 5.008C234.408 6.28 233.184 8.056 232.224 9.184L233.64 9.784C234.648 8.728 235.944 7.12 236.952 5.632L235.08 5.008ZM219.552 5.848C220.44 6.88 221.4 8.32 221.784 9.232L223.392 8.464C222.984 7.504 222 6.136 221.064 5.128L219.552 5.848ZM225.72 5.32C226.512 6.496 227.304 8.08 227.592 9.088L229.248 8.44C228.96 7.432 228.096 5.872 227.28 4.744L225.72 5.32ZM250.92 8.8L250.944 10.744C253.56 11.032 258.216 11.032 260.784 10.744V8.8C258.408 9.16 253.536 9.256 250.92 8.8ZM251.856 18.592L250.128 18.424C249.864 19.576 249.744 20.44 249.744 21.232C249.744 23.488 251.544 24.832 255.552 24.832C258.048 24.832 260.064 24.64 261.552 24.328L261.504 22.312C259.584 22.768 257.712 22.96 255.576 22.96C252.288 22.96 251.52 21.88 251.52 20.776C251.52 20.128 251.64 19.456 251.856 18.592ZM246.36 6.952L244.224 6.784C244.2 7.312 244.128 7.912 244.056 8.464C243.768 10.456 242.976 14.56 242.976 18.088C242.976 21.352 243.384 24.112 243.864 25.816L245.568 25.696C245.544 25.432 245.52 25.096 245.496 24.856C245.496 24.568 245.544 24.112 245.616 23.776C245.832 22.624 246.72 20.104 247.32 18.4L246.312 17.608C245.904 18.592 245.352 20.032 244.944 21.112C244.8 19.936 244.728 18.928 244.728 17.776C244.728 15.064 245.472 10.792 245.928 8.56C246.024 8.128 246.216 7.36 246.36 6.952ZM266.208 7.168V8.704H285.864V7.168H266.208ZM266.976 24.76V26.272H285.144V24.76H266.976ZM270.936 10.288V11.656H281.04V10.288H270.936ZM270.936 13.312V14.68H281.04V13.312H270.936ZM265.08 16.408V17.92H286.896V16.408H265.08ZM270.12 20.704V22.192H281.904V20.704H270.12ZM269.856 4.864V17.248H271.656V4.864H269.856ZM280.416 4.864V17.248H282.216V4.864H280.416ZM275.016 18.688V25.6H276.864V18.688H275.016ZM271.128 16.816C269.832 18.928 267.264 20.992 264.84 21.952C265.248 22.288 265.752 22.912 266.016 23.32C268.536 22.144 271.176 19.864 272.64 17.392L271.128 16.816ZM280.944 16.816L279.528 17.368C280.92 19.72 283.464 21.952 286.008 23.032C286.272 22.6 286.8 21.976 287.208 21.64C284.712 20.752 282.216 18.856 280.944 16.816ZM289.392 12.904L290.28 15.016C292.2 14.248 298.296 11.608 302.256 11.608C305.496 11.608 307.344 13.6 307.344 16.12C307.344 21.04 301.728 22.936 295.464 23.104L296.304 25.096C303.72 24.688 309.432 21.904 309.432 16.144C309.432 12.136 306.288 9.832 302.304 9.832C298.8 9.832 294.096 11.56 292.056 12.208C291.144 12.472 290.28 12.736 289.392 12.904ZM306.144 6.184L304.872 6.736C305.52 7.648 306.336 9.088 306.816 10.072L308.112 9.496C307.632 8.512 306.744 7.048 306.144 6.184ZM308.784 5.224L307.512 5.776C308.208 6.664 309 8.032 309.528 9.088L310.8 8.512C310.368 7.6 309.432 6.112 308.784 5.224ZM317.352 8.272L315.024 8.224C315.168 8.776 315.168 9.808 315.168 10.36C315.168 11.752 315.216 14.68 315.432 16.744C316.104 22.96 318.264 25.216 320.544 25.216C322.176 25.216 323.616 23.824 325.08 19.768L323.568 18.064C322.944 20.464 321.816 22.936 320.592 22.936C318.864 22.936 317.712 20.272 317.304 16.264C317.136 14.296 317.112 12.088 317.136 10.6C317.16 9.976 317.232 8.824 317.352 8.272ZM329.832 8.92L327.984 9.568C330.264 12.376 331.728 17.32 332.136 21.64L334.08 20.872C333.72 16.816 331.992 11.704 329.832 8.92ZM346.608 6.136L344.328 5.944C344.376 6.448 344.328 7.264 344.232 7.936C344.064 9.184 343.44 12.208 342.864 14.416C341.952 17.8 340.272 22.672 338.832 25.168L340.92 25.864C342.192 23.248 343.8 18.28 344.664 14.872C345.336 12.472 345.84 9.76 346.2 8.032C346.296 7.576 346.464 6.664 346.608 6.136ZM341.304 10.144C340.416 10.144 339.552 10.096 338.424 9.952L338.472 11.824C339.36 11.896 340.2 11.92 341.256 11.92C343.848 11.92 347.472 11.512 350.448 10.84V8.968C347.472 9.712 343.944 10.144 341.304 10.144ZM348.888 13.432V15.232C350.352 15.064 351.84 14.968 353.328 14.968C354.744 14.968 356.136 15.112 357.384 15.256L357.432 13.432C356.136 13.288 354.672 13.24 353.28 13.24C351.744 13.24 350.136 13.312 348.888 13.432ZM349.368 19.264L347.592 19.096C347.376 20.104 347.232 21.016 347.232 21.928C347.232 24.304 349.296 25.456 353.064 25.456C354.816 25.456 356.424 25.312 357.72 25.12L357.792 23.2C356.304 23.488 354.672 23.656 353.088 23.656C349.68 23.656 349.032 22.552 349.032 21.424C349.032 20.8 349.176 20.056 349.368 19.264ZM154.752 40.584C154.584 43.776 154.584 55.32 144.792 60.312C145.344 60.72 145.944 61.272 146.256 61.728C156.192 56.328 156.552 44.352 156.744 40.584H154.752ZM156.672 41.064L154.944 41.232C155.112 43.44 155.784 56.856 165.96 61.728C166.248 61.224 166.8 60.624 167.328 60.216C157.44 55.68 156.744 42.936 156.672 41.064ZM179.04 41.04L177.072 40.872C177 42 176.664 43.44 176.136 44.76C175.32 46.8 173.712 49.584 170.256 52.896L171.912 54.12C172.704 53.136 173.376 52.272 174.072 51.6C175.176 50.616 176.688 49.848 178.224 49.848C179.472 49.848 180.432 50.496 180.456 51.888C180.48 53.136 180.456 55.608 180.36 56.88H182.208C182.184 55.392 182.136 52.632 182.136 51.384C182.136 49.44 180.696 48.336 178.848 48.336C177.792 48.336 176.424 48.672 175.488 49.224C176.448 47.976 177.336 46.368 177.936 44.904C178.56 43.296 178.824 41.976 179.04 41.04ZM170.808 43.632V45.432C172.152 45.528 173.736 45.576 174.768 45.576C177.816 45.576 182.28 45.36 185.64 44.856V43.08C182.256 43.68 178.104 43.872 174.864 43.872C173.76 43.872 172.104 43.8 170.808 43.632ZM189.144 49.416L188.376 47.64C187.704 47.976 187.104 48.24 186.384 48.576C184.8 49.32 182.856 50.064 180.576 51.24C177.72 52.704 174.744 54.504 174.744 57.432C174.744 60.336 177.504 61.08 180.912 61.08C183 61.08 185.664 60.888 187.488 60.672L187.56 58.728C185.448 59.112 182.856 59.328 180.984 59.328C178.512 59.328 176.664 59.04 176.664 57.168C176.664 55.512 178.344 54.216 180.72 52.968C183.048 51.768 185.328 50.856 187.032 50.184C187.68 49.944 188.544 49.608 189.144 49.416ZM197.736 49.32H193.08V51H196.032V57.816H197.736V49.32ZM197.736 57.096H196.2C195.096 58.152 193.824 59.232 192.792 60.024L193.728 61.728C194.88 60.648 195.96 59.616 196.992 58.584C198.504 60.48 200.688 61.344 203.88 61.464C206.616 61.56 211.848 61.512 214.584 61.392C214.656 60.888 214.944 60.072 215.16 59.688C212.208 59.88 206.568 59.952 203.856 59.832C201 59.712 198.864 58.896 197.736 57.096ZM193.2 41.328C194.592 42.528 196.152 44.256 196.776 45.456L198.288 44.424C197.616 43.224 196.008 41.568 194.592 40.416L193.2 41.328ZM199.512 49.992V51.384H214.08V49.992H199.512ZM198.744 53.688V55.104H214.824V53.688H198.744ZM203.064 48.264V54.384H204.792V48.264H203.064ZM208.728 48.264V54.384H210.432V48.264H208.728ZM200.112 43.608V44.88H205.92V40.8H199.2V42.048H204.336V43.608H200.112ZM199.608 43.608V46.128C199.608 47.568 200.088 47.928 201.864 47.928C202.224 47.928 204.504 47.928 204.888 47.928C206.112 47.928 206.568 47.52 206.736 45.96C206.304 45.888 205.704 45.696 205.416 45.456C205.344 46.512 205.224 46.656 204.648 46.656C204.192 46.656 202.368 46.656 202.032 46.656C201.264 46.656 201.144 46.56 201.144 46.104V43.608H199.608ZM208.032 43.608V44.88H213.744V40.8H207.072V42.048H212.184V43.608H208.032ZM207.504 43.608V46.104C207.504 47.568 208.008 47.928 209.832 47.928C210.216 47.928 212.664 47.928 213.048 47.928C214.344 47.928 214.8 47.52 214.968 45.888C214.536 45.792 213.936 45.6 213.624 45.384C213.552 46.512 213.432 46.656 212.832 46.656C212.352 46.656 210.384 46.656 210 46.656C209.184 46.656 209.04 46.56 209.04 46.104V43.608H207.504ZM208.296 56.184C209.952 57.048 211.728 58.2 212.688 59.088L214.464 58.296C213.312 57.408 211.344 56.232 209.592 55.392L208.296 56.184ZM203.904 55.344C202.824 56.328 201.024 57.24 199.392 57.888C199.776 58.128 200.448 58.704 200.712 59.016C202.32 58.248 204.264 57.072 205.488 55.896L203.904 55.344ZM224.976 46.08L225 47.88C226.392 47.976 227.64 48.048 229.008 48.048C231.864 48.048 234.768 47.856 237.312 47.424V45.576C234.888 46.056 231.936 46.296 229.056 46.296C227.64 46.296 226.344 46.224 224.976 46.08ZM233.376 41.784H231.216C231.288 42.216 231.336 42.84 231.336 43.248C231.312 44.088 231.336 45.624 231.336 47.256C231.336 50.424 231.648 54.936 231.648 56.664C231.648 58.248 231.072 59.28 229.032 59.28C227.328 59.28 226.128 58.632 226.128 57.384C226.128 56.232 227.376 55.44 229.176 55.44C232.224 55.44 234.624 57.072 237.168 59.424L238.2 57.84C236.184 56.016 233.376 53.976 229.32 53.976C226.176 53.976 224.4 55.56 224.4 57.576C224.4 59.736 226.176 61.032 229.368 61.032C232.608 61.032 233.52 59.112 233.52 57.144C233.52 54.648 233.16 50.928 233.16 47.232C233.16 45.816 233.184 44.112 233.232 43.224C233.256 42.768 233.304 42.264 233.376 41.784ZM221.544 41.952L219.432 41.76C219.432 42.288 219.36 42.912 219.264 43.464C218.976 45.456 218.184 50.04 218.184 53.568C218.184 56.808 218.616 59.448 219.072 61.176L220.776 61.032C220.752 60.768 220.704 60.432 220.704 60.192C220.68 59.904 220.728 59.448 220.8 59.112C221.04 57.936 221.928 55.488 222.528 53.808L221.544 53.04C221.112 54.024 220.536 55.488 220.176 56.568C219.984 55.392 219.912 54.408 219.912 53.232C219.912 50.544 220.632 45.792 221.112 43.56C221.184 43.128 221.4 42.36 221.544 41.952ZM235.464 40.992L234.264 41.376C234.744 42.288 235.296 43.728 235.656 44.784L236.88 44.352C236.544 43.368 235.896 41.88 235.464 40.992ZM237.864 40.272L236.688 40.656C237.168 41.544 237.72 42.936 238.08 44.016L239.304 43.584C238.944 42.624 238.32 41.16 237.864 40.272ZM242.304 44.88L242.448 46.68C243.336 46.704 244.368 46.728 245.256 46.728C248.184 46.752 251.328 46.224 253.68 45.576L253.632 43.8C250.872 44.712 247.848 45.024 245.256 45.024C244.224 45.024 243.192 44.976 242.304 44.88ZM250.824 40.968L248.712 40.752C248.64 42.432 248.112 44.544 247.584 46.056C246.6 48.888 244.368 53.16 242.232 55.656L244.08 56.616C246.072 53.928 248.28 49.56 249.432 46.104C250.008 44.4 250.512 42.144 250.824 40.968ZM256.488 48.384H254.592C254.688 51.024 254.952 55.32 254.952 57.144C254.952 58.44 254.28 59.496 252.288 59.496C250.416 59.496 249.48 58.728 249.48 57.624C249.48 56.52 250.68 55.704 252.456 55.704C255.984 55.704 258.744 57.84 260.592 59.52L261.6 57.888C259.632 56.184 256.536 54.168 252.504 54.168C249.816 54.168 247.728 55.56 247.728 57.768C247.728 60.168 249.864 61.224 252.504 61.224C255.48 61.224 256.704 59.664 256.704 57.744C256.704 56.16 256.488 52.512 256.44 50.952C256.416 50.088 256.416 49.368 256.488 48.384ZM261.288 49.008L262.368 47.424C261.216 46.56 258.504 45 256.752 44.256L255.792 45.696C257.376 46.44 259.992 47.904 261.288 49.008ZM269.352 43.272L267.024 43.224C267.168 43.776 267.168 44.808 267.168 45.36C267.168 46.752 267.216 49.68 267.432 51.744C268.104 57.96 270.264 60.216 272.544 60.216C274.176 60.216 275.616 58.824 277.08 54.768L275.568 53.064C274.944 55.464 273.816 57.936 272.592 57.936C270.864 57.936 269.712 55.272 269.304 51.264C269.136 49.296 269.112 47.088 269.136 45.6C269.16 44.976 269.232 43.824 269.352 43.272ZM281.832 43.92L279.984 44.568C282.264 47.376 283.728 52.32 284.136 56.64L286.08 55.872C285.72 51.816 283.992 46.704 281.832 43.92ZM148.872 77.48V79.472C149.496 79.424 150.264 79.376 151.08 79.376C152.424 79.376 158.016 79.376 159.36 79.376C160.032 79.376 160.872 79.424 161.592 79.472V77.48C160.896 77.552 160.032 77.6 159.36 77.6C158.016 77.6 152.424 77.6 151.032 77.6C150.264 77.6 149.544 77.552 148.872 77.48ZM146.016 83.504V85.496C146.664 85.448 147.384 85.424 148.104 85.424C149.496 85.424 162.528 85.424 163.8 85.424C164.4 85.424 165.168 85.448 165.696 85.496V83.504C165.096 83.576 164.304 83.624 163.8 83.624C162.528 83.624 149.496 83.624 148.104 83.624C147.36 83.624 146.664 83.576 146.016 83.504ZM157.32 84.464L155.304 84.488C155.28 87.128 155.112 89.48 153.912 91.376C152.952 92.912 151.224 94.28 149.376 95.072L151.152 96.368C153.192 95.336 154.992 93.608 155.88 92C156.936 89.984 157.32 87.488 157.32 84.464ZM162.84 75.512L161.568 76.064C162.216 76.976 163.032 78.416 163.488 79.376L164.784 78.8C164.304 77.84 163.44 76.376 162.84 75.512ZM165.456 74.552L164.208 75.104C164.88 75.992 165.672 77.36 166.2 78.392L167.472 77.816C167.016 76.928 166.104 75.44 165.456 74.552ZM187.104 76.712L185.952 77.072C186.432 77.984 186.984 79.424 187.32 80.432L188.52 80.024C188.184 79.064 187.56 77.576 187.104 76.712ZM189.504 75.968L188.328 76.328C188.832 77.24 189.36 78.608 189.744 79.688L190.944 79.28C190.584 78.32 189.96 76.856 189.504 75.968ZM184.824 84.416V78.728C184.824 77.792 184.92 77 184.944 76.76H182.784C182.832 77 182.904 77.792 182.904 78.728V84.56C182.904 91.28 180.72 93.344 176.352 95.024L177.984 96.536C183.456 94.088 184.824 90.8 184.824 84.416ZM176.184 76.928H174.048C174.12 77.456 174.144 78.152 174.144 78.656V87.464C174.144 88.376 174.072 89.384 174.048 89.624H176.16C176.136 89.384 176.064 88.328 176.064 87.464V78.656C176.064 77.816 176.16 77.144 176.184 76.928ZM169.152 81.584V83.648C169.44 83.624 170.52 83.576 171.576 83.576H187.464C188.52 83.576 189.408 83.6 189.672 83.648V81.608C189.336 81.656 188.52 81.728 187.464 81.728H171.576C170.544 81.728 169.368 81.608 169.152 81.584ZM194.064 86.336L195 88.208C198.864 87.008 202.68 85.256 205.32 83.624C208.128 81.872 210.648 79.856 212.712 77.72L211.104 76.208C209.448 78.224 207.048 80.288 204.528 81.872C201.864 83.528 198.216 85.232 194.064 86.336ZM204.144 82.856V93.2C204.144 94.088 204.072 95.288 204 95.744H206.376C206.256 95.288 206.208 94.088 206.208 93.2V82.232L204.144 82.856ZM221.448 77.432L220.056 78.896C221.856 80.072 224.832 82.664 226.056 83.912L227.544 82.376C226.224 81.056 223.128 78.56 221.448 77.432ZM219.384 93.512L220.632 95.48C224.64 94.736 227.664 93.248 230.088 91.736C233.712 89.456 236.496 86.192 238.128 83.216L236.976 81.152C235.584 84.128 232.68 87.68 228.96 90.008C226.68 91.424 223.56 92.888 219.384 93.512Z"
                  fill="white"/>
        </g>
        <g filter="url(#filter1_d_1_2)">
            <path d="M397.76 8.024C397.76 6.872 398.688 5.912 399.872 5.912C401.024 5.912 401.984 6.872 401.984 8.024C401.984 9.208 401.024 10.136 399.872 10.136C398.688 10.136 397.76 9.208 397.76 8.024ZM396.288 8.024C396.288 10.008 397.888 11.608 399.872 11.608C401.856 11.608 403.456 10.008 403.456 8.024C403.456 6.04 401.856 4.44 399.872 4.44C397.888 4.44 396.288 6.04 396.288 8.024ZM399.072 10.168L397.12 8.92C396.512 9.08 395.904 9.112 395.392 9.112C393.952 9.112 381.184 9.112 379.36 9.112C378.304 9.112 377.024 8.984 376.16 8.888V11.736C376.96 11.672 378.048 11.608 379.328 11.608C381.184 11.608 393.856 11.608 395.712 11.608C395.264 14.68 393.792 19.16 391.52 22.04C388.832 25.464 385.248 28.184 379.04 29.752L381.216 32.152C387.072 30.296 390.88 27.352 393.792 23.576C396.352 20.312 397.888 15.128 398.592 11.768C398.72 11.16 398.848 10.616 399.072 10.168ZM408.672 9.08C408.704 9.88 408.704 10.84 408.704 11.576C408.704 12.824 408.704 26.04 408.704 27.352C408.704 28.472 408.64 30.808 408.64 31.224H411.36C411.36 30.808 411.328 28.76 411.328 27.704C411.328 26.392 411.328 11.672 411.328 11.672H428.8C428.8 11.672 428.8 26.52 428.8 27.704C428.8 29.048 428.768 30.872 428.736 31.224H431.52C431.488 30.872 431.456 28.376 431.456 27.352C431.456 26.136 431.456 13.08 431.456 11.576C431.456 10.776 431.456 9.88 431.52 9.112C430.528 9.144 429.376 9.144 428.704 9.144C427.136 9.144 413.216 9.144 411.52 9.144C410.752 9.144 409.92 9.144 408.672 9.08ZM429.856 26.904H410.048V29.4H429.856V26.904ZM460.48 5.4L458.752 6.136C459.616 7.352 460.704 9.272 461.344 10.584L463.072 9.784C462.432 8.504 461.28 6.552 460.48 5.4ZM463.968 4.12L462.304 4.856C463.2 6.04 464.224 7.864 464.928 9.24L466.656 8.472C466.048 7.288 464.832 5.304 463.968 4.12ZM462.592 11.768L460.48 10.488C459.936 10.712 459.232 10.808 458.368 10.808C457.376 10.808 449.472 10.808 448.16 10.808L447.136 13.112H459.008C458.336 16.024 456.384 20.152 453.888 23.096C450.976 26.488 447.008 29.4 441.12 31.128L443.424 33.208C449.44 31 453.28 28.056 456.192 24.504C459.008 21.048 460.992 16.696 461.856 13.496C462.016 12.984 462.336 12.248 462.592 11.768ZM451.872 6.936L448.928 5.976C448.736 6.776 448.256 7.96 447.936 8.504C446.528 11.384 443.392 16.024 437.856 19.32L440.096 20.984C445.216 17.56 448.576 12.984 450.464 9.464C450.784 8.856 451.36 7.768 451.872 6.936ZM475.392 7.192V9.848C476.256 9.784 477.28 9.752 478.24 9.752C480 9.752 488.992 9.752 490.784 9.752C491.872 9.752 492.992 9.784 493.728 9.848V7.192C492.96 7.288 491.84 7.352 490.848 7.352C488.96 7.352 479.968 7.352 478.24 7.352C477.216 7.352 476.224 7.288 475.392 7.192ZM496.096 15.608L494.272 14.488C493.92 14.648 493.216 14.744 492.48 14.744C490.848 14.744 477.216 14.744 475.648 14.744C474.752 14.744 473.664 14.648 472.512 14.552V17.24C473.664 17.144 474.88 17.112 475.648 17.112C477.568 17.112 491.04 17.112 492.608 17.112C492.032 19.448 490.752 22.168 488.832 24.184C486.08 27.064 482.08 29.144 477.568 30.072L479.552 32.344C483.616 31.192 487.648 29.336 490.976 25.656C493.376 23.032 494.816 19.704 495.648 16.568C495.712 16.312 495.936 15.928 496.096 15.608ZM529.696 10.712L527.68 9.112C527.232 9.272 526.496 9.336 525.632 9.336C522.432 9.336 508.192 9.336 506.56 9.336C505.44 9.336 504.16 9.24 503.296 9.112V11.96C503.904 11.896 505.28 11.8 506.56 11.8C508.384 11.8 522.496 11.8 525.376 11.8C523.68 14.84 519.552 20.024 514.432 23.576L516.416 25.368C522.08 21.272 526.496 15.64 528.896 11.704C529.088 11.416 529.376 11.064 529.696 10.712ZM514.624 25.912C516.672 27.992 519.232 30.808 520.416 32.44L522.752 30.584C521.376 28.92 518.88 26.296 516.864 24.28C514.56 22.04 510.848 19 509.376 17.944L507.328 19.608C509.024 20.824 512.704 23.992 514.624 25.912ZM538.24 6.392V8.696H558.944V6.392H538.24ZM538.24 13.848V16.12H558.912V13.848H538.24ZM538.08 21.496V23.768H558.976V21.496H538.08ZM536.896 6.392V17.976C536.896 22.488 536.544 28.184 533.024 32.152C533.536 32.472 534.496 33.272 534.88 33.752C538.688 29.496 539.264 22.872 539.264 18.008V6.392H536.896ZM557.984 6.392V30.296C557.984 30.904 557.76 31.096 557.152 31.128C556.544 31.128 554.368 31.16 552.096 31.064C552.448 31.704 552.832 32.76 552.928 33.4C555.968 33.432 557.824 33.4 558.912 33.016C559.968 32.6 560.352 31.864 560.352 30.296V6.392H557.984ZM546.944 7.256V33.272H549.376V7.256H546.944ZM588.32 5.752L586.624 6.488C587.488 7.672 588.576 9.624 589.184 10.904L590.912 10.136C590.272 8.824 589.12 6.904 588.32 5.752ZM591.808 4.472L590.144 5.176C591.04 6.392 592.096 8.184 592.8 9.592L594.496 8.824C593.888 7.64 592.672 5.624 591.808 4.472ZM576.704 6.904L573.632 6.328C573.568 7.16 573.408 8.056 573.152 8.856C572.768 10.104 572.224 11.736 571.328 13.336C570.24 15.288 567.936 18.584 565.632 20.216L568.16 21.752C570.176 20.088 572.512 16.824 573.792 14.328C574.688 12.568 575.392 10.616 575.904 9.176C576.128 8.504 576.448 7.64 576.704 6.904ZM572.704 12.408L572.352 14.904C574.752 14.904 588.48 14.904 589.792 14.904C590.528 14.904 591.776 14.904 592.8 14.968V12.216C591.872 12.376 590.592 12.408 589.792 12.408C588.48 12.408 574.816 12.408 572.704 12.408ZM584.448 13.752H581.728C581.568 22.616 577.952 27.096 574.656 29.56C573.952 30.136 572.96 30.712 572.064 31.064L574.784 32.92C580.512 29.272 584.16 23.608 584.448 13.752ZM599.232 17.144V20.28C600.256 20.216 601.952 20.152 603.712 20.152C606.08 20.152 618.848 20.152 621.28 20.152C622.688 20.152 624.032 20.248 624.704 20.28V17.144C623.968 17.208 622.848 17.336 621.248 17.336C618.88 17.336 606.048 17.336 603.712 17.336C601.888 17.336 600.224 17.24 599.232 17.144ZM637.184 6.776L636.256 9.144C640.672 9.72 649.056 11.544 652.928 12.984L653.952 10.52C649.92 9.112 641.344 7.32 637.184 6.776ZM635.712 15.224L634.752 17.624C639.296 18.328 647.136 20.088 650.848 21.528L651.84 19.064C647.872 17.624 640.096 15.992 635.712 15.224ZM633.984 24.536L632.992 27C638.144 27.8 647.68 29.944 651.904 31.8L653.024 29.336C648.64 27.576 639.328 25.4 633.984 24.536ZM667.264 7.576L665.408 9.528C667.808 11.096 671.776 14.552 673.408 16.216L675.392 14.168C673.632 12.408 669.504 9.08 667.264 7.576ZM664.512 29.016L666.176 31.64C671.52 30.648 675.552 28.664 678.784 26.648C683.616 23.608 687.328 19.256 689.504 15.288L687.968 12.536C686.112 16.504 682.24 21.24 677.28 24.344C674.24 26.232 670.08 28.184 664.512 29.016ZM716.48 5.4L714.752 6.136C715.616 7.352 716.704 9.272 717.344 10.584L719.072 9.784C718.432 8.504 717.28 6.552 716.48 5.4ZM719.968 4.12L718.304 4.856C719.2 6.04 720.224 7.864 720.928 9.24L722.656 8.472C722.048 7.288 720.832 5.304 719.968 4.12ZM718.592 11.768L716.48 10.488C715.936 10.712 715.232 10.808 714.368 10.808C713.376 10.808 705.472 10.808 704.16 10.808L703.136 13.112H715.008C714.336 16.024 712.384 20.152 709.888 23.096C706.976 26.488 703.008 29.4 697.12 31.128L699.424 33.208C705.44 31 709.28 28.056 712.192 24.504C715.008 21.048 716.992 16.696 717.856 13.496C718.016 12.984 718.336 12.248 718.592 11.768ZM707.872 6.936L704.928 5.976C704.736 6.776 704.256 7.96 703.936 8.504C702.528 11.384 699.392 16.024 693.856 19.32L696.096 20.984C701.216 17.56 704.576 12.984 706.464 9.464C706.784 8.856 707.36 7.768 707.872 6.936ZM748.256 8.696C748.256 7.544 749.216 6.584 750.368 6.584C751.52 6.584 752.512 7.544 752.512 8.696C752.512 9.848 751.52 10.808 750.368 10.808C749.216 10.808 748.256 9.848 748.256 8.696ZM746.784 8.696C746.784 10.68 748.384 12.28 750.368 12.28C752.352 12.28 753.984 10.68 753.984 8.696C753.984 6.712 752.352 5.112 750.368 5.112C748.384 5.112 746.784 6.712 746.784 8.696ZM732.928 7H729.952C730.08 7.768 730.144 8.824 730.144 9.592C730.144 11.32 730.144 24.12 730.144 27.192C730.144 29.816 731.52 30.936 733.952 31.384C735.296 31.608 737.184 31.672 739.104 31.672C742.592 31.672 747.392 31.448 750.176 31.032V28.088C747.488 28.792 742.592 29.112 739.2 29.112C737.632 29.112 736 29.048 734.976 28.856C733.44 28.568 732.736 28.152 732.736 26.488C732.736 24.184 732.736 11.32 732.736 9.592C732.736 8.696 732.832 7.768 732.928 7ZM731.552 17.112L731.584 19.768C735.52 18.776 741.856 16.92 745.824 15.32C746.784 14.936 747.936 14.424 748.864 14.04L747.744 11.48C746.816 12.056 745.888 12.504 744.928 12.952C741.216 14.52 735.424 16.28 731.552 17.112ZM759.232 17.144V20.28C760.256 20.216 761.952 20.152 763.712 20.152C766.08 20.152 778.848 20.152 781.28 20.152C782.688 20.152 784.032 20.248 784.704 20.28V17.144C783.968 17.208 782.848 17.336 781.248 17.336C778.88 17.336 766.048 17.336 763.712 17.336C761.888 17.336 760.224 17.24 759.232 17.144ZM804.736 30.328L806.432 31.736C806.688 31.576 807.008 31.288 807.552 31.032C811.264 29.176 815.68 25.912 818.464 22.168L816.928 19.96C814.496 23.576 810.56 26.488 807.584 27.832C807.584 26.872 807.584 11.384 807.584 9.4C807.584 8.184 807.712 7.256 807.744 7H804.8C804.8 7.256 804.96 8.152 804.96 9.368C804.96 11.384 804.96 27.064 804.96 28.536C804.96 29.176 804.864 29.848 804.736 30.328ZM790.08 30.2L792.512 31.8C795.2 29.56 797.248 26.456 798.208 23.032C799.072 19.832 799.168 12.952 799.168 9.4C799.168 8.472 799.296 7.48 799.328 7.128H796.384C796.544 7.8 796.608 8.504 796.608 9.432C796.608 13.016 796.608 19.384 795.648 22.328C794.688 25.432 792.8 28.28 790.08 30.2Z"
                  fill="white"/>
        </g>
        <path d="M834.626 19.645V20.994H844.088V19.645H834.626ZM839.129 20.253V28.841H840.535V20.253H839.129ZM833.866 15.332V19.74C833.866 22.115 833.619 25.117 831.548 27.378C831.89 27.568 832.403 28.043 832.574 28.366C834.911 25.858 835.272 22.305 835.272 19.778V15.997C835.538 15.94 835.652 15.864 835.671 15.731L833.866 15.332ZM841.827 14.116C840.117 14.743 837.058 15.313 834.398 15.674C834.569 15.978 834.778 16.491 834.854 16.814C837.628 16.491 840.839 15.94 843.043 15.199L841.827 14.116ZM830.959 21.545H826.912V22.875H829.572V28.271H830.959V21.545ZM830.959 27.644H829.667C828.698 28.461 827.577 29.297 826.665 29.905L827.425 31.368C828.451 30.532 829.42 29.715 830.332 28.898C831.548 30.399 833.258 31.064 835.728 31.159C837.837 31.235 841.77 31.197 843.86 31.121C843.917 30.684 844.164 30 844.316 29.658C842.074 29.81 837.799 29.867 835.728 29.791C833.543 29.696 831.852 29.05 830.959 27.644ZM827.121 15.37C828.356 16.206 829.781 17.498 830.389 18.41L831.51 17.479C830.845 16.548 829.42 15.313 828.166 14.515L827.121 15.37ZM848.344 15.332V31.311H849.807V16.776H859.288V31.235H860.789V15.332H848.344ZM849.313 21.925V23.331H859.915V21.925H849.313ZM849.294 28.651V30.076H859.953V28.651H849.294ZM868.275 20.804V22.153H878.725V20.804H868.275ZM866.375 14.857V16.13H872.037V14.857H866.375ZM865.881 25.003V26.314H881.043V25.003H865.881ZM871.543 14.857V15.142C870.384 18.239 867.382 20.861 864.532 22.02C864.817 22.286 865.235 22.78 865.425 23.103C868.522 21.716 871.638 19.018 873.025 15.256L872.075 14.8L871.809 14.857H871.543ZM870.308 21.45V24.68C870.308 26.827 869.795 29.05 865.482 30.494C865.786 30.76 866.223 31.292 866.413 31.615C871.106 29.981 871.714 27.34 871.714 24.699V21.45H870.308ZM875.001 14.116L873.747 14.477C875.248 18.334 878.003 21.545 881.461 23.084C881.689 22.723 882.126 22.172 882.449 21.868C879.067 20.557 876.331 17.555 875.001 14.116ZM866.109 17.555C867.002 18.22 868.104 19.17 868.636 19.759L869.586 18.904C869.035 18.315 867.914 17.403 867.021 16.776L866.109 17.555ZM878.535 14.249C877.813 15.123 876.502 16.32 875.552 17.023L876.426 17.707C877.395 17.042 878.668 15.978 879.637 15.009L878.535 14.249ZM880.796 16.434C879.979 17.327 878.554 18.581 877.509 19.303L878.383 19.987C879.447 19.265 880.815 18.182 881.86 17.194L880.796 16.434ZM875.039 21.488V29.373C875.039 30.95 875.457 31.387 877.072 31.387C877.414 31.387 879.219 31.387 879.58 31.387C880.986 31.387 881.385 30.703 881.518 28.252C881.119 28.176 880.549 27.929 880.226 27.682C880.15 29.715 880.055 30.095 879.447 30.095C879.067 30.095 877.566 30.095 877.281 30.095C876.616 30.095 876.502 29.981 876.502 29.373V21.488H875.039ZM884.216 15.921V17.251H900.803V15.921H884.216ZM886.002 19.151V20.424H899.093V19.151H886.002ZM884.729 21.963V25.592H886.097V23.255H898.846V25.592H900.271V21.963H884.729ZM891.702 14.059V19.816H893.165V14.059H891.702ZM893.925 24.205V29.259C893.925 30.76 894.381 31.178 896.091 31.178C896.452 31.178 898.504 31.178 898.884 31.178C900.385 31.178 900.765 30.551 900.936 27.948C900.556 27.853 899.948 27.625 899.644 27.397C899.587 29.544 899.454 29.867 898.751 29.867C898.314 29.867 896.585 29.867 896.224 29.867C895.483 29.867 895.35 29.791 895.35 29.24V24.205H893.925ZM889.232 24.224C888.947 27.53 888.187 29.392 883.817 30.323C884.121 30.627 884.501 31.178 884.634 31.558C889.384 30.38 890.372 28.1 890.695 24.224H889.232Z"
              fill="white"/>
        <g filter="url(#filter2_d_1_2)">
            <line x1="387" y1="80" x2="561" y2="80" stroke="#0B7AB9" stroke-width="30" stroke-linecap="round"/>
            <path d="M401.288 72.424L402.718 71.676C403.525 72.996 404.273 74.3087 404.962 75.614L403.532 76.318C403.004 75.3207 402.256 74.0227 401.288 72.424ZM404.544 71.478L405.974 70.73C406.795 72.0647 407.565 73.3993 408.284 74.734L406.832 75.438C406.216 74.294 405.453 72.974 404.544 71.478ZM390.178 84.898L388.836 83.864C389.32 83.2773 389.87 82.588 390.486 81.796C391.117 80.9893 391.725 80.2047 392.312 79.442C392.899 78.6793 393.251 78.2247 393.368 78.078C394.571 76.4353 395.37 75.416 395.766 75.02C396.177 74.624 396.653 74.426 397.196 74.426C397.783 74.426 398.296 74.602 398.736 74.954C399.191 75.306 400.107 76.2227 401.486 77.704C403.935 80.3587 406.487 83.0207 409.142 85.69L407.91 86.966C405.358 84.3993 402.799 81.7227 400.232 78.936C399.205 77.8213 398.501 77.0953 398.12 76.758C397.753 76.406 397.445 76.23 397.196 76.23C397.02 76.23 396.778 76.406 396.47 76.758C396.177 77.11 395.722 77.6967 395.106 78.518C394.989 78.6793 394.901 78.804 394.842 78.892C393.009 81.3267 391.454 83.3287 390.178 84.898ZM412.046 80.916V79.244H429.954V80.916H412.046ZM436.114 88.814L435.872 87.274C438.629 87.01 440.895 86.482 442.67 85.69C444.445 84.898 445.823 83.7613 446.806 82.28C444.371 81.0187 441.922 79.8527 439.458 78.782L440.228 77.308C442.619 78.3493 445.083 79.5153 447.62 80.806C448.368 79.1047 448.779 76.956 448.852 74.36H439.854C439.018 77 437.581 79.2733 435.542 81.18L434.398 80.124C435.659 78.936 436.686 77.528 437.478 75.9C438.27 74.272 438.769 72.534 438.974 70.686L440.58 70.774C440.536 71.2727 440.426 71.9547 440.25 72.82H450.634V73.48C450.634 78.4227 449.475 82.1113 447.158 84.546C444.841 86.966 441.159 88.3887 436.114 88.814ZM463.746 74.58V73.084H473.096V74.58H463.746ZM459.39 71.324C458.686 73.9933 458.334 76.912 458.334 80.08C458.334 83.248 458.686 86.1667 459.39 88.836L457.74 89.056C457.007 86.2693 456.64 83.2773 456.64 80.08C456.64 76.8827 457.007 73.8907 457.74 71.104L459.39 71.324ZM473.404 85.888L473.646 87.362C471.871 87.8167 470.185 88.044 468.586 88.044C466.577 88.044 464.985 87.6773 463.812 86.944C462.653 86.196 462.074 85.206 462.074 83.974C462.074 83.3433 462.323 82.6173 462.822 81.796C463.335 80.9747 464.025 80.212 464.89 79.508L466.078 80.52C465.359 81.1067 464.787 81.7227 464.362 82.368C463.951 82.9987 463.746 83.534 463.746 83.974C463.746 84.7953 464.164 85.426 465 85.866C465.836 86.2913 467.031 86.504 468.586 86.504C470.111 86.504 471.717 86.2987 473.404 85.888ZM480.048 84.854C485.328 84.414 489.523 83.402 492.632 81.818L493.204 83.116C490.051 84.788 485.79 85.8513 480.422 86.306L480.048 84.854ZM480.048 88.484C486.399 87.9707 491.4 86.7167 495.052 84.722L495.668 86.042C491.957 88.1247 486.875 89.4227 480.422 89.936L480.048 88.484ZM477.21 77.946V76.56H484.272C484.932 75.8707 485.445 75.24 485.812 74.668C483.113 74.8293 480.701 74.932 478.574 74.976L478.486 73.59C479.777 73.5607 480.73 73.5313 481.346 73.502C482.109 72.358 482.827 71.1407 483.502 69.85L485.086 70.224C484.47 71.3973 483.854 72.4607 483.238 73.414C485.79 73.2967 488.584 73.106 491.62 72.842C491.459 72.666 491.283 72.49 491.092 72.314C490.901 72.1233 490.689 71.918 490.454 71.698C490.234 71.4633 490.065 71.2873 489.948 71.17L491.378 70.444C493.255 72.2627 494.751 73.8247 495.866 75.13L494.458 75.878C494.003 75.35 493.461 74.756 492.83 74.096C490.542 74.3013 488.841 74.448 487.726 74.536C487.389 75.24 486.949 75.9147 486.406 76.56H496.79V77.946H491.158C492.815 79.222 494.803 80.2267 497.12 80.96L496.702 82.412C493.505 81.356 490.887 79.8673 488.848 77.946H485.064C483.729 79.1633 482.094 80.2413 480.158 81.18C484.059 80.828 487.279 80.1093 489.816 79.024L490.388 80.256C487.748 81.4587 484.397 82.2507 480.334 82.632L479.938 81.29C479.102 81.686 478.222 82.038 477.298 82.346L476.88 80.894C479.051 80.2047 480.979 79.222 482.666 77.946H477.21ZM511.97 86.416H516.59V73.37H511.97V86.416ZM518.284 71.874V89.276H516.59V87.89H511.97V89.276H510.32V71.874H518.284ZM502.752 88.836L502.708 87.23C503.881 87.3767 504.864 87.45 505.656 87.45C506.052 87.45 506.353 87.2227 506.558 86.768C506.778 86.2987 506.954 85.1913 507.086 83.446C507.233 81.7007 507.306 79.134 507.306 75.746V74.976H503.786C503.639 78.7453 503.273 81.686 502.686 83.798C502.114 85.8953 501.183 87.78 499.892 89.452L498.616 88.176C499.731 86.6947 500.552 85.03 501.08 83.182C501.608 81.3193 501.945 78.584 502.092 74.976H499.034V73.436H502.136C502.165 71.9987 502.18 70.8253 502.18 69.916H503.874C503.874 70.796 503.859 71.9693 503.83 73.436H509V74.756C509 77.4107 508.963 79.596 508.89 81.312C508.831 83.0133 508.743 84.3993 508.626 85.47C508.509 86.526 508.318 87.3107 508.054 87.824C507.805 88.3373 507.541 88.6673 507.262 88.814C506.998 88.9753 506.624 89.056 506.14 89.056C505.348 89.056 504.219 88.9827 502.752 88.836Z"
                  fill="white"/>
            <path d="M530.396 80.76V78.8H546.916L541.736 74.264L542.884 72.92L550.724 79.78L542.884 86.64L541.736 85.296L546.916 80.76H530.396Z"
                  fill="white"/>
        </g>
        <path d="M834.406 82.1562C834.427 82.0833 834.443 82.0104 834.453 81.9375C834.464 81.8646 834.469 81.7969 834.469 81.7344C834.469 81.5365 834.432 81.3594 834.359 81.2031C834.286 81.0469 834.198 80.9167 834.094 80.8125C833.99 80.6979 833.875 80.6146 833.75 80.5625C833.625 80.5104 833.516 80.4844 833.422 80.4844H833.406C833.292 80.4844 833.089 80.5365 832.797 80.6406C832.505 80.7344 832.188 80.8646 831.844 81.0312C831.51 81.1875 831.182 81.3646 830.859 81.5625C830.547 81.7604 830.312 81.9583 830.156 82.1562L830.125 82.1719C830.042 82.6198 829.922 83.151 829.766 83.7656C829.62 84.3698 829.458 85.0052 829.281 85.6719C829.396 85.849 829.526 86.0052 829.672 86.1406C829.828 86.2656 829.979 86.3281 830.125 86.3281C830.146 86.3281 830.156 86.3281 830.156 86.3281C830.167 86.3177 830.182 86.3125 830.203 86.3125C830.297 86.3021 830.458 86.2135 830.688 86.0469C830.917 85.8802 831.177 85.6771 831.469 85.4375C831.771 85.1875 832.083 84.9115 832.406 84.6094C832.729 84.2969 833.031 83.9896 833.312 83.6875C833.594 83.3854 833.833 83.099 834.031 82.8281C834.229 82.5573 834.354 82.3333 834.406 82.1562ZM835.391 80.3281C835.453 80.5052 835.484 80.776 835.484 81.1406C835.484 81.401 835.464 81.6875 835.422 82C835.391 82.3021 835.344 82.6042 835.281 82.9062C835.219 83.1979 835.141 83.4688 835.047 83.7188C834.953 83.9688 834.849 84.1667 834.734 84.3125C834.63 84.4375 834.474 84.6042 834.266 84.8125C834.057 85.0208 833.812 85.2448 833.531 85.4844C833.26 85.7135 832.969 85.9479 832.656 86.1875C832.354 86.4271 832.052 86.6458 831.75 86.8438C831.458 87.0417 831.177 87.2031 830.906 87.3281C830.646 87.4427 830.427 87.5 830.25 87.5H830.203C829.995 87.4792 829.776 87.4167 829.547 87.3125C829.328 87.1979 829.115 87.0677 828.906 86.9219C828.771 87.4115 828.63 87.8802 828.484 88.3281C828.339 88.776 828.193 89.1927 828.047 89.5781C827.901 89.9531 827.76 90.2812 827.625 90.5625C827.49 90.8438 827.365 91.0573 827.25 91.2031L826.078 90.875C826.172 90.7188 826.292 90.474 826.438 90.1406C826.583 89.8073 826.74 89.4167 826.906 88.9688C827.083 88.5208 827.266 88.0312 827.453 87.5C827.641 86.9688 827.823 86.4375 828 85.9062C827.938 85.8021 827.906 85.6979 827.906 85.5938L828.172 85.4062C828.391 84.7396 828.578 84.1198 828.734 83.5469C828.901 82.9635 829.026 82.4948 829.109 82.1406L828.703 81.6875C828.807 81.5833 828.953 81.4688 829.141 81.3438C829.078 81 828.938 80.8281 828.719 80.8281C828.615 80.8281 828.505 80.8698 828.391 80.9531C828.297 81.0156 828.193 81.0938 828.078 81.1875C827.87 81.3438 827.609 81.5885 827.297 81.9219L826.844 80.9688C826.99 80.8021 827.156 80.6406 827.344 80.4844C827.542 80.3177 827.745 80.1719 827.953 80.0469C828.161 79.9115 828.375 79.8021 828.594 79.7188C828.812 79.625 829.026 79.5677 829.234 79.5469H829.375C829.667 79.5469 829.88 79.6354 830.016 79.8125C830.151 79.9896 830.234 80.2344 830.266 80.5469C830.495 80.4115 830.724 80.276 830.953 80.1406C831.193 80.0052 831.422 79.8854 831.641 79.7812C831.859 79.6667 832.057 79.5729 832.234 79.5C832.411 79.4271 832.562 79.3802 832.688 79.3594C832.729 79.349 832.776 79.3438 832.828 79.3438C832.891 79.3438 832.958 79.3438 833.031 79.3438C833.219 79.3438 833.432 79.3594 833.672 79.3906C833.922 79.4219 834.161 79.4792 834.391 79.5625C834.62 79.6354 834.828 79.7344 835.016 79.8594C835.203 79.9844 835.328 80.1406 835.391 80.3281ZM837.375 90.5156C837.417 90.526 837.479 90.5312 837.562 90.5312C837.875 90.5312 838.156 90.4479 838.406 90.2812C838.656 90.1146 838.875 89.9062 839.062 89.6562C839.25 89.4062 839.406 89.1406 839.531 88.8594C839.667 88.5677 839.766 88.3021 839.828 88.0625C839.88 87.9271 839.938 87.7135 840 87.4219C840.062 87.1198 840.12 86.7969 840.172 86.4531C839.995 86.3906 839.812 86.2865 839.625 86.1406C839.448 85.9844 839.281 85.8073 839.125 85.6094C838.969 85.4115 838.839 85.1979 838.734 84.9688C838.641 84.7396 838.594 84.5208 838.594 84.3125C838.594 84.2396 838.599 84.1823 838.609 84.1406C838.37 84.2865 838.141 84.4583 837.922 84.6562C837.714 84.8542 837.521 85.0677 837.344 85.2969C837.167 85.5156 837.016 85.75 836.891 86C836.766 86.2396 836.677 86.474 836.625 86.7031C836.562 86.9427 836.505 87.2344 836.453 87.5781C836.401 87.9115 836.375 88.2552 836.375 88.6094C836.375 88.849 836.391 89.0781 836.422 89.2969C836.453 89.5156 836.505 89.7135 836.578 89.8906C836.661 90.0573 836.766 90.1979 836.891 90.3125C837.026 90.4271 837.188 90.4948 837.375 90.5156ZM840.016 84.1875C839.901 84.1875 839.818 84.224 839.766 84.2969C839.714 84.3698 839.688 84.4583 839.688 84.5625C839.688 84.7396 839.745 84.9219 839.859 85.1094C839.974 85.2865 840.125 85.4115 840.312 85.4844C840.323 85.3906 840.328 85.3021 840.328 85.2188C840.328 85.1354 840.328 85.0521 840.328 84.9688C840.328 84.7292 840.307 84.5417 840.266 84.4062C840.224 84.2604 840.146 84.1875 840.031 84.1875H840.016ZM845.031 85.7656C844.531 86.1719 844.047 86.4688 843.578 86.6562C843.109 86.8438 842.698 86.9375 842.344 86.9375C842.073 86.9375 841.766 86.8802 841.422 86.7656C841.307 87.2552 841.167 87.75 841 88.25C840.844 88.75 840.667 89.2135 840.469 89.6406C840.281 90.0573 840.078 90.4115 839.859 90.7031C839.651 90.9948 839.438 91.1771 839.219 91.25C838.979 91.3438 838.719 91.4115 838.438 91.4531C838.156 91.4948 837.875 91.5156 837.594 91.5156C837.125 91.5156 836.682 91.4479 836.266 91.3125C835.859 91.1771 835.583 90.9583 835.438 90.6562C835.354 90.4792 835.286 90.224 835.234 89.8906C835.182 89.5573 835.156 89.1927 835.156 88.7969C835.156 88.4844 835.172 88.1615 835.203 87.8281C835.234 87.4844 835.276 87.1562 835.328 86.8438C835.391 86.5312 835.464 86.2448 835.547 85.9844C835.641 85.7135 835.745 85.4896 835.859 85.3125C836.036 85.0208 836.26 84.7292 836.531 84.4375C836.802 84.1354 837.094 83.8646 837.406 83.625C837.729 83.3854 838.062 83.1875 838.406 83.0312C838.75 82.875 839.089 82.7969 839.422 82.7969H839.469L839.516 83.25C839.682 83.1875 839.859 83.1562 840.047 83.1562C840.432 83.1562 840.771 83.2812 841.062 83.5312C841.365 83.7708 841.573 84.0781 841.688 84.4531C841.708 84.5365 841.719 84.6771 841.719 84.875C841.719 85.0208 841.714 85.1719 841.703 85.3281C841.703 85.4844 841.698 85.6042 841.688 85.6875C841.74 85.7083 841.797 85.724 841.859 85.7344C841.964 85.7656 842.125 85.7812 842.344 85.7812C842.479 85.7812 842.646 85.7708 842.844 85.75C843.052 85.7188 843.271 85.6719 843.5 85.6094C843.74 85.5365 843.984 85.4427 844.234 85.3281C844.484 85.2031 844.724 85.0417 844.953 84.8438L845.031 85.7656ZM852.062 85.6875C852.177 85.5208 852.297 85.2812 852.422 84.9688C852.547 84.6458 852.635 84.3542 852.688 84.0938C852.635 84.1667 852.573 84.2604 852.5 84.375C852.427 84.4896 852.354 84.6146 852.281 84.75C852.219 84.8854 852.161 85.026 852.109 85.1719C852.068 85.3073 852.047 85.4323 852.047 85.5469C852.047 85.6198 852.052 85.6667 852.062 85.6875ZM848.766 84.2188C848.682 84.3438 848.604 84.5 848.531 84.6875C848.458 84.875 848.422 85.0573 848.422 85.2344C848.422 85.349 848.438 85.4531 848.469 85.5469C848.552 85.3698 848.615 85.1719 848.656 84.9531C848.708 84.724 848.745 84.4792 848.766 84.2188ZM856.562 86.125C856.438 86.2708 856.245 86.4427 855.984 86.6406C855.734 86.8281 855.458 87.0104 855.156 87.1875C854.854 87.3646 854.547 87.5208 854.234 87.6562C853.922 87.7812 853.651 87.8594 853.422 87.8906C853.391 87.901 853.339 87.9062 853.266 87.9062C853.005 87.9062 852.745 87.8333 852.484 87.6875C852.266 88.1146 852.042 88.5312 851.812 88.9375C851.594 89.3438 851.38 89.7083 851.172 90.0312C850.964 90.3438 850.771 90.6042 850.594 90.8125C850.417 91.0208 850.271 91.1406 850.156 91.1719C849.979 91.224 849.786 91.2656 849.578 91.2969C849.38 91.3281 849.188 91.3438 849 91.3438C848.667 91.3438 848.37 91.2917 848.109 91.1875C847.849 91.0938 847.708 90.9375 847.688 90.7188C847.677 90.6042 847.667 90.401 847.656 90.1094C847.646 89.8073 847.635 89.4531 847.625 89.0469C847.312 89.599 847.01 90.0729 846.719 90.4688C846.427 90.8542 846.182 91.0885 845.984 91.1719C845.828 91.2448 845.651 91.2812 845.453 91.2812C845.193 91.2812 844.938 91.224 844.688 91.1094C844.438 91.0052 844.214 90.8646 844.016 90.6875C843.818 90.5 843.656 90.2917 843.531 90.0625C843.406 89.8229 843.344 89.5833 843.344 89.3438V89.2812C843.354 89.0833 843.38 88.8073 843.422 88.4531C843.464 88.099 843.516 87.7135 843.578 87.2969C843.651 86.8698 843.734 86.4323 843.828 85.9844C843.922 85.5365 844.026 85.1198 844.141 84.7344C844.266 84.349 844.396 84.0156 844.531 83.7344C844.667 83.4531 844.807 83.2656 844.953 83.1719L846.078 83.8594C846.005 84.026 845.891 84.3073 845.734 84.7031C845.578 85.099 845.422 85.5469 845.266 86.0469C845.109 86.5365 844.974 87.0521 844.859 87.5938C844.745 88.1354 844.688 88.6406 844.688 89.1094C844.688 89.3594 844.708 89.5938 844.75 89.8125C844.792 90.0208 844.859 90.1979 844.953 90.3438C845.203 90.2083 845.448 90.0208 845.688 89.7812C845.927 89.5312 846.161 89.2448 846.391 88.9219C846.62 88.599 846.839 88.25 847.047 87.875C847.255 87.4896 847.453 87.0938 847.641 86.6875C847.651 86.2812 847.672 85.8854 847.703 85.5C847.734 85.1146 847.771 84.776 847.812 84.4844C847.865 84.1823 847.927 83.9323 848 83.7344C848.083 83.5365 848.177 83.4219 848.281 83.3906C848.51 83.2969 848.719 83.25 848.906 83.25C849.156 83.25 849.359 83.3125 849.516 83.4375C849.672 83.5521 849.792 83.6927 849.875 83.8594V83.9219C849.875 84.026 849.833 84.2031 849.75 84.4531C849.667 84.7031 849.552 85 849.406 85.3438C849.271 85.6875 849.109 86.0677 848.922 86.4844C848.734 86.8906 848.536 87.3021 848.328 87.7188C848.349 87.9271 848.38 88.151 848.422 88.3906C848.464 88.6198 848.516 88.849 848.578 89.0781C848.651 89.2969 848.734 89.5052 848.828 89.7031C848.922 89.901 849.031 90.0677 849.156 90.2031C849.417 89.9844 849.661 89.7396 849.891 89.4688C850.12 89.1875 850.333 88.8958 850.531 88.5938C850.729 88.2917 850.911 87.9896 851.078 87.6875C851.245 87.375 851.391 87.0833 851.516 86.8125C851.359 86.5729 851.276 86.3698 851.266 86.2031C851.255 86.1719 851.25 86.1198 851.25 86.0469C851.25 85.849 851.276 85.6146 851.328 85.3438C851.38 85.0625 851.448 84.7969 851.531 84.5469C851.615 84.2865 851.703 84.0573 851.797 83.8594C851.891 83.6615 851.979 83.5365 852.062 83.4844C852.156 83.4323 852.307 83.4062 852.516 83.4062C852.661 83.4062 852.823 83.4219 853 83.4531C853.177 83.4844 853.344 83.526 853.5 83.5781C853.656 83.6302 853.786 83.6979 853.891 83.7812C853.995 83.8646 854.047 83.9583 854.047 84.0625V84.0781C854.047 84.1406 854.016 84.2552 853.953 84.4219C853.901 84.5885 853.823 84.7969 853.719 85.0469C853.615 85.2969 853.495 85.5781 853.359 85.8906C853.224 86.1927 853.073 86.5104 852.906 86.8438C853.104 86.8125 853.37 86.7344 853.703 86.6094C854.047 86.4844 854.401 86.3333 854.766 86.1562C855.141 85.9792 855.51 85.7812 855.875 85.5625C856.24 85.3333 856.557 85.099 856.828 84.8594L856.562 86.125ZM858.234 84.5469C858.151 84.5469 858.036 84.6094 857.891 84.7344C857.755 84.8594 857.604 85.026 857.438 85.2344C857.281 85.4323 857.115 85.6667 856.938 85.9375C856.76 86.2083 856.604 86.4896 856.469 86.7812C856.417 86.8854 856.37 86.9896 856.328 87.0938C856.286 87.1979 856.245 87.3073 856.203 87.4219C856.474 87.3698 856.755 87.3073 857.047 87.2344C857.349 87.151 857.573 87.0625 857.719 86.9688C857.792 86.9167 857.87 86.8125 857.953 86.6562C858.047 86.5 858.13 86.3281 858.203 86.1406C858.286 85.9427 858.354 85.7396 858.406 85.5312C858.458 85.3125 858.484 85.125 858.484 84.9688C858.484 84.8542 858.464 84.7552 858.422 84.6719C858.38 84.5885 858.318 84.5469 858.234 84.5469ZM861.703 89C861.516 89.1354 861.297 89.2917 861.047 89.4688C860.797 89.6354 860.531 89.8125 860.25 90C859.979 90.1771 859.703 90.3542 859.422 90.5312C859.151 90.7083 858.896 90.8646 858.656 91C858.427 91.1458 858.229 91.2604 858.062 91.3438C857.896 91.4375 857.786 91.4896 857.734 91.5C857.703 91.5104 857.661 91.5156 857.609 91.5156C857.432 91.5156 857.198 91.4688 856.906 91.375C856.625 91.2917 856.339 91.1823 856.047 91.0469C855.755 90.9219 855.484 90.7865 855.234 90.6406C854.995 90.4844 854.833 90.3385 854.75 90.2031C854.688 90.0885 854.641 89.9427 854.609 89.7656C854.589 89.5781 854.578 89.3646 854.578 89.125C854.578 88.9167 854.589 88.6979 854.609 88.4688C854.63 88.2292 854.656 88.0052 854.688 87.7969C854.729 87.5781 854.771 87.3802 854.812 87.2031C854.865 87.026 854.922 86.8854 854.984 86.7812C855.057 86.6354 855.172 86.4531 855.328 86.2344C855.484 86.0052 855.661 85.7708 855.859 85.5312C856.068 85.2812 856.286 85.0312 856.516 84.7812C856.745 84.5312 856.974 84.3073 857.203 84.1094C857.432 83.901 857.651 83.7344 857.859 83.6094C858.078 83.474 858.271 83.401 858.438 83.3906C858.448 83.3906 858.453 83.3906 858.453 83.3906C858.464 83.3802 858.479 83.375 858.5 83.375C858.667 83.375 858.833 83.4479 859 83.5938C859.167 83.7396 859.312 83.9167 859.438 84.125C859.562 84.3333 859.661 84.5573 859.734 84.7969C859.818 85.026 859.859 85.2344 859.859 85.4219C859.859 85.5156 859.854 85.5833 859.844 85.625C859.802 85.7917 859.708 86 859.562 86.25C859.417 86.4896 859.255 86.7292 859.078 86.9688C858.901 87.1979 858.729 87.4062 858.562 87.5938C858.396 87.7708 858.271 87.8906 858.188 87.9531C858.125 88.0052 858.01 88.0573 857.844 88.1094C857.688 88.151 857.5 88.1979 857.281 88.25C857.073 88.2917 856.849 88.3333 856.609 88.375C856.37 88.4167 856.135 88.4531 855.906 88.4844C855.865 88.6927 855.833 88.875 855.812 89.0312C855.792 89.1771 855.776 89.2812 855.766 89.3438C855.786 89.4583 855.849 89.5729 855.953 89.6875C856.057 89.8021 856.188 89.9062 856.344 90C856.5 90.0938 856.672 90.1719 856.859 90.2344C857.057 90.2865 857.255 90.3125 857.453 90.3125C857.495 90.3125 857.536 90.3125 857.578 90.3125C857.63 90.3125 857.677 90.3073 857.719 90.2969C857.906 90.2448 858.156 90.125 858.469 89.9375C858.781 89.75 859.104 89.5365 859.438 89.2969C859.781 89.0573 860.104 88.8125 860.406 88.5625C860.719 88.3021 860.958 88.0729 861.125 87.875L861.703 89ZM868.891 89.3594C868.776 89.5781 868.635 89.7969 868.469 90.0156C868.302 90.2344 868.109 90.4427 867.891 90.6406C867.682 90.8281 867.453 90.9896 867.203 91.125C866.953 91.2708 866.693 91.3698 866.422 91.4219C866.307 91.4427 866.198 91.4583 866.094 91.4688C866 91.4792 865.901 91.4844 865.797 91.4844C865.349 91.4844 864.958 91.3906 864.625 91.2031C864.292 91.026 864.104 90.75 864.062 90.375V90.2188C864.062 89.9896 864.083 89.6667 864.125 89.25C864.177 88.8229 864.234 88.375 864.297 87.9062C864.37 87.4271 864.443 86.9583 864.516 86.5C864.589 86.0312 864.651 85.6354 864.703 85.3125L863.719 84.875L861.141 91.3125L859.781 91.1094C859.844 90.9635 859.964 90.6979 860.141 90.3125C860.318 89.9271 860.516 89.5 860.734 89.0312C860.953 88.5625 861.167 88.099 861.375 87.6406C861.594 87.1719 861.771 86.7865 861.906 86.4844C862.021 86.2031 862.146 85.8594 862.281 85.4531C862.417 85.0469 862.542 84.6458 862.656 84.25C862.771 83.8438 862.865 83.4792 862.938 83.1562C863.01 82.8333 863.047 82.6146 863.047 82.5L864.422 82.8438C864.391 82.8854 864.37 82.9323 864.359 82.9844C864.349 83.026 864.344 83.0729 864.344 83.125C864.344 83.25 864.365 83.375 864.406 83.5C864.458 83.6146 864.516 83.724 864.578 83.8281C864.651 83.9219 864.729 84 864.812 84.0625C864.906 84.125 864.995 84.1562 865.078 84.1562C865.141 84.1562 865.198 84.1302 865.25 84.0781C865.312 84.0156 865.354 83.9115 865.375 83.7656C865.385 83.7031 865.427 83.6458 865.5 83.5938C865.583 83.5312 865.672 83.4792 865.766 83.4375C865.87 83.3854 865.974 83.349 866.078 83.3281C866.193 83.2969 866.286 83.2812 866.359 83.2812C866.464 83.2812 866.521 83.3021 866.531 83.3438C866.583 83.4167 866.63 83.5052 866.672 83.6094C866.724 83.7031 866.75 83.8073 866.75 83.9219C866.75 84.0365 866.724 84.1458 866.672 84.25C866.63 84.3542 866.552 84.4479 866.438 84.5312C866.271 84.6562 866.125 84.8594 866 85.1406C865.875 85.4219 865.766 85.7448 865.672 86.1094C865.589 86.474 865.526 86.8646 865.484 87.2812C865.443 87.6979 865.422 88.1094 865.422 88.5156C865.422 88.9115 865.443 89.2917 865.484 89.6562C865.526 90.0208 865.594 90.3229 865.688 90.5625C866.01 90.5 866.292 90.4219 866.531 90.3281C866.771 90.2344 866.984 90.1146 867.172 89.9688C867.37 89.8125 867.547 89.6302 867.703 89.4219C867.87 89.2031 868.031 88.9375 868.188 88.625L868.891 89.3594ZM871.594 84.5469C871.51 84.5469 871.396 84.6094 871.25 84.7344C871.115 84.8594 870.964 85.026 870.797 85.2344C870.641 85.4323 870.474 85.6667 870.297 85.9375C870.12 86.2083 869.964 86.4896 869.828 86.7812C869.776 86.8854 869.729 86.9896 869.688 87.0938C869.646 87.1979 869.604 87.3073 869.562 87.4219C869.833 87.3698 870.115 87.3073 870.406 87.2344C870.708 87.151 870.932 87.0625 871.078 86.9688C871.151 86.9167 871.229 86.8125 871.312 86.6562C871.406 86.5 871.49 86.3281 871.562 86.1406C871.646 85.9427 871.714 85.7396 871.766 85.5312C871.818 85.3125 871.844 85.125 871.844 84.9688C871.844 84.8542 871.823 84.7552 871.781 84.6719C871.74 84.5885 871.677 84.5469 871.594 84.5469ZM875.062 89C874.875 89.1354 874.656 89.2917 874.406 89.4688C874.156 89.6354 873.891 89.8125 873.609 90C873.339 90.1771 873.062 90.3542 872.781 90.5312C872.51 90.7083 872.255 90.8646 872.016 91C871.786 91.1458 871.589 91.2604 871.422 91.3438C871.255 91.4375 871.146 91.4896 871.094 91.5C871.062 91.5104 871.021 91.5156 870.969 91.5156C870.792 91.5156 870.557 91.4688 870.266 91.375C869.984 91.2917 869.698 91.1823 869.406 91.0469C869.115 90.9219 868.844 90.7865 868.594 90.6406C868.354 90.4844 868.193 90.3385 868.109 90.2031C868.047 90.0885 868 89.9427 867.969 89.7656C867.948 89.5781 867.938 89.3646 867.938 89.125C867.938 88.9167 867.948 88.6979 867.969 88.4688C867.99 88.2292 868.016 88.0052 868.047 87.7969C868.089 87.5781 868.13 87.3802 868.172 87.2031C868.224 87.026 868.281 86.8854 868.344 86.7812C868.417 86.6354 868.531 86.4531 868.688 86.2344C868.844 86.0052 869.021 85.7708 869.219 85.5312C869.427 85.2812 869.646 85.0312 869.875 84.7812C870.104 84.5312 870.333 84.3073 870.562 84.1094C870.792 83.901 871.01 83.7344 871.219 83.6094C871.438 83.474 871.63 83.401 871.797 83.3906C871.807 83.3906 871.812 83.3906 871.812 83.3906C871.823 83.3802 871.839 83.375 871.859 83.375C872.026 83.375 872.193 83.4479 872.359 83.5938C872.526 83.7396 872.672 83.9167 872.797 84.125C872.922 84.3333 873.021 84.5573 873.094 84.7969C873.177 85.026 873.219 85.2344 873.219 85.4219C873.219 85.5156 873.214 85.5833 873.203 85.625C873.161 85.7917 873.068 86 872.922 86.25C872.776 86.4896 872.615 86.7292 872.438 86.9688C872.26 87.1979 872.089 87.4062 871.922 87.5938C871.755 87.7708 871.63 87.8906 871.547 87.9531C871.484 88.0052 871.37 88.0573 871.203 88.1094C871.047 88.151 870.859 88.1979 870.641 88.25C870.432 88.2917 870.208 88.3333 869.969 88.375C869.729 88.4167 869.495 88.4531 869.266 88.4844C869.224 88.6927 869.193 88.875 869.172 89.0312C869.151 89.1771 869.135 89.2812 869.125 89.3438C869.146 89.4583 869.208 89.5729 869.312 89.6875C869.417 89.8021 869.547 89.9062 869.703 90C869.859 90.0938 870.031 90.1719 870.219 90.2344C870.417 90.2865 870.615 90.3125 870.812 90.3125C870.854 90.3125 870.896 90.3125 870.938 90.3125C870.99 90.3125 871.036 90.3073 871.078 90.2969C871.266 90.2448 871.516 90.125 871.828 89.9375C872.141 89.75 872.464 89.5365 872.797 89.2969C873.141 89.0573 873.464 88.8125 873.766 88.5625C874.078 88.3021 874.318 88.0729 874.484 87.875L875.062 89ZM875.812 90.2031C875.938 90.2031 876.094 90.1406 876.281 90.0156C876.469 89.8906 876.672 89.7292 876.891 89.5312C877.12 89.3229 877.354 89.0938 877.594 88.8438C877.833 88.5833 878.062 88.3229 878.281 88.0625C878.365 87.7083 878.464 87.2812 878.578 86.7812C878.693 86.2708 878.823 85.724 878.969 85.1406C878.865 84.9115 878.729 84.7188 878.562 84.5625C878.396 84.4062 878.25 84.3281 878.125 84.3281C878.073 84.3281 878.036 84.3385 878.016 84.3594C877.974 84.3906 877.88 84.4896 877.734 84.6562C877.589 84.8125 877.422 85.0104 877.234 85.25C877.047 85.4896 876.844 85.7552 876.625 86.0469C876.417 86.3385 876.219 86.625 876.031 86.9062C875.854 87.1875 875.698 87.4531 875.562 87.7031C875.427 87.9427 875.349 88.1354 875.328 88.2812C875.307 88.4271 875.286 88.5781 875.266 88.7344C875.245 88.8802 875.234 89.026 875.234 89.1719C875.234 89.4427 875.271 89.6771 875.344 89.875C875.427 90.0729 875.573 90.1823 875.781 90.2031H875.812ZM882.094 80.0312C881.917 80.2292 881.729 80.5208 881.531 80.9062C881.333 81.2917 881.135 81.7396 880.938 82.25C880.75 82.7604 880.562 83.3177 880.375 83.9219C880.198 84.5156 880.036 85.1198 879.891 85.7344C880.13 85.2865 880.38 84.7969 880.641 84.2656C880.901 83.7344 881.135 83.2083 881.344 82.6875C881.552 82.1667 881.724 81.6719 881.859 81.2031C882.005 80.7344 882.083 80.3438 882.094 80.0312ZM879.438 88.2812C879.417 88.4688 879.401 88.6562 879.391 88.8438C879.38 89.0208 879.375 89.1979 879.375 89.375C879.375 89.8542 879.422 90.2552 879.516 90.5781C879.682 90.5156 879.885 90.4271 880.125 90.3125C880.375 90.1979 880.635 90.0677 880.906 89.9219C881.177 89.776 881.453 89.6198 881.734 89.4531C882.016 89.276 882.281 89.1042 882.531 88.9375C882.781 88.7708 883 88.6094 883.188 88.4531C883.385 88.2865 883.536 88.1406 883.641 88.0156L883.812 89.1406C883.698 89.2969 883.49 89.5156 883.188 89.7969C882.885 90.0781 882.557 90.3594 882.203 90.6406C881.849 90.9115 881.495 91.1458 881.141 91.3438C880.797 91.5521 880.521 91.6562 880.312 91.6562H880.281C880.073 91.6562 879.849 91.6302 879.609 91.5781C879.37 91.526 879.146 91.4531 878.938 91.3594C878.729 91.276 878.552 91.1719 878.406 91.0469C878.271 90.9219 878.203 90.7865 878.203 90.6406C878.193 90.5156 878.188 90.3594 878.188 90.1719C878.188 89.9844 878.182 89.8021 878.172 89.625C877.932 89.8646 877.688 90.0938 877.438 90.3125C877.188 90.5208 876.943 90.7031 876.703 90.8594C876.474 91.0156 876.25 91.1406 876.031 91.2344C875.823 91.3281 875.63 91.375 875.453 91.375C875.37 91.375 875.312 91.3698 875.281 91.3594C875.094 91.3177 874.922 91.224 874.766 91.0781C874.609 90.9427 874.474 90.7708 874.359 90.5625C874.255 90.3542 874.172 90.125 874.109 89.875C874.047 89.6146 874.016 89.349 874.016 89.0781C874.016 88.7031 874.078 88.349 874.203 88.0156C874.286 87.7969 874.411 87.5312 874.578 87.2188C874.745 86.9062 874.932 86.5833 875.141 86.25C875.359 85.9062 875.589 85.5625 875.828 85.2188C876.078 84.8646 876.328 84.5521 876.578 84.2812C876.828 84 877.068 83.7656 877.297 83.5781C877.536 83.3906 877.755 83.2812 877.953 83.25C878.005 83.2396 878.052 83.2344 878.094 83.2344C878.135 83.2344 878.177 83.2344 878.219 83.2344C878.49 83.2344 878.714 83.2865 878.891 83.3906C879.078 83.4948 879.229 83.6094 879.344 83.7344C879.479 83.224 879.62 82.724 879.766 82.2344C879.922 81.7344 880.068 81.2812 880.203 80.875C880.349 80.4583 880.484 80.1042 880.609 79.8125C880.745 79.5104 880.87 79.2969 880.984 79.1719C881.13 79.026 881.281 78.9271 881.438 78.875C881.594 78.8125 881.755 78.7812 881.922 78.7812C882.099 78.7812 882.271 78.8177 882.438 78.8906C882.604 78.9531 882.75 79.0365 882.875 79.1406C883.01 79.2344 883.115 79.3438 883.188 79.4688C883.271 79.5938 883.312 79.7135 883.312 79.8281V79.875C883.302 79.9896 883.229 80.2396 883.094 80.625C882.958 81.0104 882.781 81.474 882.562 82.0156C882.354 82.5469 882.115 83.125 881.844 83.75C881.573 84.375 881.292 84.9792 881 85.5625C880.719 86.1458 880.443 86.6823 880.172 87.1719C879.901 87.651 879.656 88.0208 879.438 88.2812ZM894.188 84.8906C894.208 84.8281 894.229 84.724 894.25 84.5781C894.281 84.4219 894.297 84.2865 894.297 84.1719C894.297 84.1198 894.292 84.0729 894.281 84.0312C894.271 83.9792 894.25 83.9531 894.219 83.9531C894.188 83.9531 894.141 83.9844 894.078 84.0469C894.047 84.0677 894.021 84.099 894 84.1406C893.958 84.224 893.938 84.3073 893.938 84.3906C893.938 84.4635 893.953 84.5417 893.984 84.625C894.026 84.7083 894.094 84.7969 894.188 84.8906ZM892.484 79.7344C892.339 79.9219 892.188 80.1771 892.031 80.5C891.885 80.8229 891.745 81.1562 891.609 81.5C891.484 81.8438 891.38 82.1771 891.297 82.5C891.214 82.8125 891.167 83.0677 891.156 83.2656C891.24 83.1406 891.344 82.9219 891.469 82.6094C891.594 82.2969 891.724 81.9583 891.859 81.5938C891.995 81.2292 892.12 80.875 892.234 80.5312C892.349 80.1875 892.432 79.9219 892.484 79.7344ZM898.219 86.0938C897.844 86.3646 897.464 86.5938 897.078 86.7812C896.703 86.9688 896.271 87.0625 895.781 87.0625C895.698 87.0625 895.635 87.0573 895.594 87.0469C895.333 87.026 895.057 86.9531 894.766 86.8281C894.557 87.2552 894.297 87.7448 893.984 88.2969C893.682 88.8385 893.359 89.3542 893.016 89.8438C892.682 90.3229 892.339 90.7292 891.984 91.0625C891.641 91.4062 891.323 91.5885 891.031 91.6094H890.891C890.547 91.6094 890.224 91.5312 889.922 91.375C889.63 91.2188 889.375 91.0156 889.156 90.7656C888.938 90.5156 888.76 90.2344 888.625 89.9219C888.5 89.599 888.438 89.2708 888.438 88.9375C888.438 88.8854 888.438 88.8385 888.438 88.7969C888.438 88.7448 888.448 88.6927 888.469 88.6406C888.5 88.401 888.578 88.0104 888.703 87.4688C888.839 86.9271 889 86.3177 889.188 85.6406C889.375 84.9635 889.583 84.2604 889.812 83.5312C890.042 82.7917 890.271 82.1042 890.5 81.4688C890.729 80.8333 890.948 80.2917 891.156 79.8438C891.365 79.3958 891.542 79.1198 891.688 79.0156C891.792 78.9427 891.891 78.8958 891.984 78.875C892.089 78.8438 892.193 78.8281 892.297 78.8281C892.484 78.8281 892.672 78.8698 892.859 78.9531C893.047 79.0365 893.214 79.1406 893.359 79.2656C893.505 79.3906 893.625 79.526 893.719 79.6719C893.812 79.8073 893.859 79.9323 893.859 80.0469C893.859 80.1406 893.802 80.3333 893.688 80.625C893.583 80.9167 893.438 81.2604 893.25 81.6562C893.062 82.0417 892.849 82.4583 892.609 82.9062C892.37 83.3542 892.12 83.7865 891.859 84.2031C891.609 84.6094 891.359 84.9792 891.109 85.3125C890.859 85.6458 890.635 85.8854 890.438 86.0312C890.312 86.4583 890.198 86.9583 890.094 87.5312C889.99 88.0938 889.938 88.6354 889.938 89.1562C889.938 89.5104 889.969 89.8281 890.031 90.1094C890.094 90.3906 890.203 90.6146 890.359 90.7812C890.682 90.6146 891.01 90.3542 891.344 90C891.677 89.6354 891.995 89.2292 892.297 88.7812C892.599 88.3333 892.87 87.875 893.109 87.4062C893.359 86.9375 893.562 86.5104 893.719 86.125C893.479 85.9167 893.281 85.6979 893.125 85.4688C892.979 85.2292 892.906 85.0104 892.906 84.8125V84.7812C892.906 84.5938 892.964 84.4062 893.078 84.2188C893.203 84.0208 893.349 83.8438 893.516 83.6875C893.693 83.5312 893.88 83.4062 894.078 83.3125C894.276 83.2083 894.453 83.1562 894.609 83.1562C894.714 83.1562 894.792 83.1771 894.844 83.2188C895.031 83.3125 895.172 83.5156 895.266 83.8281C895.359 84.1302 895.406 84.4479 895.406 84.7812C895.406 84.9479 895.396 85.1146 895.375 85.2812C895.354 85.4375 895.318 85.5833 895.266 85.7188C895.245 85.7604 895.219 85.8177 895.188 85.8906C895.167 85.9635 895.13 86.0469 895.078 86.1406C895.12 86.151 895.172 86.1562 895.234 86.1562C895.443 86.1562 895.677 86.1198 895.938 86.0469C896.208 85.974 896.479 85.8854 896.75 85.7812C897.031 85.6667 897.292 85.5469 897.531 85.4219C897.781 85.2969 897.99 85.1771 898.156 85.0625L898.219 86.0938ZM898.141 95.75C898.266 95.5833 898.396 95.3594 898.531 95.0781C898.667 94.8073 898.802 94.5104 898.938 94.1875C899.083 93.8646 899.219 93.5312 899.344 93.1875C899.469 92.8438 899.589 92.5156 899.703 92.2031C899.609 92.3073 899.484 92.5052 899.328 92.7969C899.172 93.0885 899.01 93.4115 898.844 93.7656C898.688 94.1198 898.542 94.474 898.406 94.8281C898.271 95.1927 898.182 95.5 898.141 95.75ZM898.234 83.6719C898.339 83.7344 898.521 83.7656 898.781 83.7656C898.99 83.7656 899.188 83.7552 899.375 83.7344C899.573 83.7031 899.688 83.6823 899.719 83.6719C899.375 84.474 899.068 85.2448 898.797 85.9844C898.682 86.2969 898.568 86.625 898.453 86.9688C898.339 87.3021 898.24 87.6302 898.156 87.9531C898.073 88.276 898.005 88.5885 897.953 88.8906C897.901 89.1823 897.875 89.4427 897.875 89.6719V89.75C898.052 89.8021 898.224 89.8281 898.391 89.8281C898.568 89.8281 898.745 89.7917 898.922 89.7188C899.109 89.6354 899.292 89.4896 899.469 89.2812C899.562 89.1667 899.688 89 899.844 88.7812C900 88.5625 900.172 88.3125 900.359 88.0312C900.547 87.75 900.74 87.4479 900.938 87.125C901.146 86.7917 901.339 86.4635 901.516 86.1406C901.672 85.8802 901.812 85.6042 901.938 85.3125C902.052 85.0729 902.161 84.7969 902.266 84.4844C902.37 84.1719 902.443 83.8594 902.484 83.5469L903.766 83.7344C903.578 84.3073 903.38 84.8906 903.172 85.4844C902.974 86.0781 902.786 86.625 902.609 87.125C902.411 87.6979 902.214 88.2604 902.016 88.8125C902.422 88.6146 902.823 88.4219 903.219 88.2344C903.552 88.0781 903.901 87.9271 904.266 87.7812C904.63 87.625 904.948 87.5052 905.219 87.4219L904.969 88.625C904.74 88.75 904.464 88.8906 904.141 89.0469C903.828 89.1927 903.505 89.3542 903.172 89.5312C902.839 89.6979 902.516 89.875 902.203 90.0625C901.901 90.2396 901.641 90.4115 901.422 90.5781C901.172 91.3073 900.927 92.0208 900.688 92.7188C900.458 93.4271 900.24 94.0677 900.031 94.6406C899.833 95.2135 899.656 95.7031 899.5 96.1094C899.354 96.5156 899.245 96.7865 899.172 96.9219C899.036 97.1927 898.844 97.3854 898.594 97.5C898.354 97.6146 898.104 97.6719 897.844 97.6719C897.531 97.6719 897.255 97.599 897.016 97.4531C896.776 97.3073 896.656 97.1042 896.656 96.8438C896.656 96.8125 896.661 96.7917 896.672 96.7812C896.693 96.5521 896.755 96.2604 896.859 95.9062C896.974 95.5625 897.125 95.1823 897.312 94.7656C897.5 94.349 897.714 93.9115 897.953 93.4531C898.203 92.9948 898.474 92.5469 898.766 92.1094C899.057 91.6719 899.359 91.2604 899.672 90.875C899.995 90.4896 900.318 90.151 900.641 89.8594C900.672 89.8281 900.703 89.8021 900.734 89.7812C900.766 89.75 900.797 89.7188 900.828 89.6875L901.312 88.2969C901.146 88.6094 900.969 88.8958 900.781 89.1562C900.604 89.4062 900.427 89.6354 900.25 89.8438C900.083 90.0521 899.922 90.2396 899.766 90.4062C899.62 90.5625 899.5 90.6927 899.406 90.7969C899.323 90.8698 899.188 90.9271 899 90.9688C898.812 91 898.594 91.0156 898.344 91.0156C898.115 91.0156 897.88 91 897.641 90.9688C897.401 90.9271 897.177 90.8698 896.969 90.7969C896.771 90.7135 896.609 90.6094 896.484 90.4844C896.359 90.349 896.297 90.1927 896.297 90.0156C896.297 89.849 896.339 89.6094 896.422 89.2969C896.505 88.974 896.609 88.6198 896.734 88.2344C896.859 87.8385 896.995 87.4219 897.141 86.9844C897.297 86.5469 897.443 86.1198 897.578 85.7031C897.724 85.2865 897.854 84.901 897.969 84.5469C898.083 84.1927 898.172 83.901 898.234 83.6719Z"
              fill="white"/>
        <path d="M913.938 93H909.673V79.1818H914.126C915.467 79.1818 916.614 79.4585 917.567 80.0117C918.521 80.5605 919.252 81.3499 919.76 82.38C920.269 83.4055 920.523 84.6335 920.523 86.0639C920.523 87.5033 920.266 88.7425 919.754 89.7816C919.241 90.8162 918.494 91.6123 917.513 92.1701C916.533 92.7234 915.341 93 913.938 93ZM911.347 91.5156H913.83C914.972 91.5156 915.919 91.2952 916.67 90.8544C917.421 90.4136 917.981 89.7861 918.35 88.9719C918.719 88.1578 918.903 87.1884 918.903 86.0639C918.903 84.9484 918.721 83.988 918.357 83.1829C917.993 82.3732 917.448 81.7525 916.724 81.3207C916 80.8844 915.098 80.6662 914.018 80.6662H911.347V91.5156ZM927.324 93.2159C926.388 93.2159 925.567 92.9933 924.861 92.5479C924.159 92.1026 923.611 91.4796 923.215 90.679C922.824 89.8783 922.628 88.9427 922.628 87.8722C922.628 86.7926 922.824 85.8503 923.215 85.0451C923.611 84.2399 924.159 83.6147 924.861 83.1694C925.567 82.7241 926.388 82.5014 927.324 82.5014C928.259 82.5014 929.078 82.7241 929.78 83.1694C930.486 83.6147 931.035 84.2399 931.426 85.0451C931.822 85.8503 932.02 86.7926 932.02 87.8722C932.02 88.9427 931.822 89.8783 931.426 90.679C931.035 91.4796 930.486 92.1026 929.78 92.5479C929.078 92.9933 928.259 93.2159 927.324 93.2159ZM927.324 91.7855C928.035 91.7855 928.619 91.6033 929.078 91.239C929.537 90.8746 929.877 90.3956 930.097 89.8018C930.317 89.2081 930.428 88.5649 930.428 87.8722C930.428 87.1795 930.317 86.534 930.097 85.9357C929.877 85.3375 929.537 84.8539 929.078 84.4851C928.619 84.1162 928.035 83.9318 927.324 83.9318C926.613 83.9318 926.028 84.1162 925.57 84.4851C925.111 84.8539 924.771 85.3375 924.551 85.9357C924.33 86.534 924.22 87.1795 924.22 87.8722C924.22 88.5649 924.33 89.2081 924.551 89.8018C924.771 90.3956 925.111 90.8746 925.57 91.239C926.028 91.6033 926.613 91.7855 927.324 91.7855ZM938.958 82.6364V83.9858H933.587V82.6364H938.958ZM935.152 80.1534H936.745V90.0312C936.745 90.4811 936.81 90.8184 936.94 91.0433C937.075 91.2637 937.246 91.4122 937.453 91.4886C937.664 91.5606 937.887 91.5966 938.121 91.5966C938.296 91.5966 938.44 91.5876 938.553 91.5696C938.665 91.5471 938.755 91.5291 938.823 91.5156L939.147 92.946C939.039 92.9865 938.888 93.027 938.695 93.0675C938.501 93.1125 938.256 93.1349 937.959 93.1349C937.509 93.1349 937.068 93.0382 936.637 92.8448C936.209 92.6514 935.854 92.3568 935.571 91.9609C935.292 91.5651 935.152 91.0658 935.152 90.4631V80.1534ZM941.791 93V79.1818H946.622C947.585 79.1818 948.379 79.3482 949.004 79.6811C949.629 80.0095 950.095 80.4525 950.401 81.0103C950.707 81.5636 950.86 82.1776 950.86 82.8523C950.86 83.446 950.754 83.9363 950.543 84.3232C950.336 84.71 950.061 85.0159 949.719 85.2408C949.382 85.4657 949.015 85.6321 948.62 85.7401V85.875C949.042 85.902 949.467 86.0504 949.895 86.3203C950.322 86.5902 950.68 86.977 950.968 87.4808C951.255 87.9846 951.399 88.6009 951.399 89.3295C951.399 90.0223 951.242 90.6452 950.927 91.1985C950.612 91.7518 950.115 92.1903 949.436 92.5142C948.757 92.8381 947.873 93 946.784 93H941.791ZM943.465 91.5156H946.784C947.877 91.5156 948.653 91.3042 949.112 90.8814C949.575 90.4541 949.807 89.9368 949.807 89.3295C949.807 88.8617 949.688 88.4299 949.449 88.0341C949.211 87.6338 948.871 87.3144 948.431 87.076C947.99 86.8331 947.468 86.7116 946.865 86.7116H943.465V91.5156ZM943.465 85.2543H946.568C947.072 85.2543 947.527 85.1553 947.931 84.9574C948.341 84.7595 948.665 84.4806 948.903 84.1207C949.146 83.7609 949.267 83.3381 949.267 82.8523C949.267 82.245 949.056 81.73 948.633 81.3072C948.21 80.8799 947.54 80.6662 946.622 80.6662H943.465V85.2543ZM958.278 93.2159C957.28 93.2159 956.418 92.9955 955.694 92.5547C954.974 92.1094 954.419 91.4886 954.027 90.6925C953.641 89.8918 953.447 88.9607 953.447 87.8991C953.447 86.8376 953.641 85.902 954.027 85.0923C954.419 84.2782 954.963 83.6439 955.66 83.1896C956.362 82.7308 957.181 82.5014 958.116 82.5014C958.656 82.5014 959.189 82.5914 959.715 82.7713C960.242 82.9512 960.721 83.2436 961.152 83.6484C961.584 84.0488 961.928 84.5795 962.185 85.2408C962.441 85.902 962.569 86.7161 962.569 87.6832V88.358H954.581V86.9815H960.95C960.95 86.3968 960.833 85.875 960.599 85.4162C960.37 84.9574 960.041 84.5953 959.614 84.3299C959.191 84.0645 958.692 83.9318 958.116 83.9318C957.482 83.9318 956.933 84.0893 956.47 84.4041C956.011 84.7145 955.658 85.1193 955.411 85.6186C955.163 86.1179 955.04 86.6532 955.04 87.2244V88.142C955.04 88.9247 955.174 89.5882 955.444 90.1325C955.719 90.6722 956.099 91.0838 956.585 91.3672C957.07 91.6461 957.635 91.7855 958.278 91.7855C958.696 91.7855 959.074 91.727 959.412 91.6101C959.754 91.4886 960.048 91.3087 960.296 91.0703C960.543 90.8274 960.734 90.526 960.869 90.1662L962.407 90.598C962.245 91.1198 961.973 91.5786 961.591 91.9744C961.209 92.3658 960.736 92.6716 960.174 92.892C959.612 93.108 958.98 93.2159 958.278 93.2159ZM968.041 93.2429C967.385 93.2429 966.789 93.1192 966.253 92.8718C965.718 92.6199 965.293 92.2578 964.978 91.7855C964.663 91.3087 964.506 90.733 964.506 90.0582C964.506 89.4645 964.623 88.9832 964.857 88.6143C965.091 88.241 965.403 87.9486 965.794 87.7372C966.186 87.5258 966.618 87.3684 967.09 87.2649C967.567 87.157 968.046 87.0715 968.527 87.0085C969.157 86.9276 969.667 86.8668 970.059 86.8263C970.455 86.7814 970.742 86.7071 970.922 86.6037C971.107 86.5002 971.199 86.3203 971.199 86.0639V86.0099C971.199 85.3442 971.017 84.8269 970.652 84.4581C970.293 84.0893 969.746 83.9048 969.013 83.9048C968.253 83.9048 967.657 84.0713 967.225 84.4041C966.793 84.737 966.489 85.0923 966.314 85.4702L964.803 84.9304C965.073 84.3007 965.432 83.8104 965.882 83.4595C966.336 83.1042 966.831 82.8568 967.367 82.7173C967.906 82.5734 968.437 82.5014 968.959 82.5014C969.292 82.5014 969.674 82.5419 970.106 82.6229C970.542 82.6993 970.963 82.859 971.368 83.1019C971.777 83.3448 972.117 83.7114 972.386 84.2017C972.656 84.692 972.791 85.3487 972.791 86.1719V93H971.199V91.5966H971.118C971.01 91.8215 970.83 92.0621 970.578 92.3185C970.326 92.5749 969.991 92.7931 969.573 92.973C969.155 93.1529 968.644 93.2429 968.041 93.2429ZM968.284 91.8125C968.914 91.8125 969.445 91.6888 969.877 91.4414C970.313 91.194 970.641 90.8746 970.862 90.4833C971.086 90.092 971.199 89.6804 971.199 89.2486V87.7912C971.131 87.8722 970.983 87.9464 970.754 88.0138C970.529 88.0768 970.268 88.133 969.971 88.1825C969.679 88.2275 969.393 88.268 969.114 88.304C968.84 88.3355 968.617 88.3625 968.446 88.3849C968.032 88.4389 967.645 88.5266 967.286 88.6481C966.93 88.765 966.642 88.9427 966.422 89.1811C966.206 89.415 966.098 89.7344 966.098 90.1392C966.098 90.6925 966.303 91.1108 966.712 91.3942C967.126 91.6731 967.65 91.8125 968.284 91.8125ZM977.29 86.7656V93H975.698V82.6364H977.236V84.2557H977.371C977.614 83.7294 977.983 83.3066 978.477 82.9872C978.972 82.6634 979.611 82.5014 980.394 82.5014C981.095 82.5014 981.709 82.6454 982.236 82.9332C982.762 83.2166 983.171 83.6484 983.464 84.2287C983.756 84.8045 983.902 85.5331 983.902 86.4148V93H982.31V86.5227C982.31 85.7086 982.098 85.0743 981.676 84.62C981.253 84.1612 980.673 83.9318 979.935 83.9318C979.427 83.9318 978.972 84.042 978.572 84.2624C978.176 84.4828 977.863 84.8045 977.634 85.2273C977.405 85.6501 977.29 86.1629 977.29 86.7656ZM994.153 84.9574L992.722 85.3622C992.632 85.1238 992.5 84.8922 992.324 84.6673C992.153 84.4379 991.919 84.2489 991.623 84.1005C991.326 83.9521 990.946 83.8778 990.482 83.8778C989.848 83.8778 989.32 84.024 988.897 84.3164C988.478 84.6043 988.269 84.9709 988.269 85.4162C988.269 85.812 988.413 86.1246 988.701 86.354C988.989 86.5835 989.439 86.7746 990.051 86.9276L991.589 87.3054C992.515 87.5303 993.206 87.8744 993.66 88.3377C994.115 88.7965 994.342 89.388 994.342 90.1122C994.342 90.706 994.171 91.2367 993.829 91.7045C993.492 92.1723 993.019 92.5412 992.412 92.8111C991.805 93.081 991.099 93.2159 990.293 93.2159C989.236 93.2159 988.361 92.9865 987.669 92.5277C986.976 92.0689 986.537 91.3987 986.353 90.517L987.864 90.1392C988.008 90.697 988.281 91.1153 988.681 91.3942C989.086 91.6731 989.614 91.8125 990.266 91.8125C991.009 91.8125 991.598 91.6551 992.034 91.3402C992.475 91.0208 992.695 90.6385 992.695 90.1932C992.695 89.8333 992.569 89.532 992.318 89.2891C992.066 89.0417 991.679 88.8572 991.157 88.7358L989.43 88.331C988.481 88.1061 987.783 87.7575 987.338 87.2852C986.897 86.8084 986.677 86.2124 986.677 85.4972C986.677 84.9124 986.841 84.3951 987.169 83.9453C987.502 83.4955 987.954 83.1424 988.526 82.886C989.101 82.6296 989.754 82.5014 990.482 82.5014C991.508 82.5014 992.313 82.7263 992.898 83.1761C993.487 83.6259 993.905 84.2197 994.153 84.9574Z"
              fill="white"/>
    </g>
    <defs>
        <filter id="filter0_d_1_2" x="140.792" y="4.744" width="221" height="99.792" filterUnits="userSpaceOnUse"
                color-interpolation-filters="sRGB">
            <feFlood flood-opacity="0" result="BackgroundImageFix"/>
            <feColorMatrix in="SourceAlpha" type="matrix" values="0 0 0 0 0 0 0 0 0 0 0 0 0 0 0 0 0 0 127 0"
                           result="hardAlpha"/>
            <feOffset dy="4"/>
            <feGaussianBlur stdDeviation="2"/>
            <feComposite in2="hardAlpha" operator="out"/>
            <feColorMatrix type="matrix" values="0 0 0 0 0 0 0 0 0 0 0 0 0 0 0 0 0 0 0.25 0"/>
            <feBlend mode="normal" in2="BackgroundImageFix" result="effect1_dropShadow_1_2"/>
            <feBlend mode="normal" in="SourceGraphic" in2="effect1_dropShadow_1_2" result="shape"/>
        </filter>
        <filter id="filter1_d_1_2" x="372.16" y="4.12" width="450.304" height="37.632" filterUnits="userSpaceOnUse"
                color-interpolation-filters="sRGB">
            <feFlood flood-opacity="0" result="BackgroundImageFix"/>
            <feColorMatrix in="SourceAlpha" type="matrix" values="0 0 0 0 0 0 0 0 0 0 0 0 0 0 0 0 0 0 127 0"
                           result="hardAlpha"/>
            <feOffset dy="4"/>
            <feGaussianBlur stdDeviation="2"/>
            <feComposite in2="hardAlpha" operator="out"/>
            <feColorMatrix type="matrix" values="0 0 0 0 0 0 0 0 0 0 0 0 0 0 0 0 0 0 0.25 0"/>
            <feBlend mode="normal" in2="BackgroundImageFix" result="effect1_dropShadow_1_2"/>
            <feBlend mode="normal" in="SourceGraphic" in2="effect1_dropShadow_1_2" result="shape"/>
        </filter>
        <filter id="filter2_d_1_2" x="368" y="65" width="212" height="38" filterUnits="userSpaceOnUse"
                color-interpolation-filters="sRGB">
            <feFlood flood-opacity="0" result="BackgroundImageFix"/>
            <feColorMatrix in="SourceAlpha" type="matrix" values="0 0 0 0 0 0 0 0 0 0 0 0 0 0 0 0 0 0 127 0"
                           result="hardAlpha"/>
            <feOffset dy="4"/>
            <feGaussianBlur stdDeviation="2"/>
            <feComposite in2="hardAlpha" operator="out"/>
            <feColorMatrix type="matrix" values="0 0 0 0 0 0 0 0 0 0 0 0 0 0 0 0 0 0 0.25 0"/>
            <feBlend mode="normal" in2="BackgroundImageFix" result="effect1_dropShadow_1_2"/>
            <feBlend mode="normal" in="SourceGraphic" in2="effect1_dropShadow_1_2" result="shape"/>
        </filter>
        <linearGradient id="paint0_linear_1_2" x1="76.5065" y1="59.8257" x2="62.7408" y2="93.4893"
                        gradientUnits="userSpaceOnUse">
            <stop stop-color="#9B3232"/>
            <stop offset="1" stop-color="#B32458"/>
        </linearGradient>
        <linearGradient id="paint1_linear_1_2" x1="108.77" y1="71.9289" x2="74.3595" y2="25.5621"
                        gradientUnits="userSpaceOnUse">
            <stop offset="0.151042" stop-color="#9A298F"/>
            <stop offset="1" stop-color="#294F9A"/>
        </linearGradient>
        <linearGradient id="paint2_linear_1_2" x1="90.1541" y1="24.1273" x2="61.2734" y2="61.207"
                        gradientUnits="userSpaceOnUse">
            <stop stop-color="#FF2424"/>
            <stop offset="0.0001" stop-color="#3AC658"/>
            <stop offset="0.546875" stop-color="#3E83C2" stop-opacity="0.946732"/>
            <stop offset="0.9999" stop-color="#43BE63" stop-opacity="0.899732"/>
            <stop offset="1" stop-color="#7D8DA4" stop-opacity="0.259086"/>
        </linearGradient>
        <linearGradient id="paint3_linear_1_2" x1="70.1308" y1="68.7537" x2="50.0816" y2="26.2446"
                        gradientUnits="userSpaceOnUse">
            <stop stop-color="#FF2424"/>
            <stop offset="0.0001" stop-color="#A1C63A"/>
            <stop offset="0.546875" stop-color="#CA8723" stop-opacity="0.946732"/>
            <stop offset="0.9999" stop-color="#F27F14" stop-opacity="0.899732"/>
            <stop offset="1" stop-color="#7D8DA4" stop-opacity="0.259086"/>
        </linearGradient>
        <linearGradient id="paint4_linear_1_2" x1="104.865" y1="48.9411" x2="94.3577" y2="94.7515"
                        gradientUnits="userSpaceOnUse">
            <stop offset="0.4375" stop-color="#2EB192" stop-opacity="0.946732"/>
            <stop offset="0.677083" stop-color="#355BBB" stop-opacity="0.946732"/>
        </linearGradient>
        <clipPath id="clip0_1_2">
            <rect width="1000" height="100" fill="white"/>
        </clipPath>
    </defs>
</svg>
