<svg width="1000" height="100" viewBox="0 0 1000 100" fill="none" xmlns="http://www.w3.org/2000/svg">
    <rect width="1000" height="100" fill="black"/>
    <path d="M131.805 7.6875H134.148V21.9375H141.133V24H131.805V7.6875ZM143.055 17.9297C143.055 16.0312 143.66 14.4922 144.871 13.3125C146.004 12.2109 147.406 11.6602 149.078 11.6602C150.719 11.6602 152.09 12.2109 153.191 13.3125C154.363 14.4844 154.949 16.0234 154.949 17.9297C154.949 19.8281 154.359 21.3594 153.18 22.5234C152.062 23.6328 150.691 24.1875 149.066 24.1875C147.418 24.1875 146.02 23.6328 144.871 22.5234C143.66 21.3594 143.055 19.8281 143.055 17.9297ZM145.492 17.9297C145.492 19.9297 146.133 21.2891 147.414 22.0078C147.867 22.2578 148.41 22.3828 149.043 22.3828C149.676 22.3828 150.211 22.2578 150.648 22.0078C151.086 21.75 151.445 21.4141 151.727 21C152.25 20.2031 152.512 19.1797 152.512 17.9297C152.512 15.9453 151.883 14.5859 150.625 13.8516C150.188 13.5938 149.664 13.4648 149.055 13.4648C148.445 13.4648 147.914 13.5938 147.461 13.8516C147.016 14.1016 146.648 14.4336 146.359 14.8477C145.781 15.6602 145.492 16.6875 145.492 17.9297ZM165.52 14.0508C165.09 13.9258 164.574 13.8633 163.973 13.8633C163.379 13.8633 162.891 13.9258 162.508 14.0508C162.125 14.168 161.789 14.3125 161.5 14.4844C160.969 14.7969 160.582 15.1484 160.34 15.5391V24H157.996V11.9062H160.246L160.34 13.582C160.926 12.8477 161.781 12.2969 162.906 11.9297C163.312 11.7891 163.777 11.7188 164.301 11.7188C164.824 11.7188 165.23 11.7578 165.52 11.8359V14.0508ZM173.488 24.1875C169.066 24.1875 166.855 22.0273 166.855 17.707C166.855 15.8477 167.469 14.3594 168.695 13.2422C169.797 12.2266 171.055 11.7188 172.469 11.7188C174.008 11.7188 175.211 12.2344 176.078 13.2656C176.883 14.2266 177.285 15.5117 177.285 17.1211V18.0352H169.293C169.293 20.2461 170.195 21.5977 172 22.0898C172.43 22.207 173.09 22.2656 173.98 22.2656C174.879 22.2656 175.758 22.1445 176.617 21.9023V23.8828C175.758 24.0859 174.715 24.1875 173.488 24.1875ZM174.941 16.3125C174.941 15.5625 174.734 14.9297 174.32 14.4141C173.836 13.8203 173.168 13.5234 172.316 13.5234C171.418 13.5234 170.688 13.8086 170.125 14.3789C169.609 14.9102 169.352 15.5547 169.352 16.3125H174.941ZM182.254 14.918L182.266 24H179.922V11.9062H182.078L182.242 13.2305C183.102 12.5117 184.102 12.043 185.242 11.8242C185.609 11.7539 185.969 11.7188 186.32 11.7188C187.781 11.7188 188.883 12.3359 189.625 13.5703C190.984 12.3359 192.406 11.7188 193.891 11.7188C195.359 11.7188 196.43 12.1602 197.102 13.043C197.773 13.9414 198.109 15.4258 198.109 17.4961V24H195.766V17.5781C195.766 15.5469 195.277 14.332 194.301 13.9336C193.973 13.8008 193.59 13.7344 193.152 13.7344C192.105 13.7344 191.145 14.1094 190.27 14.8594V24H187.926V17.4844C187.926 16.0938 187.719 15.1172 187.305 14.5547C186.906 14.0078 186.191 13.7344 185.16 13.7344C184.137 13.7344 183.168 14.1289 182.254 14.918ZM131.828 37.6875H134.172V54H131.828V37.6875ZM140.336 58.6875H137.992V41.9062H140.102L140.195 43.2891C140.664 42.6641 141.383 42.1992 142.352 41.8945C142.727 41.7773 143.105 41.7188 143.488 41.7188C143.879 41.7188 144.262 41.7617 144.637 41.8477C145.012 41.9258 145.383 42.0586 145.75 42.2461C146.117 42.4258 146.469 42.668 146.805 42.9727C147.141 43.2695 147.438 43.6406 147.695 44.0859C148.258 45.0469 148.539 46.2383 148.539 47.6602C148.539 49.832 147.789 51.4922 146.289 52.6406C144.961 53.6641 143.344 54.1758 141.438 54.1758H140.852C140.664 54.1758 140.492 54.1719 140.336 54.1641V58.6875ZM140.336 52.2656C140.555 52.3281 140.984 52.3594 141.625 52.3594C142.266 52.3594 142.867 52.2695 143.43 52.0898C143.992 51.9102 144.469 51.6328 144.859 51.2578C145.688 50.4609 146.102 49.2617 146.102 47.6602C146.102 46.1523 145.742 45.0391 145.023 44.3203C144.492 43.7891 143.844 43.5234 143.078 43.5234C142.117 43.5234 141.32 43.8789 140.688 44.5898C140.523 44.7695 140.406 44.9297 140.336 45.0703V52.2656ZM154.797 54.1875C153.82 54.1875 152.832 54.1172 151.832 53.9766V51.9023C152.848 52.1445 153.879 52.2656 154.926 52.2656C157.02 52.2656 158.066 51.8242 158.066 50.9414C158.066 50.6055 157.984 50.3555 157.82 50.1914C157.578 49.9336 157.195 49.6758 156.672 49.418L154.961 48.6328C153.852 48.0781 153.133 47.6328 152.805 47.2969C152.188 46.6719 151.879 45.9297 151.879 45.0703C151.879 44.1016 152.328 43.3125 153.227 42.7031C154.195 42.0469 155.555 41.7188 157.305 41.7188C158.188 41.7188 159.078 41.7812 159.977 41.9062V43.9102C158.992 43.7305 158.133 43.6406 157.398 43.6406C156.672 43.6406 156.105 43.6875 155.699 43.7812C155.301 43.875 155 43.9922 154.797 44.1328C154.477 44.3516 154.316 44.6367 154.316 44.9883C154.316 45.332 154.426 45.6133 154.645 45.832C154.871 46.043 155.223 46.2734 155.699 46.5234L157.422 47.3555C158.547 47.9414 159.27 48.3906 159.59 48.7031C160.199 49.2969 160.504 50.043 160.504 50.9414C160.504 51.9023 160.02 52.6758 159.051 53.2617C158.035 53.8789 156.617 54.1875 154.797 54.1875ZM171.719 51.0352V41.9062H174.062V54H171.953L171.742 52.7227C170.586 53.6992 169.309 54.1875 167.91 54.1875C166.426 54.1875 165.375 53.7773 164.758 52.957C164.117 52.1211 163.797 50.6797 163.797 48.6328V41.9062H166.141V48.5156C166.141 49.9609 166.348 50.9453 166.762 51.4688C167.129 51.9375 167.828 52.1719 168.859 52.1719C169.898 52.1719 170.852 51.793 171.719 51.0352ZM180.238 44.918L180.25 54H177.906V41.9062H180.062L180.227 43.2305C181.086 42.5117 182.086 42.043 183.227 41.8242C183.594 41.7539 183.953 41.7188 184.305 41.7188C185.766 41.7188 186.867 42.3359 187.609 43.5703C188.969 42.3359 190.391 41.7188 191.875 41.7188C193.344 41.7188 194.414 42.1602 195.086 43.043C195.758 43.9414 196.094 45.4258 196.094 47.4961V54H193.75V47.5781C193.75 45.5469 193.262 44.332 192.285 43.9336C191.957 43.8008 191.574 43.7344 191.137 43.7344C190.09 43.7344 189.129 44.1094 188.254 44.8594V54H185.91V47.4844C185.91 46.0938 185.703 45.1172 185.289 44.5547C184.891 44.0078 184.176 43.7344 183.145 43.7344C182.121 43.7344 181.152 44.1289 180.238 44.918ZM142.891 83.9062C142.117 84.0469 141.074 84.1172 139.762 84.1172C138.457 84.1172 137.277 83.9375 136.223 83.5781C135.176 83.2188 134.273 82.6875 133.516 81.9844C131.891 80.4766 131.078 78.375 131.078 75.6797C131.078 73.9219 131.496 72.3984 132.332 71.1094C133.465 69.3672 135.203 68.2578 137.547 67.7812C138.266 67.6406 139.121 67.5703 140.113 67.5703C141.113 67.5703 141.914 67.625 142.516 67.7344V69.9727C141.969 69.8008 141.121 69.7148 139.973 69.7148C138.832 69.7148 137.863 69.8555 137.066 70.1367C136.27 70.418 135.609 70.8203 135.086 71.3438C134.039 72.3672 133.516 73.8125 133.516 75.6797C133.516 77.5625 134.031 79.0547 135.062 80.1562C136.18 81.3438 137.785 81.9375 139.879 81.9375C141.105 81.9375 142.109 81.8438 142.891 81.6562V83.9062ZM146.336 66.5625H148.68V79.418C148.68 80.9648 149.031 81.875 149.734 82.1484C149.969 82.2422 150.219 82.2891 150.484 82.2891C150.75 82.2891 150.988 82.2578 151.199 82.1953V84L150.766 84.0469C150.625 84.0625 150.488 84.0703 150.355 84.0703C148.855 84.0703 147.773 83.5781 147.109 82.5938C146.594 81.8203 146.336 80.7656 146.336 79.4297V66.5625ZM153.062 77.9297C153.062 76.0312 153.668 74.4922 154.879 73.3125C156.012 72.2109 157.414 71.6602 159.086 71.6602C160.727 71.6602 162.098 72.2109 163.199 73.3125C164.371 74.4844 164.957 76.0234 164.957 77.9297C164.957 79.8281 164.367 81.3594 163.188 82.5234C162.07 83.6328 160.699 84.1875 159.074 84.1875C157.426 84.1875 156.027 83.6328 154.879 82.5234C153.668 81.3594 153.062 79.8281 153.062 77.9297ZM155.5 77.9297C155.5 79.9297 156.141 81.2891 157.422 82.0078C157.875 82.2578 158.418 82.3828 159.051 82.3828C159.684 82.3828 160.219 82.2578 160.656 82.0078C161.094 81.75 161.453 81.4141 161.734 81C162.258 80.2031 162.52 79.1797 162.52 77.9297C162.52 75.9453 161.891 74.5859 160.633 73.8516C160.195 73.5938 159.672 73.4648 159.062 73.4648C158.453 73.4648 157.922 73.5938 157.469 73.8516C157.023 74.1016 156.656 74.4336 156.367 74.8477C155.789 75.6602 155.5 76.6875 155.5 77.9297ZM175.727 81.0352V71.9062H178.07V84H175.961L175.75 82.7227C174.594 83.6992 173.316 84.1875 171.918 84.1875C170.434 84.1875 169.383 83.7773 168.766 82.957C168.125 82.1211 167.805 80.6797 167.805 78.6328V71.9062H170.148V78.5156C170.148 79.9609 170.355 80.9453 170.77 81.4688C171.137 81.9375 171.836 82.1719 172.867 82.1719C173.906 82.1719 174.859 81.793 175.727 81.0352ZM183.684 73.2305C184.363 72.707 185.125 72.3242 185.969 72.082C186.82 71.8398 187.562 71.7188 188.195 71.7188C188.828 71.7188 189.316 71.7344 189.66 71.7656V66.5625H191.992V84H189.895L189.801 82.6055C189.324 83.2383 188.602 83.707 187.633 84.0117C187.258 84.1289 186.875 84.1875 186.484 84.1875C186.102 84.1875 185.723 84.1484 185.348 84.0703C184.973 83.9922 184.598 83.8633 184.223 83.6836C183.855 83.4961 183.504 83.2539 183.168 82.957C182.832 82.6523 182.531 82.2812 182.266 81.8438C181.703 80.8828 181.422 79.7461 181.422 78.4336C181.422 77.1211 181.629 76.0586 182.043 75.2461C182.465 74.4258 183.012 73.7539 183.684 73.2305ZM185.102 74.625C184.703 75 184.395 75.4844 184.176 76.0781C183.965 76.6641 183.859 77.3789 183.859 78.2227C183.859 79.0586 183.961 79.75 184.164 80.2969C184.367 80.8359 184.621 81.2578 184.926 81.5625C185.465 82.1094 186.113 82.3828 186.871 82.3828C187.848 82.3828 188.656 82.0234 189.297 81.3047C189.461 81.125 189.578 80.9648 189.648 80.8242V73.6172L189.414 73.5938C189.055 73.5469 188.625 73.5234 188.125 73.5234C187.633 73.5234 187.105 73.6133 186.543 73.793C185.98 73.9648 185.5 74.2422 185.102 74.625Z"
          fill="white"/>
    <path d="M96 64L43 64" stroke="#00AC30" stroke-width="10" stroke-linecap="round"/>
    <path d="M96 12L43 12" stroke="#0064AC" stroke-width="10" stroke-linecap="round"/>
    <path d="M84 38L54 38" stroke="#00A2AC" stroke-width="10" stroke-linecap="round"/>
    <path d="M90 25L49 25" stroke="#0083AC" stroke-width="10" stroke-linecap="round"/>
    <path d="M90 51L49 51" stroke="#00AC6E" stroke-width="10" stroke-linecap="round"/>
    <path d="M90 51L49 51" stroke="#00AC6E" stroke-width="10" stroke-linecap="round"/>
    <line x1="31" y1="62" x2="31" y2="79" stroke="white" stroke-width="10" stroke-linecap="square"/>
    <line x1="109" y1="62" x2="109" y2="79" stroke="white" stroke-width="10" stroke-linecap="square"/>
    <line x1="109" y1="62" x2="109" y2="79" stroke="white" stroke-width="10" stroke-linecap="square"/>
    <line x1="108" y1="79" x2="31" y2="79" stroke="white" stroke-width="10" stroke-linecap="round"/>
    <line x1="108" y1="79" x2="31" y2="79" stroke="white" stroke-width="10" stroke-linecap="round"/>
    <path d="M225.74 37.08C224.732 40.296 223.712 43.272 222.68 46.008C221.648 48.744 220.616 51.408 219.584 54H216.092C214.82 50.328 213.692 46.452 212.708 42.372C211.748 38.292 210.848 33.852 210.008 29.052H213.68C214.016 30.924 214.364 32.796 214.724 34.668C215.084 36.54 215.456 38.364 215.84 40.14C216.224 41.892 216.608 43.572 216.992 45.18C217.376 46.788 217.772 48.276 218.18 49.644C219.14 47.124 220.16 44.364 221.24 41.364C222.32 38.34 223.328 35.22 224.264 32.004H227.288C228.224 35.22 229.244 38.34 230.348 41.364C231.452 44.364 232.484 47.124 233.444 49.644C233.828 48.3 234.212 46.824 234.596 45.216C234.98 43.608 235.352 41.928 235.712 40.176C236.096 38.4 236.468 36.576 236.828 34.704C237.188 32.808 237.536 30.924 237.872 29.052H241.436C240.572 33.852 239.648 38.292 238.664 42.372C237.704 46.452 236.6 50.328 235.352 54H231.86C230.804 51.408 229.772 48.744 228.764 46.008C227.756 43.272 226.748 40.296 225.74 37.08ZM243.461 44.676C243.461 43.02 243.701 41.58 244.181 40.356C244.661 39.108 245.297 38.076 246.089 37.26C246.881 36.444 247.793 35.832 248.825 35.424C249.857 35.016 250.913 34.812 251.993 34.812C254.513 34.812 256.445 35.604 257.789 37.188C259.133 38.748 259.805 41.136 259.805 44.352C259.805 44.496 259.805 44.688 259.805 44.928C259.805 45.144 259.793 45.348 259.769 45.54H246.953C247.097 47.484 247.661 48.96 248.645 49.968C249.629 50.976 251.165 51.48 253.253 51.48C254.429 51.48 255.413 51.384 256.205 51.192C257.021 50.976 257.633 50.772 258.041 50.58L258.509 53.388C258.101 53.604 257.381 53.832 256.349 54.072C255.341 54.312 254.189 54.432 252.893 54.432C251.261 54.432 249.845 54.192 248.645 53.712C247.469 53.208 246.497 52.524 245.729 51.66C244.961 50.796 244.385 49.776 244.001 48.6C243.641 47.4 243.461 46.092 243.461 44.676ZM256.313 42.84C256.337 41.328 255.953 40.092 255.161 39.132C254.393 38.148 253.325 37.656 251.957 37.656C251.189 37.656 250.505 37.812 249.905 38.124C249.329 38.412 248.837 38.796 248.429 39.276C248.021 39.756 247.697 40.308 247.457 40.932C247.241 41.556 247.097 42.192 247.025 42.84H256.313ZM267.962 36.108C268.37 35.844 268.982 35.568 269.798 35.28C270.638 34.992 271.598 34.848 272.678 34.848C274.022 34.848 275.21 35.088 276.242 35.568C277.298 36.048 278.186 36.72 278.906 37.584C279.626 38.448 280.166 39.48 280.526 40.68C280.91 41.88 281.102 43.2 281.102 44.64C281.102 46.152 280.874 47.52 280.418 48.744C279.986 49.944 279.362 50.964 278.546 51.804C277.73 52.644 276.746 53.292 275.594 53.748C274.442 54.204 273.146 54.432 271.706 54.432C270.146 54.432 268.766 54.324 267.566 54.108C266.366 53.892 265.382 53.676 264.614 53.46V26.64L267.962 26.064V36.108ZM267.962 51.084C268.298 51.18 268.766 51.276 269.366 51.372C269.99 51.444 270.758 51.48 271.67 51.48C273.47 51.48 274.91 50.892 275.99 49.716C277.07 48.516 277.61 46.824 277.61 44.64C277.61 43.68 277.514 42.78 277.322 41.94C277.13 41.1 276.818 40.38 276.386 39.78C275.954 39.156 275.39 38.676 274.694 38.34C274.022 37.98 273.206 37.8 272.246 37.8C271.334 37.8 270.494 37.956 269.726 38.268C268.958 38.58 268.37 38.904 267.962 39.24V51.084ZM291.07 51.552C293.206 51.552 294.73 51.132 295.642 50.292C296.578 49.452 297.046 48.324 297.046 46.908C297.046 45.996 296.854 45.228 296.47 44.604C296.086 43.98 295.582 43.488 294.958 43.128C294.334 42.744 293.602 42.48 292.762 42.336C291.946 42.168 291.106 42.084 290.242 42.084H289.378V39.348H290.566C291.166 39.348 291.778 39.288 292.402 39.168C293.05 39.048 293.638 38.832 294.166 38.52C294.694 38.208 295.126 37.788 295.462 37.26C295.798 36.708 295.966 36.024 295.966 35.208C295.966 34.536 295.846 33.96 295.606 33.48C295.366 33 295.042 32.604 294.634 32.292C294.25 31.98 293.794 31.764 293.266 31.644C292.762 31.5 292.222 31.428 291.646 31.428C290.494 31.428 289.51 31.596 288.694 31.932C287.902 32.268 287.23 32.616 286.678 32.976L285.382 30.42C285.67 30.228 286.03 30.024 286.462 29.808C286.918 29.568 287.422 29.352 287.974 29.16C288.526 28.968 289.114 28.812 289.738 28.692C290.386 28.548 291.058 28.476 291.754 28.476C293.074 28.476 294.214 28.644 295.174 28.98C296.134 29.292 296.926 29.748 297.55 30.348C298.174 30.924 298.642 31.62 298.954 32.436C299.266 33.228 299.422 34.092 299.422 35.028C299.422 36.324 299.05 37.44 298.306 38.376C297.562 39.288 296.662 39.984 295.606 40.464C296.254 40.656 296.878 40.932 297.478 41.292C298.078 41.652 298.594 42.108 299.026 42.66C299.482 43.212 299.842 43.848 300.106 44.568C300.394 45.288 300.538 46.092 300.538 46.98C300.538 48.06 300.346 49.068 299.962 50.004C299.602 50.916 299.026 51.708 298.234 52.38C297.466 53.052 296.494 53.58 295.318 53.964C294.142 54.348 292.75 54.54 291.142 54.54C290.518 54.54 289.87 54.492 289.198 54.396C288.55 54.3 287.938 54.18 287.362 54.036C286.786 53.892 286.282 53.748 285.85 53.604C285.418 53.46 285.106 53.34 284.914 53.244L285.562 50.328C285.97 50.52 286.642 50.772 287.578 51.084C288.538 51.396 289.702 51.552 291.07 51.552ZM305.09 46.008V48.348H337.418V46.008H305.09ZM305.99 26.676V28.98H336.59V26.676H305.99ZM326.582 42.804V53.964C326.582 54.468 326.402 54.612 325.79 54.648C325.142 54.684 322.91 54.684 320.57 54.612C320.93 55.332 321.326 56.268 321.434 56.988C324.53 56.988 326.51 56.988 327.698 56.628C328.886 56.232 329.246 55.548 329.246 54.036V42.804H326.582ZM319.778 23.832V42.192H322.478V23.832H319.778ZM310.598 50.184C312.65 51.66 315.098 53.82 316.214 55.296L318.338 53.64C317.186 52.164 314.702 50.112 312.578 48.744L310.598 50.184ZM311.174 38.268H331.334V41.22H311.174V38.268ZM311.174 33.444H331.334V36.36H311.174V33.444ZM308.654 31.428V43.236H333.962V31.428H308.654ZM346.274 26.316V28.908H369.566V26.316H346.274ZM346.274 34.704V37.26H369.53V34.704H346.274ZM346.094 43.308V45.864H369.602V43.308H346.094ZM344.762 26.316V39.348C344.762 44.424 344.366 50.832 340.406 55.296C340.982 55.656 342.062 56.556 342.494 57.096C346.778 52.308 347.426 44.856 347.426 39.384V26.316H344.762ZM368.486 26.316V53.208C368.486 53.892 368.234 54.108 367.55 54.144C366.866 54.144 364.418 54.18 361.862 54.072C362.258 54.792 362.69 55.98 362.798 56.7C366.218 56.736 368.306 56.7 369.53 56.268C370.718 55.8 371.15 54.972 371.15 53.208V26.316H368.486ZM356.066 27.288V56.556H358.802V27.288H356.066ZM395.522 29.448L392.534 29.376C392.174 33.12 391.418 37.188 390.374 40.608C388.538 46.692 386.594 49.14 384.902 49.14C383.282 49.14 381.23 47.124 381.23 42.588C381.23 37.296 386.162 30.78 394.082 30.78C400.994 30.78 404.99 35.532 404.99 41.292C404.99 47.52 400.454 50.976 395.846 52.02C394.982 52.2 393.902 52.344 392.75 52.452L394.406 55.116C402.974 54 407.942 48.96 407.942 41.436C407.942 34.128 402.578 28.188 394.154 28.188C385.334 28.188 378.386 34.992 378.386 42.804C378.386 48.78 381.59 52.452 384.83 52.452C388.142 52.452 391.022 48.636 393.218 41.256C394.334 37.404 395.054 33.192 395.522 29.448ZM427.274 23.868C426.014 29.628 423.818 35.244 420.758 38.772C421.514 39.132 422.81 39.852 423.35 40.284C426.266 36.468 428.642 30.6 430.082 24.372L427.274 23.868ZM433.214 32.688H431.774V37.512C431.774 40.932 429.902 50.364 418.922 54.684C419.426 55.188 420.254 56.304 420.578 56.88C429.29 53.244 432.566 46.008 433.178 42.588C433.754 45.972 436.814 53.424 444.374 56.88C444.806 56.232 445.634 55.116 446.138 54.468C436.346 50.256 434.582 40.716 434.582 37.512V32.688H433.214ZM412.586 49.464L414.35 51.696C416.798 49.356 419.822 46.224 422.486 43.344L421.01 41.004C417.95 44.208 414.674 47.52 412.586 49.464ZM413.738 28.116C416.078 29.736 418.922 32.112 420.29 33.696L422.306 31.5C420.902 29.952 417.986 27.684 415.646 26.172L413.738 28.116ZM427.346 30.276L426.122 32.94H443.546V30.276H427.346ZM442.61 30.276V30.924C441.998 33.696 440.45 37.512 439.262 39.672C439.946 39.96 440.99 40.5 441.566 40.824C442.898 38.412 444.59 34.668 445.526 31.212L443.546 30.096L443.042 30.276H442.61ZM448.946 32.796V35.424H481.634V32.796H448.946ZM455.75 51.624V54.216H480.41V51.624H455.75ZM465.002 42.948V45.504H474.506V42.948H465.002ZM454.346 24.732V56.916H457.118V24.732H454.346ZM463.814 23.976V47.268H466.55V23.976H463.814ZM473.318 24.372V47.088H476.018V24.372H473.318ZM494.882 36.144L495.278 38.7L517.598 35.892L517.202 33.336L494.882 36.144ZM508.958 25.812C511.082 27.612 513.638 30.168 514.79 31.788L516.878 30.348C515.654 28.692 513.098 26.244 510.938 24.516L508.958 25.812ZM494.486 24.156C492.11 29.844 488.15 35.388 483.974 38.88C484.478 39.492 485.27 40.86 485.558 41.508C490.058 37.476 494.342 31.284 497.042 24.984L494.486 24.156ZM490.418 33.732V56.844H493.154V31.068V31.032L490.418 33.732ZM502.946 24.3C503.738 42.696 506.114 56.304 514.214 56.88C516.086 56.952 517.562 55.116 518.318 48.852C517.814 48.636 516.626 47.952 516.086 47.412C515.726 51.624 515.114 53.748 514.106 53.676C508.67 53.172 506.186 40.464 505.682 24.3H502.946ZM550.61 31.5L548.234 30.06C547.658 30.276 546.83 30.384 545.858 30.384C544.742 30.384 535.85 30.384 534.41 30.384L533.258 32.976H546.578C545.858 36.252 543.626 40.932 540.854 44.208C537.542 48.06 533.078 51.3 526.454 53.244L529.082 55.62C535.814 53.1 540.134 49.824 543.41 45.828C546.614 41.904 548.81 37.044 549.782 33.408C549.962 32.832 550.322 32.004 550.61 31.5ZM538.55 26.064L535.238 24.948C535.022 25.884 534.482 27.18 534.122 27.828C532.538 31.032 529.01 36.288 522.782 39.996L525.302 41.832C531.098 38.016 534.842 32.868 536.966 28.872C537.326 28.224 537.974 27 538.55 26.064ZM563.57 27.216V30.204C564.542 30.132 565.694 30.096 566.774 30.096C568.754 30.096 578.87 30.096 580.886 30.096C582.11 30.096 583.37 30.132 584.198 30.204V27.216C583.334 27.324 582.074 27.396 580.958 27.396C578.834 27.396 568.718 27.396 566.774 27.396C565.622 27.396 564.506 27.324 563.57 27.216ZM586.862 36.684L584.81 35.424C584.414 35.604 583.622 35.712 582.794 35.712C580.958 35.712 565.622 35.712 563.858 35.712C562.85 35.712 561.626 35.604 560.33 35.496V38.52C561.626 38.412 562.994 38.376 563.858 38.376C566.018 38.376 581.174 38.376 582.938 38.376C582.29 41.004 580.85 44.064 578.69 46.332C575.594 49.572 571.094 51.912 566.018 52.956L568.25 55.512C572.822 54.216 577.358 52.128 581.102 47.988C583.802 45.036 585.422 41.292 586.358 37.764C586.43 37.476 586.682 37.044 586.862 36.684ZM610.694 25.2H607.274C607.418 26.316 607.454 27.144 607.454 27.9C607.454 28.728 607.454 31.284 607.454 32.688H610.514C610.514 31.428 610.514 28.728 610.514 27.9C610.514 27.144 610.55 26.316 610.694 25.2ZM622.97 32.184L621.026 30.96C620.558 31.104 619.91 31.248 618.578 31.248H599.498C598.238 31.248 597.158 31.176 596.114 31.104C596.258 31.86 596.258 33.084 596.258 33.84C596.258 35.1 596.258 39.024 596.258 40.176C596.258 40.896 596.222 41.868 596.114 42.48H599.246C599.174 41.94 599.138 40.968 599.138 40.356C599.138 39.24 599.138 35.388 599.138 33.912H619.226C618.902 36.972 617.786 41.328 615.842 44.388C613.61 47.808 609.686 50.472 606.05 51.66C604.898 52.092 603.53 52.452 602.342 52.668L604.682 55.332C611.27 53.532 616.238 49.86 618.902 45.144C620.918 41.724 621.962 37.224 622.466 34.344C622.574 33.66 622.79 32.688 622.97 32.184ZM650.87 28.116L648.854 28.98C650.042 30.6 651.194 32.58 652.094 34.488L654.146 33.552C653.318 31.824 651.77 29.412 650.87 28.116ZM655.19 26.316L653.246 27.252C654.434 28.836 655.622 30.744 656.558 32.652L658.574 31.644C657.746 29.952 656.162 27.576 655.19 26.316ZM638.234 51.3C638.234 52.668 638.162 54.432 637.982 55.584H641.474C641.33 54.396 641.258 52.452 641.258 51.3C641.258 49.608 641.222 36 641.222 30.384C641.222 29.304 641.366 27.72 641.474 26.64H637.946C638.126 27.756 638.234 29.34 638.234 30.384C638.234 33.408 638.234 49.32 638.234 51.3ZM640.574 36.072V39.24C644.498 40.464 651.23 43.02 655.334 45.216L656.594 42.192C652.598 40.212 645.362 37.44 640.574 36.072ZM669.535 45.252C666.511 45.252 664.027 47.7 664.027 50.724C664.027 53.748 666.511 56.196 669.535 56.196C672.559 56.196 675.007 53.748 675.007 50.724C675.007 47.7 672.559 45.252 669.535 45.252ZM669.535 54.36C667.519 54.36 665.863 52.74 665.863 50.724C665.863 48.708 667.519 47.088 669.535 47.088C671.551 47.088 673.171 48.708 673.171 50.724C673.171 52.74 671.551 54.36 669.535 54.36Z"
          fill="white"/>
    <path d="M220.304 65.016L218.312 64.944C218.312 65.256 218.288 65.688 218.24 66.12C218.024 68.184 217.544 72.072 217.544 75.36C217.544 78.408 218.192 81.816 218.888 83.952L220.64 83.424C219.896 81.168 219.224 78.288 219.224 75.168C219.224 71.88 219.632 68.088 220.04 66.072C220.112 65.736 220.208 65.304 220.304 65.016ZM216.44 67.968C215.408 67.968 213.32 67.824 212.48 67.68L212.528 69.48C213.512 69.528 215.384 69.624 216.416 69.624C219.992 69.624 224.72 69.264 228.176 68.664L228.152 66.888C224.84 67.632 220.664 67.968 216.44 67.968ZM226.448 70.8L224.528 70.32C224.504 70.704 224.384 71.352 224.288 71.712C223.184 75.6 221.216 78.192 219.08 80.064C217.544 81.408 215.984 82.08 214.784 82.08C213.896 82.08 213.416 81.6 213.416 80.616C213.416 78.408 215.576 75.768 218.288 74.568C219.512 74.016 221.288 73.44 223.304 73.44C226.88 73.44 228.848 75.48 228.848 77.808C228.848 80.904 226.16 83.136 221.84 83.616L222.872 85.224C228.44 84.336 230.72 81.336 230.72 77.904C230.72 74.544 227.864 71.904 223.328 71.904C221.768 71.904 219.824 72.264 218.216 72.888C214.664 74.256 211.616 77.64 211.616 80.928C211.616 82.968 212.864 83.928 214.448 83.928C216.152 83.928 218.072 83.04 219.608 81.864C222.128 79.92 224.528 76.584 225.944 72.144C226.088 71.76 226.304 71.112 226.448 70.8ZM235.304 68.88L235.448 70.68C236.336 70.704 237.368 70.728 238.256 70.728C241.184 70.752 244.328 70.224 246.68 69.576L246.632 67.8C243.872 68.712 240.848 69.024 238.256 69.024C237.224 69.024 236.192 68.976 235.304 68.88ZM243.824 64.968L241.712 64.752C241.64 66.432 241.112 68.544 240.584 70.056C239.6 72.888 237.368 77.16 235.232 79.656L237.08 80.616C239.072 77.928 241.28 73.56 242.432 70.104C243.008 68.4 243.512 66.144 243.824 64.968ZM249.488 72.384H247.592C247.688 75.024 247.952 79.32 247.952 81.144C247.952 82.44 247.28 83.496 245.288 83.496C243.416 83.496 242.48 82.728 242.48 81.624C242.48 80.52 243.68 79.704 245.456 79.704C248.984 79.704 251.744 81.84 253.592 83.52L254.6 81.888C252.632 80.184 249.536 78.168 245.504 78.168C242.816 78.168 240.728 79.56 240.728 81.768C240.728 84.168 242.864 85.224 245.504 85.224C248.48 85.224 249.704 83.664 249.704 81.744C249.704 80.16 249.488 76.512 249.44 74.952C249.416 74.088 249.416 73.368 249.488 72.384ZM254.288 73.008L255.368 71.424C254.216 70.56 251.504 69 249.752 68.256L248.792 69.696C250.376 70.44 252.992 71.904 254.288 73.008ZM267.608 65.136L265.328 64.944C265.376 65.448 265.328 66.264 265.232 66.936C265.064 68.184 264.44 71.208 263.864 73.416C262.952 76.8 261.272 81.672 259.832 84.168L261.92 84.864C263.192 82.248 264.8 77.28 265.664 73.872C266.336 71.472 266.84 68.76 267.2 67.032C267.296 66.576 267.464 65.664 267.608 65.136ZM262.304 69.144C261.416 69.144 260.552 69.096 259.424 68.952L259.472 70.824C260.36 70.896 261.2 70.92 262.256 70.92C264.848 70.92 268.472 70.512 271.448 69.84V67.968C268.472 68.712 264.944 69.144 262.304 69.144ZM269.888 72.432V74.232C271.352 74.064 272.84 73.968 274.328 73.968C275.744 73.968 277.136 74.112 278.384 74.256L278.432 72.432C277.136 72.288 275.672 72.24 274.28 72.24C272.744 72.24 271.136 72.312 269.888 72.432ZM270.368 78.264L268.592 78.096C268.376 79.104 268.232 80.016 268.232 80.928C268.232 83.304 270.296 84.456 274.064 84.456C275.816 84.456 277.424 84.312 278.72 84.12L278.792 82.2C277.304 82.488 275.672 82.656 274.088 82.656C270.68 82.656 270.032 81.552 270.032 80.424C270.032 79.8 270.176 79.056 270.368 78.264ZM294.512 67.632L292.52 67.584C292.28 70.08 291.776 72.792 291.08 75.072C289.856 79.128 288.56 80.76 287.432 80.76C286.352 80.76 284.984 79.416 284.984 76.392C284.984 72.864 288.272 68.52 293.552 68.52C298.16 68.52 300.824 71.688 300.824 75.528C300.824 79.68 297.8 81.984 294.728 82.68C294.152 82.8 293.432 82.896 292.664 82.968L293.768 84.744C299.48 84 302.792 80.64 302.792 75.624C302.792 70.752 299.216 66.792 293.6 66.792C287.72 66.792 283.088 71.328 283.088 76.536C283.088 80.52 285.224 82.968 287.384 82.968C289.592 82.968 291.512 80.424 292.976 75.504C293.72 72.936 294.2 70.128 294.512 67.632ZM318.08 68.712V82.944C318.08 85.176 318.608 85.776 320.624 85.776C321.056 85.776 323.456 85.776 323.888 85.776C325.784 85.776 326.24 84.672 326.432 81.168C325.952 81.024 325.256 80.736 324.824 80.4C324.728 83.448 324.608 84.12 323.768 84.12C323.264 84.12 321.248 84.12 320.84 84.12C319.976 84.12 319.832 83.928 319.832 82.968V68.712H318.08ZM315.512 72.216C315.296 74.76 314.768 77.712 313.64 79.488L315.032 80.16C316.232 78.288 316.736 75.144 316.976 72.504L315.512 72.216ZM324.44 72.336C325.568 74.568 326.528 77.544 326.768 79.488L328.4 79.008C328.136 77.088 327.176 74.136 325.976 71.904L324.44 72.336ZM317.432 65.088C319.208 66.096 321.248 67.632 322.208 68.76L323.408 67.488C322.424 66.36 320.312 64.896 318.56 63.96L317.432 65.088ZM309.896 65.688V85.92H311.624V65.688H309.896ZM306.056 70.656V72.312H314.6V70.656H306.056ZM309.776 71.328C309.008 74.256 307.28 78 305.72 79.944C306.008 80.376 306.464 81.12 306.656 81.6C308.312 79.368 310.04 75.096 310.88 71.76L309.776 71.328ZM313.304 64.248C311.624 65.016 308.576 65.712 305.984 66.144C306.2 66.528 306.44 67.104 306.536 67.512C309.248 67.128 312.44 66.48 314.576 65.616L313.304 64.248ZM311.504 73.176L310.664 73.824C311.336 74.616 312.992 76.944 313.52 77.904L314.6 76.608C314.144 75.984 312.08 73.704 311.504 73.176ZM325.376 65.088C323.648 72.984 319.784 79.608 312.848 83.976C313.28 84.24 313.88 84.84 314.144 85.224C321.296 80.544 325.088 73.872 327.056 65.472L325.376 65.088ZM333.368 70.752C332.816 72.384 331.76 74.064 330.128 75.024L331.52 75.984C333.272 74.928 334.232 73.08 334.856 71.28L333.368 70.752ZM336.296 70.344V75.048C336.296 76.824 336.92 77.28 339.416 77.28C339.944 77.28 343.712 77.28 344.264 77.28C346.256 77.28 346.76 76.632 346.976 73.992C346.52 73.896 345.872 73.656 345.488 73.416C345.392 75.504 345.2 75.816 344.12 75.816C343.28 75.816 340.136 75.816 339.512 75.816C338.168 75.816 337.928 75.696 337.928 75.048V70.344H336.296ZM337.448 68.952C338.912 69.624 340.712 70.752 341.576 71.592L342.536 70.416C341.624 69.6 339.824 68.544 338.36 67.896L337.448 68.952ZM346.472 71.736C348.104 73.104 349.904 75.096 350.672 76.416L352.064 75.432C351.248 74.088 349.4 72.168 347.768 70.848L346.472 71.736ZM345.272 68.856C342.104 73.152 336.2 75.984 329.888 77.52C330.224 77.904 330.752 78.648 330.944 79.032C337.208 77.256 343.304 74.256 346.832 69.552L345.272 68.856ZM340.016 77.664V84.12H341.864V77.664H340.016ZM332.864 79.032V85.944H334.64V79.032H332.864ZM347.576 79.032V85.872H349.376V79.032H347.576ZM333.752 83.208V84.888H348.536V83.208H333.752ZM340.016 63.864V66.984H341.864V63.864H340.016ZM330.848 65.904V70.608H332.6V67.536H349.376V70.608H351.2V65.904H330.848ZM362.096 65.424V67.032H365.36V65.424H362.096ZM366.392 69.072V70.536H374.096V69.072H366.392ZM374.12 69V70.608H376.208V69H374.12ZM367.16 75.624V77.136H375.224V75.624H367.16ZM366.608 79.008V80.52H375.896V79.008H366.608ZM370.04 63.912V83.136H371.552V63.912H370.04ZM364.952 65.424V65.616C364.376 67.632 363.152 71.64 362.144 74.424L363.608 74.712C364.592 71.88 365.768 68.088 366.464 65.568L365.408 65.328L365.144 65.424H364.952ZM367.496 65.904V67.296H373.544V72.384H367.52V73.8H374.912V65.904H367.496ZM363.56 75.72L362.312 76.08C363.656 83.952 366.536 85.488 371.24 85.488H375.8C375.848 85.056 376.088 84.312 376.352 83.904C375.488 83.928 371.96 83.928 371.312 83.928C367.376 83.928 364.688 82.656 363.56 75.72ZM363.44 72.6L363.008 74.088H366.032V72.6H363.44ZM365.48 72.6V72.888C365 79.416 363.272 83.04 360.248 84.888C360.584 85.104 361.184 85.656 361.424 85.968C364.52 83.928 366.392 79.944 366.992 72.744L366.056 72.552L365.792 72.6H365.48ZM353.912 83.592L354.32 85.2C356.528 84.744 359.456 84.144 362.264 83.544L362.12 82.008C359.096 82.632 355.976 83.232 353.912 83.592ZM355.16 69.816V71.328H361.472V69.816H355.16ZM354.176 73.872V75.432H361.856V73.872H354.176ZM354.584 77.04C354.992 78.48 355.328 80.376 355.376 81.624L356.624 81.312C356.552 80.088 356.216 78.216 355.736 76.776L354.584 77.04ZM360.488 76.512C360.32 77.76 359.912 79.68 359.6 80.832L360.704 81.096C361.04 79.968 361.4 78.24 361.736 76.776L360.488 76.512ZM357.488 70.488V83.472L359 83.256V70.488H357.488ZM357.632 63.864C356.888 65.784 355.448 68.256 353.384 70.08C353.744 70.32 354.272 70.848 354.512 71.208C356.768 69.096 358.208 66.552 359.072 64.704V64.248H358.568V63.864H357.632ZM357.848 63.864V65.04H358.136C359.36 66.24 360.728 68.232 361.4 69.408L362.576 68.112C361.88 66.936 360.392 65.136 359.12 63.864H357.848ZM388.04 65.04L386.072 64.872C386 66 385.664 67.44 385.136 68.76C384.32 70.8 382.712 73.584 379.256 76.896L380.912 78.12C381.704 77.136 382.376 76.272 383.072 75.6C384.176 74.616 385.688 73.848 387.224 73.848C388.472 73.848 389.432 74.496 389.456 75.888C389.48 77.136 389.456 79.608 389.36 80.88H391.208C391.184 79.392 391.136 76.632 391.136 75.384C391.136 73.44 389.696 72.336 387.848 72.336C386.792 72.336 385.424 72.672 384.488 73.224C385.448 71.976 386.336 70.368 386.936 68.904C387.56 67.296 387.824 65.976 388.04 65.04ZM379.808 67.632V69.432C381.152 69.528 382.736 69.576 383.768 69.576C386.816 69.576 391.28 69.36 394.64 68.856V67.08C391.256 67.68 387.104 67.872 383.864 67.872C382.76 67.872 381.104 67.8 379.808 67.632ZM398.144 73.416L397.376 71.64C396.704 71.976 396.104 72.24 395.384 72.576C393.8 73.32 391.856 74.064 389.576 75.24C386.72 76.704 383.744 78.504 383.744 81.432C383.744 84.336 386.504 85.08 389.912 85.08C392 85.08 394.664 84.888 396.488 84.672L396.56 82.728C394.448 83.112 391.856 83.328 389.984 83.328C387.512 83.328 385.664 83.04 385.664 81.168C385.664 79.512 387.344 78.216 389.72 76.968C392.048 75.768 394.328 74.856 396.032 74.184C396.68 73.944 397.544 73.608 398.144 73.416ZM420.416 66.528L418.232 65.784C418.112 66.288 417.896 67.08 417.728 67.56C416.912 69.912 415.712 72.576 413.744 75.12C411.272 78.264 408.2 81.12 403.736 83.256L405.368 84.744C409.904 82.392 413.024 79.224 415.328 76.296C417.296 73.8 418.736 70.68 419.648 68.304C419.84 67.8 420.176 66.984 420.416 66.528ZM407.744 69.36L406.472 70.872C409.112 72.48 412.232 74.856 413.96 76.296C416.36 78.312 418.448 80.208 420.44 82.512L421.952 80.856C420.056 78.792 417.68 76.704 415.28 74.736C413.456 73.272 410.12 70.872 407.744 69.36ZM434.96 73.008L433.64 74.352C436.616 76.2 440.72 79.152 442.928 81.168L444.344 79.488C441.968 77.568 438.032 74.808 434.96 73.008ZM445.928 68.64L444.344 67.68C443.96 67.824 443.432 67.896 442.784 67.896H435.152L434.384 69.624H443.264C442.712 71.856 441.2 74.904 439.352 77.112C437.192 79.68 433.928 82.224 429.464 83.568L431.168 85.08C435.728 83.4 438.848 80.832 441.032 78.144C443.144 75.552 444.656 72.36 445.376 69.912C445.496 69.528 445.736 68.976 445.928 68.64ZM437.84 65.16L435.656 64.464C435.512 65.088 435.128 65.952 434.888 66.36C433.784 68.568 431.312 72.168 427.208 74.736L428.792 75.96C432.632 73.32 435.344 69.696 436.76 67.056C437 66.6 437.432 65.784 437.84 65.16ZM467.36 65.304L466.088 65.856C466.736 66.768 467.552 68.208 468.008 69.168L469.328 68.592C468.824 67.632 467.96 66.168 467.36 65.304ZM470 64.344L468.728 64.896C469.4 65.784 470.192 67.152 470.72 68.184L471.992 67.608C471.56 66.72 470.624 65.232 470 64.344ZM454.208 76.8C453.392 78.792 452.024 81.312 450.512 83.328L452.552 84.192C453.896 82.248 455.216 79.776 456.104 77.592C457.112 75.12 457.952 71.568 458.264 70.08C458.384 69.576 458.552 68.856 458.72 68.328L456.584 67.896C456.248 70.656 455.264 74.304 454.208 76.8ZM466.04 75.888C467.024 78.432 468.152 81.696 468.752 84.12L470.888 83.448C470.24 81.264 468.968 77.592 468.008 75.216C466.976 72.696 465.44 69.384 464.504 67.632L462.56 68.28C463.592 70.08 465.08 73.416 466.04 75.888ZM475.424 73.608V75.96C476.192 75.912 477.464 75.864 478.784 75.864C480.56 75.864 490.136 75.864 491.96 75.864C493.016 75.864 494.024 75.936 494.528 75.96V73.608C493.976 73.656 493.136 73.752 491.936 73.752C490.16 73.752 480.536 73.752 478.784 73.752C477.416 73.752 476.168 73.68 475.424 73.608ZM514.981 67.968L513.781 67.032C513.397 67.152 512.749 67.224 511.981 67.224C511.069 67.224 503.653 67.224 502.717 67.224C501.973 67.224 500.605 67.128 500.293 67.08V69.24C500.557 69.216 501.853 69.12 502.717 69.12C503.533 69.12 511.213 69.12 512.077 69.12C511.453 71.112 509.701 73.968 508.069 75.816C505.597 78.552 502.069 81.432 498.181 82.92L499.717 84.528C503.509 82.8 506.941 79.944 509.629 76.944C511.621 74.736 513.445 71.376 514.405 69C514.525 68.688 514.837 68.16 514.981 67.968ZM509.941 75.696L508.573 77.04C511.165 79.32 513.973 82.392 515.701 84.672L517.357 83.208C515.725 81.216 512.533 77.856 509.941 75.696ZM521.677 68.208L521.893 70.32C524.485 69.768 530.605 69.168 533.173 68.904C530.989 70.2 528.709 73.272 528.709 76.992C528.709 82.368 533.749 84.72 538.189 84.888L538.885 82.92C534.997 82.776 530.605 81.264 530.605 76.584C530.605 73.752 532.693 70.08 536.125 68.976C537.349 68.64 539.437 68.592 540.829 68.616L540.805 66.696C539.197 66.744 536.965 66.888 534.325 67.104C529.909 67.488 525.373 67.92 523.837 68.088C523.357 68.136 522.589 68.184 521.677 68.208ZM537.349 71.544L536.149 72.072C536.869 73.08 537.541 74.304 538.093 75.456L539.341 74.904C538.813 73.824 537.901 72.336 537.349 71.544ZM539.965 70.536L538.789 71.088C539.533 72.096 540.253 73.296 540.829 74.448L542.053 73.848C541.501 72.792 540.565 71.328 539.965 70.536ZM549.253 70.824V72.456H562.309V70.824H549.253ZM545.149 75.24V76.944H566.437V75.24H545.149ZM551.461 76.416C551.053 80.328 550.021 83.088 544.621 84.432C545.005 84.792 545.485 85.512 545.677 85.968C551.533 84.336 552.877 81.096 553.381 76.416H551.461ZM557.533 76.272V83.04C557.533 84.96 558.109 85.512 560.317 85.512C560.797 85.512 563.557 85.512 564.037 85.512C565.957 85.512 566.485 84.672 566.677 81.384C566.197 81.24 565.429 80.952 565.045 80.664C564.973 83.424 564.805 83.856 563.893 83.856C563.269 83.856 560.989 83.856 560.509 83.856C559.501 83.856 559.333 83.736 559.333 83.016V76.272H557.533ZM554.797 63.864V67.68H556.693V63.864H554.797ZM545.701 66.432V71.52H547.525V68.136H563.989V71.52H565.885V66.432H545.701ZM579.709 65.592C581.869 68.616 586.069 72.192 589.789 74.328C590.101 73.8 590.533 73.2 590.989 72.744C587.221 70.872 583.021 67.368 580.525 63.816H578.677C576.829 66.936 572.821 70.752 568.693 73.032C569.077 73.416 569.581 74.04 569.821 74.472C573.877 72.096 577.741 68.52 579.709 65.592ZM571.597 78.072V79.68H587.965V78.072H571.597ZM572.677 72.696V74.328H587.029V72.696H572.677ZM569.629 83.64V85.272H590.077V83.64H569.629ZM578.773 73.368V84.552H580.669V73.368H578.773ZM602.725 67.8L602.749 69.744C605.365 70.032 610.021 70.032 612.589 69.744V67.8C610.213 68.16 605.341 68.256 602.725 67.8ZM603.661 77.592L601.933 77.424C601.669 78.576 601.549 79.44 601.549 80.232C601.549 82.488 603.349 83.832 607.357 83.832C609.853 83.832 611.869 83.64 613.357 83.328L613.309 81.312C611.389 81.768 609.517 81.96 607.381 81.96C604.093 81.96 603.325 80.88 603.325 79.776C603.325 79.128 603.445 78.456 603.661 77.592ZM598.165 65.952L596.029 65.784C596.005 66.312 595.933 66.912 595.861 67.464C595.573 69.456 594.781 73.56 594.781 77.088C594.781 80.352 595.189 83.112 595.669 84.816L597.373 84.696C597.349 84.432 597.325 84.096 597.301 83.856C597.301 83.568 597.349 83.112 597.421 82.776C597.637 81.624 598.525 79.104 599.125 77.4L598.117 76.608C597.709 77.592 597.157 79.032 596.749 80.112C596.605 78.936 596.533 77.928 596.533 76.776C596.533 74.064 597.277 69.792 597.733 67.56C597.829 67.128 598.021 66.36 598.165 65.952ZM622.285 83.736V85.128H634.981V83.736H622.285ZM626.869 68.712V71.376H628.621V68.712H626.869ZM617.749 70.584V75.096H619.477V72.024H636.253V75.096H638.029V70.584H617.749ZM622.189 73.512V74.88H632.725V76.944H622.189V78.336H634.501V73.512H622.189ZM622.261 79.992V81.408H634.261V85.896H636.037V79.992H622.261ZM621.229 73.512V85.944H622.957V73.512H621.229ZM619.717 65.688V67.176H627.469V65.688H619.717ZM629.077 65.688V67.176H638.773V65.688H629.077ZM620.173 63.744C619.429 65.616 618.133 67.512 616.693 68.76C617.125 68.976 617.845 69.48 618.181 69.744C619.573 68.376 620.989 66.288 621.877 64.176L620.173 63.744ZM629.629 63.744C628.861 65.592 627.469 67.368 625.885 68.52C626.341 68.736 627.085 69.168 627.445 69.432C628.957 68.184 630.469 66.24 631.333 64.152L629.629 63.744ZM621.061 66.816C621.613 67.704 622.189 68.904 622.405 69.648L624.037 69.168C623.797 68.424 623.173 67.248 622.621 66.408L621.061 66.816ZM631.237 66.84C632.005 67.704 632.821 68.928 633.157 69.696L634.789 69.168C634.429 68.376 633.565 67.2 632.821 66.36L631.237 66.84ZM651.205 71.064H660.133V74.16H651.205V71.064ZM651.205 66.528H660.133V69.576H651.205V66.528ZM649.573 64.968V75.72H661.861V64.968H649.573ZM649.261 78.528V80.184H662.197V78.528H649.261ZM647.413 83.496V85.128H662.989V83.496H647.413ZM640.885 65.472V67.176H648.373V65.472H640.885ZM641.149 72.408V74.112H648.037V72.408H641.149ZM640.645 81.6L641.077 83.448C643.213 82.728 645.949 81.816 648.565 80.928L648.253 79.2C645.469 80.136 642.589 81.072 640.645 81.6ZM643.885 66.144V81.36L645.613 81.024V66.144H643.885ZM654.877 65.712V74.952H654.757V84.24H656.581V74.952H656.461V65.712H654.877ZM668.461 78.168C666.445 78.168 664.789 79.8 664.789 81.816C664.789 83.832 666.445 85.464 668.461 85.464C670.477 85.464 672.109 83.832 672.109 81.816C672.109 79.8 670.477 78.168 668.461 78.168ZM668.461 84.24C667.117 84.24 666.013 83.16 666.013 81.816C666.013 80.472 667.117 79.392 668.461 79.392C669.805 79.392 670.885 80.472 670.885 81.816C670.885 83.16 669.805 84.24 668.461 84.24Z"
          fill="white"/>
    <path d="M913 67C911.343 67 910 68.3431 910 70C910 71.6569 911.343 73 913 73V67ZM983.121 72.1213C984.293 70.9497 984.293 69.0503 983.121 67.8787L964.029 48.7868C962.858 47.6152 960.958 47.6152 959.787 48.7868C958.615 49.9584 958.615 51.8579 959.787 53.0294L976.757 70L959.787 86.9706C958.615 88.1421 958.615 90.0416 959.787 91.2132C960.958 92.3848 962.858 92.3848 964.029 91.2132L983.121 72.1213ZM913 73L981 73V67L913 67V73Z"
          fill="#EEEEEE"/>
</svg>
